<?xml version="1.0" encoding="utf-8"?>
<!-- Generator: Adobe Illustrator 27.1.0, SVG Export Plug-In . SVG Version: 6.00 Build 0)  -->
<svg version="1.1" id="Capa_1" xmlns="http://www.w3.org/2000/svg" xmlns:xlink="http://www.w3.org/1999/xlink" x="0px" y="0px"
	 viewBox="0 0 151.4 53.3" style="enable-background:new 0 0 151.4 53.3;" xml:space="preserve">
<g id="af9d5ed8-f4cf-4b0e-98ef-c2b6a67a05f1">
	<g id="b2541165-128f-4dae-9b2c-bb8bbe6fb76a">
		<path d="M124.5,52.4c-5.9,0-11.7-2-16.3-5.8c-9.5,7.7-23.1,7.7-32.6,0c-9.5,7.7-23.1,7.7-32.6,0C32,55.9,15.6,54.7,6.3,43.8
			C-2.6,33.5-2,18.2,7.5,8.5c4.7-5.1,11.3-8,18.2-8.2h1.7c5.6,0.2,11.1,2.2,15.4,5.8c4.4-3.6,9.8-5.6,15.5-5.8h1.7
			c5.6,0.2,11.1,2.2,15.5,5.8c4.4-3.6,9.8-5.6,15.4-5.8h1.7c5.6,0.2,11,2.2,15.4,5.8c4.4-3.6,9.8-5.6,15.5-5.8h1.7
			c14.4,0,26,11.6,26,26s-11.6,26-26,26L124.5,52.4z M112.1,42.7c9.1,6.9,22,5.1,28.9-4c6.9-9.1,5.1-22-4-28.9
			c-3.4-2.6-7.5-4-11.7-4.2h-1.5c-4.2,0.1-8.3,1.6-11.7,4.2C119.8,19.5,119.8,33.2,112.1,42.7L112.1,42.7z M79.4,42.7
			c7.4,5.6,17.5,5.6,24.9,0c-7.8-9.6-7.8-23.3,0-32.8c-3.4-2.6-7.5-4-11.7-4.2h-1.5c-4.3,0.1-8.4,1.6-11.7,4.2
			C87.2,19.5,87.2,33.2,79.4,42.7L79.4,42.7z M46.8,42.7c7.4,5.6,17.5,5.6,24.9,0c-7.8-9.6-7.8-23.3,0-32.8c-3.4-2.6-7.5-4-11.7-4.2
			h-1.4c-4.3,0.1-8.4,1.6-11.8,4.2C54.5,19.5,54.5,33.2,46.8,42.7L46.8,42.7z M25.9,5.7C14.5,6.1,5.6,15.7,6,27
			c0.4,11.4,9.9,20.3,21.3,19.9c4.3-0.1,8.4-1.6,11.7-4.2c-7.8-9.6-7.8-23.3,0-32.8c-3.4-2.6-7.5-4-11.7-4.2L25.9,5.7z M42.9,13.7
			c-5.7,7.4-5.7,17.7,0,25.1C48.6,31.5,48.6,21.1,42.9,13.7z M108.1,13.7c-5.7,7.4-5.7,17.7,0,25.1
			C113.9,31.5,113.9,21.1,108.1,13.7z M75.5,13.8c-5.7,7.4-5.7,17.7,0,25.1C81.3,31.5,81.3,21.2,75.5,13.8z"/>
	</g>
</g>
</svg>
