<?xml version="1.0" encoding="UTF-8"?>
<svg xmlns="http://www.w3.org/2000/svg" viewBox="0 0 150 150">
  <defs>
    <style>.a9070a00-8428-4cb6-a36b-cbf039fdfe73{fill:#0166b1;}.a8a9fc66-3846-45f4-816e-ba7dc79b5543{fill:#fff;}.b235433f-6e8d-4420-b7f5-49ce73726b91{fill:#6f6f6f;}</style>
  </defs>
  <g id="ace8ac93-a8d6-4689-a6fe-e220707a267c" data-name="Capa 2">
    <g id="f46a4874-77ea-479e-8e80-e9d2bb12a650" data-name="Capa 2">
      <g id="b65f67d2-eeab-43a7-b686-5033714be10c" data-name="BMW-logo-grey-fallback-53px">
        <g id="b3e447c8-cb95-4cb0-a296-0c38df1e418e" data-name="BMW-logo">
          <g id="b91218cf-7033-4313-927d-62b180624d11" data-name="BMW-logo-fallback">
            <g id="ec88bca2-b482-44c4-a405-826f2444fc4b" data-name="BMW Grey-Colour RGB-2">
              <g id="fdce2cf7-c315-4945-a9fe-7c6c64a81de6" data-name="BMW Grey-Colour RGB">
                <g id="acacbbf0-bf34-4500-ac1e-26ecd53424e9" data-name="g3375">
                  <g id="a67cfcca-149e-4a77-9d6e-0af82539e6ab" data-name="g3381">
                    <g id="f66dde36-75f4-43cf-8915-ee481cfd8e6a" data-name="g3355">
                      <path id="a759dc44-2029-4a49-bc05-e9b1cc3ee40d" data-name="path21" class="a9070a00-8428-4cb6-a36b-cbf039fdfe73" d="M119.44,75A44.42,44.42,0,0,1,75,119.44V75ZM75,30.56V75H30.56A44.42,44.42,0,0,1,75,30.56Z"></path>
                    </g>
                    <path id="b02f328f-acf6-480f-9ab8-7395c31c0017" data-name="path21-3" class="a8a9fc66-3846-45f4-816e-ba7dc79b5543" d="M75,30.56A44.42,44.42,0,0,1,119.44,75H75V30.56ZM30.56,75H75v44.44A44.42,44.42,0,0,1,30.56,75Z"></path>
                  </g>
                </g>
                <g id="eb83ed94-0a4a-4bb6-b995-8b8b750928fa" data-name="g3393">
                  <path id="b57228b4-aa9e-4048-869f-0fae3441b85e" data-name="path14" class="b235433f-6e8d-4420-b7f5-49ce73726b91" d="M75,30.56V33h0a42.06,42.06,0,0,1,42,42h2.43A44.44,44.44,0,0,0,75,30.56h0M75,117A42.06,42.06,0,0,1,33,75H30.56A44.44,44.44,0,0,0,75,119.44M75,0a75,75,0,1,0,75,75A75,75,0,0,0,75,0Zm70.12,75A70.12,70.12,0,1,1,75,4.88,70.12,70.12,0,0,1,145.12,75Z"></path>
                </g>
                <g id="bc7c46b5-b90a-4d9c-86c5-094405c5cfc8" data-name="g3386">
                  <g id="fd20eebe-ca7e-4713-b036-01c1f0369374" data-name="Group">
                    <path id="bf92547f-b7fe-4190-94ed-1608cf3c43ad" data-name="B_22d" class="b235433f-6e8d-4420-b7f5-49ce73726b91" d="M43,38.82c2.4-2.51,3.75-5.4,1.36-8.17A4.7,4.7,0,0,0,39,29.56l-.18.07,0-.16a4.33,4.33,0,0,0-1.51-4.56A4.51,4.51,0,0,0,34,24c-2.25.22-4,1.75-8.7,7-1.42,1.58-3.49,4.06-4.73,5.67l13,12.2C37.82,44.11,39.57,42.36,43,38.82Zm-16.9-3a81.05,81.05,0,0,1,6.64-7.18A3.48,3.48,0,0,1,34,27.8,1.61,1.61,0,0,1,36,29a2.86,2.86,0,0,1-1,2.38c-1.38,1.55-6.44,6.8-6.44,6.8Zm5.07,4.78s4.93-5.17,6.54-6.82a5.87,5.87,0,0,1,1.49-1.27,1.7,1.7,0,0,1,1.74,0,1.51,1.51,0,0,1,.66,1.61,4.79,4.79,0,0,1-1.27,2c-.68.72-6.52,6.93-6.53,6.93ZM76.48,24.27l4.15-9.22.26-.82-.07.85.43,12.33c1.46.13,3,.33,4.44.58L85,9.74q-3.11-.35-6.19-.48L74.74,19.33l-.15.74-.15-.74L70.37,9.26c-2.07.09-4.13.25-6.2.48L63.5,28c1.48-.25,3-.44,4.43-.58l.44-12.33-.08-.85.27.82,4.14,9.22Zm34.43,19.08c1,1.09,2.48,2.84,3.31,3.9l15.17-9.56c-.76-1-2-2.49-2.87-3.54l-9.6,6.31-.66.56.49-.71L121,31.9l-3-3-8.47,4.22-.72.48.57-.65,6.36-9.54c-1.12-.94-2.19-1.81-3.56-2.86l-9.63,15c1.22.94,2.82,2.31,3.85,3.24l9.07-4.67.58-.43-.43.58-4.7,9Z"></path>
                  </g>
                </g>
              </g>
            </g>
          </g>
        </g>
      </g>
    </g>
  </g>
</svg>
