<?xml version="1.0" encoding="utf-8"?>
<!-- Generator: Adobe Illustrator 27.1.0, SVG Export Plug-In . SVG Version: 6.00 Build 0)  -->
<svg version="1.1" id="Capa_4" xmlns="http://www.w3.org/2000/svg" xmlns:xlink="http://www.w3.org/1999/xlink" x="0px" y="0px"
	 viewBox="0 0 150 150" style="enable-background:new 0 0 150 150;" xml:space="preserve">
<path d="M7.6,96.8c0,0,0-6.9,0-7.1c0-0.6,0.1-0.7,0.8-0.7H17v-2.2H6.6c-2.1,0-3.3,0.8-3.3,3.4c0,0,0,1.6,0,3c0,1.5,0,3.1,0,3.1
	c0,2.7,1.2,3.4,3.3,3.4h10.7v-2.2H8.4C7.8,97.6,7.6,97.4,7.6,96.8z"/>
<path d="M30.1,91.9h-6.9v-5.1h-4.4v13h4.4V94h6.9v5.8h4.4v-13l-4.4,0V91.9z"/>
<path d="M60.7,97.4c-0.1,0.2-0.2,0.2-0.5,0.2c-0.3,0-0.4,0-0.5-0.2l-4.2-10.6H40c-2.1,0-3.3,0.8-3.3,3.4c0,0,0,1.6,0,3
	c0,1.5,0,3.1,0,3.1c0,2.7,1.2,3.4,3.3,3.4h11v-2.2h-9.2c-0.6,0-0.8-0.2-0.8-0.8c0,0,0-1.3,0-2.8h9.2v-2.1H41v-2.1
	c0-0.6,0.1-0.7,0.8-0.7c0,0,7.5,0,9.9,0c1.4,3.3,3.8,8.9,4,9.3c0.3,0.7,0.8,1.5,2,1.5h4.1c1.1,0,1.5-0.8,1.8-1.4
	c0.3-0.7,4.9-11.5,4.9-11.5H65L60.7,97.4z"/>
<path d="M98.5,86.8c0,0-2.6,0-4.6,0c-2,0-4.5,0-4.5,0c-2.1,0-3.3,0.8-3.3,3.4c0,0,0,1.6,0,3c0,1.5,0,3.1,0,3.1
	c0,2.7,1.2,3.4,3.3,3.4h4.5h4.6c2.2,0,3.3-0.8,3.3-3.4c0,0,0-1.6,0-3.1c0-1.5,0-3,0-3C101.8,87.5,100.6,86.8,98.5,86.8z M97.4,96.8
	c0,0.6-0.1,0.8-0.7,0.8h-5.6c-0.6,0-0.7-0.2-0.7-0.8c0,0,0-7,0-7.1c0-0.6,0.1-0.7,0.7-0.7h2.8h2.8c0.6,0,0.8,0.2,0.8,0.7
	C97.4,89.9,97.4,96.8,97.4,96.8z"/>
<path d="M108.3,86.8H104v13l13.4,0v-2.2h-9.1V86.8z"/>
<path d="M121.2,86.8c-2.1,0-3.3,0.8-3.3,3.4c0,0,0,1.6,0,3c0,1.5,0,3.1,0,3.1c0,2.7,1.2,3.4,3.3,3.4c0.4,0,11,0,11,0v-2.2H123
	c-0.6,0-0.8-0.2-0.8-0.8V94h9.1v-2.2h-9.1v-2.1c0-0.6,0.2-0.7,0.8-0.7l14.4,0v10.8h4.3V88.9h5v-2.2H121.2z"/>
<path d="M79.4,94c0,0,2,0,2,0c1.5,0,2.8-0.4,2.9-2.4c0.1-0.5,0-1.8,0-1.8c0-2.1-1.1-2.9-2.8-2.9H68.7v12.9H73V89h6.4
	c0.4,0,0.5,0.1,0.5,0.3c0,0.3,0,0.8,0,1.3c0,0.6,0,1,0,1.2c0,0.2-0.2,0.3-0.5,0.3h-5.1v2l6.3,5.6h6c0,0-7.2-5.5-7.3-5.6
	C79.2,94.1,79.3,94,79.4,94z"/>
<path d="M143.7,41.1H97.4v-8.9c0-0.5-0.4-0.9-0.9-0.9H52.8c-0.5,0-0.9,0.4-0.9,0.9v8.9H18.7c-0.5,0-1.1,0.4-1.4,0.9L5.2,65.9
	c-0.3,0.5-0.1,0.9,0.5,0.9h46.3v8.9c0,0.5,0.4,0.9,0.9,0.9h43.6c0.5,0,0.9-0.4,0.9-0.9v-8.9h33.2c0.5,0,1.1-0.4,1.4-0.9L144.1,42
	C144.4,41.5,144.2,41.1,143.7,41.1z M122,61H91.7v9.9h-34V61H20.1l7.2-14.1h30.3V37h34v9.9h37.6L122,61z"/>
</svg>
