<?xml version="1.0" encoding="utf-8"?>
<!-- Generator: Adobe Illustrator 27.1.0, SVG Export Plug-In . SVG Version: 6.00 Build 0)  -->
<svg version="1.1" id="Fiat" xmlns="http://www.w3.org/2000/svg" xmlns:xlink="http://www.w3.org/1999/xlink" x="0px" y="0px"
	 viewBox="0 0 150 150" style="enable-background:new 0 0 150 150;" xml:space="preserve">
<path d="M47.7,31.6h12.4v86.8H47.7V31.6z M101.1,31.6v10.5h9.6v76.3h12.1V42.1h9.5V31.6H101.1z M17.7,118.4h12.1V79H40V68.7H29.8
	V42.1h13.4V31.6H17.7V118.4z M102.7,112.7c0,1.9,0,3.8,0,5.7H91.4c0-3.3,0-6.6,0-9.9s0-6.6-0.1-9.9c0-6.6-0.2-13.2-0.5-19.6H77.5
	v39.4H66.7V31.6h25.4c1.5,3,2.8,6.1,3.9,9.3c1.1,3.3,2,6.6,2.7,10c0.7,3.5,1.3,7,1.8,10.6s0.8,7.3,1.1,11.1
	c0.3,3.7,0.5,7.5,0.6,11.3s0.2,7.7,0.3,11.5c0.1,3.8,0.1,7.7,0.1,11.5C102.7,108.9,102.7,110.8,102.7,112.7z M90,68.7
	c-1-9.9-2.6-19.1-5.5-26.6h-7v26.6H90z"/>
</svg>
