<?xml version="1.0" encoding="utf-8"?>
<!-- Generator: Adobe Illustrator 27.1.0, SVG Export Plug-In . SVG Version: 6.00 Build 0)  -->
<svg version="1.1" id="Capa_1" xmlns="http://www.w3.org/2000/svg" xmlns:xlink="http://www.w3.org/1999/xlink" x="0px" y="0px"
	 viewBox="0 0 150 150" style="enable-background:new 0 0 150 150;" xml:space="preserve">
<path d="M75.3,134.8c-8.8-0.3-17.6-0.5-26.4-0.9c-6.1-0.3-12.2-0.8-18.1-2.1c-3.9-0.8-7.7-2-11.2-3.9c-4.8-2.6-8.2-6.5-10.3-11.6
	c-2-4.6-3.1-9.5-4-14.4c-1.3-7.1-2-14.3-2.7-21.5c-0.9-10-1.2-20-0.8-30c0.2-4.3,0.4-8.6,1.5-12.8C5.5,28.8,11,23,19.5,20
	c4.2-1.5,8.5-2.3,12.9-2.8c7.9-1,15.8-1.6,23.7-1.8c9.2-0.2,18.5-0.3,27.7-0.3c6,0,11.9,0.3,17.8,0.6c7.4,0.4,14.8,0.9,22.1,2.4
	c4.4,0.9,8.7,2.2,12.5,4.5c5.6,3.5,8.8,8.6,10.5,14.8c1,3.7,1.2,7.4,1.4,11.1c0.2,4,0.4,7.9,0.3,11.9c-0.1,5.5-0.2,11.1-0.6,16.6
	c-0.3,5-0.8,9.9-1.4,14.8c-0.8,6.8-1.8,13.5-3.9,20c-0.9,2.9-2.1,5.7-3.7,8.2c-2.8,4.3-6.6,7.2-11.3,9.1c-4.4,1.8-9,2.7-13.7,3.4
	c-10.2,1.3-20.5,1.6-30.7,1.7c-2.6,0-5.2,0-7.7,0C75.3,134.6,75.3,134.7,75.3,134.8z M77.1,19.8c-13,0.1-23.9,0.3-34.8,1.4
	c-4.9,0.5-9.9,1-14.7,2.1c-3.5,0.8-6.8,2.1-9.7,4.3c-3.9,3-6,7-7.1,11.6c-0.8,3.5-1.1,7.1-1.3,10.7C9.1,57.2,9,64.4,9.3,71.7
	c0.4,8.4,1.1,16.8,2.3,25.1c0.7,4.9,1.8,9.7,3.3,14.4c2.7,8,8.1,13.1,16.3,15.1c4.7,1.2,9.5,1.8,14.3,2.1c6.8,0.4,13.6,0.8,20.4,0.9
	c13.9,0.3,27.8,0.1,41.6-1.2c4.1-0.4,8.1-1,12.1-2.1c7.1-2,12.1-6.2,14.8-13.1c1.8-4.5,2.9-9.1,3.6-13.8c0.7-4.7,1.3-9.4,1.7-14.1
	c0.5-5.2,0.8-10.3,1.1-15.5c0.3-6.8,0.2-13.6-0.3-20.5c-0.2-3.4-0.5-6.8-1.4-10.2c-1.4-5.5-4.4-10-9.4-12.8
	c-2.9-1.6-6.1-2.6-9.4-3.3c-6.3-1.2-12.6-1.8-19-2.2C92.6,20.1,83.7,19.8,77.1,19.8z"/>
<path d="M108.9,24.8c3.4,0.2,6.7,0.4,10.1,0.7c-0.1,1-0.1,2-0.2,2.9c-0.6,9.1-1.2,18.2-1.8,27.4c-0.5,7.5-1,14.9-1.5,22.4
	s-1.1,15.1-1.6,22.6c-0.5,6.4-1,12.7-1.5,19.1c-0.1,1.4-0.2,2.7-0.4,4.1c0,0.2-0.3,0.5-0.4,0.5c-4.7,0.3-9.4,0.6-14.1,0.9
	c0,0,0,0-0.1-0.1c-0.5-1.8-0.9-3.7-1.4-5.5c-1.2-4.7-2.4-9.4-4.2-13.9c-0.5-1.2-1.1-2.5-1.7-3.6c-1.5-2.4-3.7-3.7-6.5-4.2
	c-5.7-1-11.5-0.9-17.2,0c-3.3,0.5-5.6,2.4-7,5.4c-1.6,3.4-2.7,7-3.7,10.6c-1,3.5-1.9,7.1-2.8,10.7c-0.1,0.5-0.3,0.6-0.8,0.6
	c-4.5-0.3-9.1-0.6-13.6-0.9c-0.2,0-0.3-0.1-0.5-0.1c-2.8-32.9-4.8-65.7-6.9-98.8c3.4-0.2,6.7-0.4,10.1-0.7c0.4,1.8,0.8,3.5,1.1,5.1
	c2.9,13.6,6,27.2,9.6,40.6c0.8,2.8,1.7,5.6,2.9,8.4c2.4,5.7,6.7,9,12.8,9.7c5.1,0.6,10.2,0.7,15.3-0.1c5.8-0.8,9.8-4,12.2-9.3
	c1.8-4,2.9-8.3,4.1-12.5c3.6-13.6,6.6-27.3,9.6-41C108.7,25.4,108.8,25.1,108.9,24.8z"/>
</svg>
