<?xml version="1.0" encoding="UTF-8"?><svg id="a" xmlns="http://www.w3.org/2000/svg" viewBox="0 0 149.26 59.6"><g id="b"><g id="c"><path id="d" d="m124.19,31.82c0,6.78,1.36,10.16,6.78,10.16s6.1-6.1,6.1-10.84-1.36-8.81-6.78-8.81c-3.39,0-6.1,2.71-6.1,9.49Zm-10.84,27.78V14.2h11.52v2.03c0,2.71.68,1.36,2.03.68,0,0,2.71-3.39,8.13-3.39s14.23,4.07,14.23,17.62c0,10.84-5.42,18.97-14.23,18.97-4.74,0-8.13-2.03-8.81-2.71-.68-.68-1.36-.68-1.36,0v12.2h-11.52"/></g><g id="e"><path id="f" d="m25.75,0h12.2v31.84c0,5.42-2.03,16.94-18.97,16.94S0,37.94,0,31.84v-6.1h11.52v6.1c0,3.39,2.03,6.78,6.78,6.78s7.45-2.71,7.45-6.78c0-4.07,0-31.84,0-31.84"/></g><g id="g"><path id="h" d="m63.34,27.02c0-3.39-2.03-6.1-6.1-6.1s-5.42,2.71-5.42,6.1h11.52Zm-6.78-13.55c9.49,0,18.29,3.39,18.29,20.33h-23.04c0,5.42,2.03,7.45,6.1,7.45s5.42-3.39,5.42-3.39h10.84c0,4.74-6.78,11.52-16.94,11.52-11.52,0-16.94-8.81-16.94-17.62,0-8.13,4.74-18.29,16.26-18.29"/></g><g id="i"><path id="j" d="m100.08,27.02c0-3.39-2.03-6.1-6.1-6.1s-5.42,2.71-5.42,6.1h11.52Zm-7.45-13.55c9.49,0,18.29,3.39,18.29,20.33h-23.04c0,5.42,2.03,7.45,6.1,7.45s5.42-3.39,5.42-3.39h10.84c0,4.74-6.78,11.52-16.94,11.52-11.52,0-16.94-8.81-16.94-17.62,0-8.13,5.42-18.29,16.26-18.29"/></g></g></svg>