<?xml version="1.0" encoding="utf-8"?>
<!-- Generator: Adobe Illustrator 27.1.0, SVG Export Plug-In . SVG Version: 6.00 Build 0)  -->
<svg version="1.1" id="Capa_1" xmlns="http://www.w3.org/2000/svg" xmlns:xlink="http://www.w3.org/1999/xlink" x="0px" y="0px"
	 viewBox="0 0 151.4 53.3" style="enable-background:new 0 0 151.4 53.3;" xml:space="preserve">
<style type="text/css">
	.st0{fill:#131E29;}
</style>
<path class="st0" d="M87.9,40.9c0,0.3,0.1,0.4,0.3,0.4c0.1,0,0.3-0.1,0.4-0.1l46.2-30c0.8-0.5,1.7-0.8,2.7-0.8h10.2
	c1.6,0,2.6,1,2.6,2.6v19.4c0,2.3-0.5,3.7-2.6,5l-12.3,7.4c-0.1,0.1-0.3,0.1-0.4,0.1s-0.3-0.1-0.3-0.5V21.8c0-0.3-0.1-0.4-0.3-0.4
	c-0.1,0-0.3,0.1-0.4,0.1l-33.8,22c-0.8,0.5-1.7,0.8-2.6,0.8H75.1c-1.6,0-2.6-1-2.6-2.6v-28c0-0.2-0.1-0.4-0.3-0.4
	c-0.1,0-0.3,0.1-0.4,0.1L49.6,26.8c-0.2,0.1-0.3,0.3-0.3,0.4c0,0.1,0,0.2,0.2,0.3l15.9,15.9c0.2,0.2,0.4,0.4,0.4,0.5
	c0,0.1-0.2,0.3-0.5,0.3H50.9c-1.1,0-2-0.2-2.6-0.8l-9.7-9.6c-0.1-0.1-0.2-0.1-0.3-0.1c-0.1,0-0.2,0-0.3,0.1l-16.1,9.7
	c-1,0.6-1.6,0.8-2.6,0.8H4.4c-1.6,0-2.6-1-2.6-2.6v-19c0-2.4,0.5-3.7,2.6-5l12.4-7.4c0.1-0.1,0.2-0.1,0.3-0.1c0.2,0,0.3,0.2,0.3,0.6
	v25.5c0,0.3,0.1,0.4,0.3,0.4c0.1,0,0.3-0.1,0.4-0.1L60,11.2c0.8-0.5,1.8-0.8,2.8-0.8h22.5c1.6,0,2.6,1,2.6,2.6L87.9,40.9L87.9,40.9z
	"/>
</svg>
