<?xml version="1.0" encoding="utf-8"?>
<!-- Generator: Adobe Illustrator 25.0.0, SVG Export Plug-In . SVG Version: 6.00 Build 0)  -->
<svg version="1.1"
	 id="svg2" xmlns:cc="http://creativecommons.org/ns#" xmlns:dc="http://purl.org/dc/elements/1.1/" xmlns:rdf="http://www.w3.org/1999/02/22-rdf-syntax-ns#" xmlns:svg="http://www.w3.org/2000/svg"
	 xmlns="http://www.w3.org/2000/svg" xmlns:xlink="http://www.w3.org/1999/xlink" x="0px" y="0px" viewBox="0 0 600 600"
	 style="enable-background:new 0 0 600 600;" xml:space="preserve">
<style type="text/css">
	.st0{fill:#F7DE9F;}
	.st1{fill:#F9CE5C;}
	.st2{fill:#D8A016;}
	.st3{fill:#9F6B08;}
	.st4{fill:#5C4B21;}
	.st5{fill:#282928;}
	.st6{fill:#040404;}
</style>
<desc  id="desc6">Created with Sketch.</desc>
<g id="g3854" transform="translate(-2.3121387,3.8535645)">
	<path id="path3040" class="st0" d="M287.1,583.8c-8.2-4.6-31.8-22.7-50.5-38.8c-31-26.7-58.3-56.1-82.6-89.3
		c-52.4-71.3-84.8-154.3-99-253.4C48.3,155,45.6,88.9,49.9,74.2c2.7-9.3,8.9-18,16.7-23.5c8.5-5.9,35.5-16.6,59.7-23.6
		C177.8,12.3,234.5,5.2,301.8,5.2c85.8,0,156.1,11.4,215.3,35.1c21.2,8.5,29,14.5,35.1,27.2l4,8.3l-0.1,36.4
		c-0.3,101.2-23.1,199.6-64.7,279c-10.6,20.2-35.7,59.4-48.1,75c-23,29-49.5,56.9-75.9,79.6c-17.8,15.3-44.1,35.3-51.4,39
		C307.1,589.5,296.5,589.1,287.1,583.8L287.1,583.8z M304.9,581.2c-1.4-0.4-3.6-0.4-5,0c-1.4,0.4-0.3,0.7,2.5,0.7
		S306.3,581.6,304.9,581.2z M248,545.2c0-0.3-1.1-1.5-2.5-2.5c-2.3-1.8-2.3-1.8-0.5,0.6C246.9,545.7,248,546.4,248,545.2L248,545.2z
		 M239.5,538c0-0.3-1.8-2.1-3.9-4l-3.9-3.5l3.5,4C238.3,538.2,239.5,539.2,239.5,538z M219.4,518.8c-5.1-5.2-9.5-9.5-9.9-9.5
		c-0.4,0,3.4,4.3,8.5,9.5c5.1,5.2,9.5,9.5,9.9,9.5C228.3,528.3,224.5,524,219.4,518.8z M198,497c-5.1-5.2-9.5-9.5-9.9-9.5
		c-0.4,0,3.4,4.3,8.5,9.5c5.1,5.2,9.5,9.5,9.9,9.5S203.1,502.2,198,497z M185.1,482.7c0-0.3-1.8-2.1-3.9-4l-3.9-3.5l3.5,4
		C184,482.9,185.1,483.8,185.1,482.7z M176.5,472.4c0-0.3-1.4-1.8-3.2-3.3l-3.2-2.8l2.7,3.3C175.4,472.7,176.5,473.6,176.5,472.4z
		 M170.8,465.1c0-0.3-1.4-1.8-3.2-3.3l-3.2-2.8l2.7,3.3C169.7,465.4,170.8,466.3,170.8,465.1L170.8,465.1z M165.1,457.8
		c0-0.3-1.1-1.5-2.5-2.5c-2.3-1.8-2.3-1.8-0.5,0.6C163.9,458.2,165.1,459,165.1,457.8z M160.8,452c0-0.3-1.1-1.5-2.5-2.5
		c-2.3-1.8-2.3-1.8-0.5,0.6C159.6,452.4,160.8,453.2,160.8,452L160.8,452z M156.5,446.1c0-0.3-1.1-1.5-2.5-2.5
		c-2.3-1.8-2.3-1.8-0.5,0.6C155.3,446.6,156.5,447.3,156.5,446.1L156.5,446.1z M136.5,416.1c-0.8-1.6-1.9-2.9-2.2-2.9s0,1.3,0.8,2.9
		c0.8,1.6,1.9,2.9,2.2,2.9S137.3,417.7,136.5,416.1z M132.2,408.8c-0.8-1.6-1.9-2.9-2.2-2.9s0,1.3,0.8,2.9c0.8,1.6,1.9,2.9,2.2,2.9
		C133.4,411.7,133,410.4,132.2,408.8z M127.9,401.5c-0.8-1.6-1.9-2.9-2.2-2.9s0,1.3,0.8,2.9c0.8,1.6,1.9,2.9,2.2,2.9
		S128.7,403.1,127.9,401.5z M114.7,376.1c-4.1-8.4-7.7-15-7.9-14.7c-0.6,0.6,13.7,30,14.7,30C121.8,391.3,118.8,384.5,114.7,376.1z
		 M102.3,349.5c-1.7-3-2.1-2-0.7,1.7c0.5,1.3,1.2,2.1,1.6,1.7C103.5,352.5,103.2,351,102.3,349.5z M239.7,97.5
		c-1-0.4-2.3-0.4-2.7,0.1c-0.5,0.5,0.4,0.8,1.9,0.8C240.5,98.3,240.9,97.9,239.7,97.5z M59.8,70c0.5-1.3,0.2-1.9-0.6-1.4
		c-0.8,0.5-1.4,1.5-1.4,2.3C57.8,72.9,58.8,72.5,59.8,70z M547,70.9c0-0.7-1.3-2.8-3-4.7l-3-3.4l2.6,4.7
		C546.3,72.4,547,73.1,547,70.9z M208.3,49.4c-1-0.4-2.3-0.4-2.7,0.1c-0.5,0.5,0.4,0.8,1.9,0.8C209.1,50.2,209.4,49.8,208.3,49.4z
		 M270.2,47.4c1.4-1.6,2.3-2.9,1.9-2.9s-1.9,1.3-3.3,2.9c-1.4,1.6-2.3,2.9-1.9,2.9C267.3,50.4,268.8,49.1,270.2,47.4z M234,46.5
		c-1-0.4-2.3-0.4-2.7,0.1c-0.5,0.5,0.4,0.8,1.9,0.8C234.8,47.3,235.2,46.9,234,46.5z M405.7,18.8c-1-0.4-2.3-0.4-2.7,0.1
		c-0.5,0.5,0.4,0.8,1.9,0.8C406.5,19.6,406.8,19.2,405.7,18.8z M394.2,17.3c-1-0.4-2.3-0.4-2.7,0.1c-0.5,0.5,0.4,0.8,1.9,0.8
		C395,18.1,395.4,17.8,394.2,17.3z M382.9,15.9c-1-0.4-2.6-0.4-3.6,0c-1,0.4-0.2,0.7,1.8,0.7C383,16.6,383.8,16.3,382.9,15.9z
		 M241.2,14.4c-1-0.4-2.3-0.4-2.7,0.1c-0.5,0.5,0.4,0.8,1.9,0.8C242,15.2,242.3,14.9,241.2,14.4z M366.4,14.4
		c-1.4-0.4-3.3-0.3-4.3,0.1c-1,0.4,0.2,0.7,2.5,0.7C367,15.1,367.8,14.8,366.4,14.4z M268.4,12.9c-2.6-0.3-6.4-0.3-8.6,0
		c-2.1,0.3,0,0.6,4.7,0.6C269.2,13.5,271,13.2,268.4,12.9z M344.2,12.9c-2.6-0.3-6.4-0.3-8.6,0c-2.1,0.3,0,0.6,4.7,0.6
		C345,13.5,346.8,13.2,344.2,12.9L344.2,12.9z"/>
	<path id="path3038" class="st1" d="M289,584.4c-25.6-13.7-85.4-67.9-116.6-105.6c-79.2-96-118.7-211.9-124.1-364.1
		C47,76.9,49.5,67.2,63.5,54.3c18-16.4,88.7-36.9,151.6-43.9C332-2.5,444.3,9.6,524.4,43.8c22.4,9.6,31.1,22.3,32.3,47.2
		c0.8,16.4-1.8,65.3-4.8,91.6c-18.4,162-84.9,284.6-206.5,380.6c-25.5,20.1-31.6,23.7-41.3,24.3C297.5,588,294.6,587.4,289,584.4z
		 M322,573.5c46.3-32,93.9-79.3,128.4-127.5c45.7-63.8,75.8-139.4,90.8-228.1c8.8-52,12.5-126.9,7.2-145
		c-3.1-10.6-12.8-18.3-33.8-26.7C453.5,21.8,369.8,9.1,284.5,11.5c-77.6,2.2-140.3,13.4-194,34.7c-15.4,6.1-19.3,8.3-26,14.8
		c-7.7,7.4-7.9,7.8-9.7,19.3c-2.1,13.5-0.1,65.8,3.7,99.7c18.5,165,86.3,288,211.8,384.3c19.7,15.1,24.7,17.9,32.3,17.9
		C308.5,582.2,311,581.1,322,573.5z M288.1,574.7c-6.7-4.1-25.5-18.6-40-30.9c-77.8-65.6-131.5-145.4-162.3-241.4
		C73.9,265.4,64.9,221.9,60,177c-2.4-21.7-5.2-84.1-4.1-91c1.7-11,1.8-11.1,5-9.4c4.5,2.5,6.6-0.5,3.6-5.1c-1.9-2.9-2-4.4-0.9-6.7
		c7.8-14.9,79.5-37.7,143.7-45.7c31-3.9,55.4-5.2,95.3-5.2c77,0,135.1,8.2,190.8,26.9c25.2,8.5,40.3,15.2,44.4,19.8
		c2.5,2.8,2.5,3.2,0.1,7.3c-3.1,5.4-2.1,7.2,4.2,7.2c5.2,0,5.1-0.2,7,11.4c1.2,7.2-1.7,70.6-4.3,93.5
		c-11.7,105.3-44.6,195-98.5,269.1c-31.8,43.6-80.6,91.8-123.7,122l-10.2,7.2L310,575c-2-2.8-3.2-3.2-8.1-2.5
		c-3.2,0.4-6.5,1.8-7.4,3C293.1,577.4,292.3,577.3,288.1,574.7L288.1,574.7z M257.2,393.4c2.5-2.6,3-6.5,0.8-6.5
		c-0.8,0-1.4,0.6-1.4,1.4s-1.6,1.8-3.6,2.3c-3.6,0.9-4.4,2.2-2.6,4C252,396.4,254.9,395.8,257.2,393.4z M219.4,374.5
		c0-0.4-0.6-0.6-1.4-0.6s-1.4,0.7-1.4,1.5s0.6,1.1,1.4,0.6C218.8,375.5,219.4,374.8,219.4,374.5z M319.4,362.1
		c-2.4-4-4.6-7.2-4.9-7.2s1.2,3.5,3.3,7.8c2.1,4.3,4.3,7.5,4.9,7.2C323.3,369.6,321.8,366.1,319.4,362.1z M343.2,337.4
		c0.5-0.8-0.5-1.3-2.4-1.1c-2.6,0.3-3.4-0.6-4.2-4c-0.9-4.1-1-4.1-1.1-0.7C335.2,337.3,340.7,341.4,343.2,337.4L343.2,337.4z
		 M310.8,315c6.4-1.2,8.7-3.4,8.7-8.1c0-4.3-4.2-11.4-4.2-7.3c0,1.2-2.9,5.1-6.4,8.6c-3.5,3.5-6.6,7.6-7.1,9.2
		c-0.7,2.6-0.5,2.6,1.7,0.7C304.9,316.9,308.2,315.5,310.8,315L310.8,315z M356.7,312.7c-9.5-1.2-12.8-2.9-17.7-8.9
		c-6.1-7.4-4.4-16,3.9-19.7l4.5-2l-5.1-0.1c-15-0.2-15.2,20.9-0.3,29c3.8,2,8,2.9,14,2.8l8.6-0.1L356.7,312.7L356.7,312.7z
		 M396.7,298.8c-0.1-1.6-0.4-2.1-0.8-1.1c-0.4,1-2,1.8-3.5,1.8c-1.5,0-2.7,0.5-2.7,1.1c0,0.6,1.6,1.1,3.6,1.1
		C395.9,301.7,396.8,301,396.7,298.8L396.7,298.8z M244.4,290.4c2.4-3.7,5.9-7.2,7.7-7.7c3.9-1.1,13.6,1.7,19.2,5.6
		c5.6,3.9,12.9,4.9,15.3,2c1-1.3,3.6-2.3,5.7-2.4c3.6,0,3.7-0.1,1-2.2c-1.7-1.3-6.1-2.1-11.4-2.2c-10.5,0-15.1-2.2-18-8.5l-2.2-4.8
		l-2.7,3.1c-3.8,4.3-8.4,3.3-9.3-2.2l-0.8-4.4l-4.4,6.6c-6.3,9.3-9.1,15.3-9.1,19.4C235.2,300.4,238.5,299.5,244.4,290.4
		L244.4,290.4z M330.6,273.4c1.5-0.3-0.2-10-2.5-14.6c-2.2-4.3-3.9-5.9-7.5-6.6c-14.1-2.8-17.5-7.2-16.3-20.2c1-10,0.9-10.2-6.8-16
		c-3-2.3-6.2-5.7-7-7.6c-2-4.6-4.1-4.4-13.9,1.1c-11.5,6.5-12.6,8.7-7.4,15.5c2.3,3,4.6,8.2,5.2,11.6c0.5,3.5,1.8,6.2,2.8,6.2
		c2.6,0,5.1,6.6,5.1,13.6c0,5.2,1,7.3,6.3,13.5l6.3,7.3l17.7-1.8C322.3,274.3,330.5,273.4,330.6,273.4L330.6,273.4z M361.7,262.3
		c-1.9-5.2-5.5-17.2-7.9-26.6c-2.5-9.9-7.1-22.7-10.8-30.5c-6.2-12.8-8-15.1-9.7-12.3c-0.9,1.6,6.6,20.4,12,30
		c2.3,4.1,5.8,14.3,7.9,22.7c2.2,8.8,5.3,17.6,7.5,20.8c2,3,3.9,5.5,4.1,5.5S363.6,267.6,361.7,262.3z M327.8,186.9
		c-7.4-6.2-3.6-10.7,5.4-6.5c2.9,1.3,3.6,2.5,3.1,5.2c-0.4,2.2-0.2,3,0.7,2.1c2.6-2.6,0.4-6.8-4.8-9.4c-9.4-4.7-14.2,0.8-6.8,7.8
		c2.4,2.3,4.9,4.2,5.4,4.2C331.3,190.2,330,188.7,327.8,186.9z M387.6,177.9c1.1-2.8,2.1-6.5,2.1-8.4c0-4.5-4.8-12.2-8.9-14.4
		l-3.3-1.7l3,3.5c6.7,7.6,7.9,14.2,4.1,21.8c-1.4,2.7-1.6,4.3-0.6,4.3C384.8,183,386.4,180.7,387.6,177.9z M282.6,143.6
		c-6.3-3.9-5.9-9.4,1.2-14.2c4-2.8,6.5-3.3,12.5-3c5.1,0.3,7.5-0.1,7.5-1.3c0-1,3.1-2.7,6.8-3.9l6.8-2.2l-8.6,0.8
		c-13.1,1.2-22.5,4.3-28.5,9.7c-4.7,4.1-5.4,5.5-4.6,8.8c0.5,2.1,2.7,4.9,4.9,6.1C286.5,147.5,288.1,147,282.6,143.6L282.6,143.6z
		 M94.8,107.6c-0.5-28.6-0.5-28.8,2.7-30.2c4.8-2.1,3.9-3.7-1.1-2l-4.3,1.5v29.7c0,20.6,0.5,29.7,1.6,29.7
		C94.8,136.3,95.1,127.7,94.8,107.6z M330.8,135.1c1.5-1,1.3-1.4-0.8-1.9c-1.5-0.4-3.5,0.2-4.5,1.3c-1.5,1.6-1.3,2,0.8,1.9
		C327.7,136.3,329.7,135.7,330.8,135.1z M508,76.7c2.2,0.8,3.3,0.9,2.5,0.1c-0.8-0.8-2.9-1.8-4.6-2.4l-3.2-1l0.3,30.3l0.3,30.3
		l0.4-29.5l0.4-29.5L508,76.7L508,76.7z M120,119.9c0.9-0.9,0.2-1.1-2.1-0.4c-5.6,1.7-12.9,4.9-12.9,5.7
		C105,126.3,118.4,121.6,120,119.9z M133.8,92c6.1-26.8,6.4-27.6,10.6-29.4l4.3-1.9l-3.8-0.1c-2.1,0-4.4,0.8-5.2,1.8
		c-1.4,1.8-14.7,57.8-14.6,61.2C125.3,127.4,127.7,118.6,133.8,92z M481.4,117.9c-1.7-3-2.1-2-0.7,1.7c0.5,1.3,1.2,2.1,1.6,1.7
		C482.6,120.8,482.2,119.3,481.4,117.9z M461.9,62.4c1.9,0.4,3.2,0.1,2.7-0.6c-0.4-0.7-2.3-1.2-4.2-1.2h-3.5l0.3,29.5l0.3,29.5
		l0.4-28.9l0.4-28.9C458.4,61.7,461.9,62.4,461.9,62.4z M152.9,110.9c-0.5-2.9-1.3-5-1.7-4.6c-0.4,0.4-0.3,3.1,0.3,6
		c0.5,2.9,1.3,5,1.7,4.6C153.5,116.6,153.4,113.8,152.9,110.9z M171.3,85.1c0.3-28,0.3-28.2,3.5-28.7c1.8-0.3,3.2-1.2,3.2-2
		c0-0.9-1.4-1.1-3.2-0.6c-1.8,0.5-3.7,0.9-4.3,0.9c-0.6,0-1.1,13.6-1.1,30.1s0.4,29.7,0.8,29.3C170.6,113.7,171.1,100.6,171.3,85.1z
		 M442.2,57.2c3.6-0.6,3.5-0.6-0.7-0.8l-4.6-0.2l0.3,29.5l0.3,29.5l0.4-28.7l0.4-28.7L442.2,57.2L442.2,57.2z M186.7,97.8
		c-2-5.9-3.9-10.6-4.2-10.3c-0.3,0.3,1,5.8,2.8,12.2c1.8,6.4,3.7,11.1,4.2,10.3S188.7,103.7,186.7,97.8z M417.9,91.5
		c-0.3-3.8-0.5-0.7-0.5,6.9c0,7.6,0.2,10.7,0.5,6.9C418.2,101.6,418.2,95.3,417.9,91.5z M203.7,93.1c0-8.5-0.2-15.3-0.5-14.9
		c-1.2,1.4-2,30.5-0.8,30.5C203.1,108.6,203.7,101.7,203.7,93.1z M223.7,77.3V49.1l6.4-1c3.5-0.5,8.7-0.7,11.4-0.4
		c2.8,0.3,4.5,0,3.8-0.6c-0.7-0.7-6.3-1-12.5-0.8l-11.3,0.4l-0.4,30.3c-0.3,20.4,0.1,30,1.1,29.4C223.2,105.9,223.7,95,223.7,77.3
		L223.7,77.3z M396.5,50.2l3.9-0.1l-3.6-1.1c-2-0.6-4.1-0.8-4.6-0.5c-0.6,0.3-0.9,13.8-0.7,30l0.3,29.4l0.4-28.8l0.4-28.8
		C392.6,50.4,396.5,50.2,396.5,50.2z M488,69.8c3.8,0.8,3.8,0.8-0.4-1.2l-4.3-2l-0.7,17.7c-0.4,9.7-0.4,18.7,0,19.9
		c0.4,1.2,0.9-6.2,1.1-16.5l0.4-18.7C484.1,69,488,69.8,488,69.8z M269,98.4c-4.4-5.3-5.9-11.9-5.7-25.8c0.1-11.9,3.5-22.6,8.1-25.9
		c1.7-1.2,5.7-2.2,8.8-2.2c4.8,0,5.3-0.3,3.2-1.6c-3.6-2.1-9.5-0.4-14.2,4.2c-10.1,9.8-11.1,41.6-1.7,52
		C272.2,104.3,273.4,103.7,269,98.4z M319.5,44.8c6.2,0.3,10.5,0,9.6-0.6c-0.9-0.6-6.3-1.1-12-1.1l-10.4,0l0.3,30.2l0.3,30.2
		l0.4-29.7l0.4-29.7L319.5,44.8L319.5,44.8z M328.9,94.1c-1.3-4.1-2.8-7.1-3.2-6.7c-0.4,0.4,0.4,4.1,1.7,8.2
		c1.3,4.1,2.8,7.1,3.2,6.7C331,101.9,330.2,98.2,328.9,94.1z M243.9,96.2c3.4-3.1,3.7-12,0.5-16c-2.1-2.7-2.2-2.7-0.7,0.4
		c3.7,7.9,0.1,16.5-6.9,16.5c-2,0-4.7,0.7-5.9,1.6c-1.6,1.2-0.6,1.4,4,0.8C238.3,99,242.4,97.6,243.9,96.2L243.9,96.2z M351.5,95.2
		c-3.2-6.3-4.3-26.7-1.9-35.4c2.5-8.9,8.7-14.2,15.9-13.5c2.9,0.3,5,0,4.7-0.6c-0.4-0.6-3.3-1.1-6.4-1.1c-7.1,0-13.1,5.4-15.4,14
		c-2.6,9.5-1.9,28.1,1.2,35.2c1.5,3.4,3.1,6.2,3.6,6.2S352.9,97.8,351.5,95.2L351.5,95.2z M147.7,97.2c1.6-1,1.5-2.5-0.3-8.4
		l-2.2-7.1l0.8,6.6c0.7,5.9,0.5,6.8-2.5,8.3c-3,1.5-3.1,1.6-0.5,1.7C144.5,98.4,146.6,97.9,147.7,97.2z M372.4,95.6
		c0.8-1.6,1.5-3.7,1.5-4.7c0-1.1-0.9-0.3-1.9,1.7c-1.5,2.9-2.9,3.6-7.1,3.5c-2.9-0.1-4.9,0.4-4.5,1.1
		C362,99.7,370.9,98.6,372.4,95.6z M287,91.2c1.8-3.7,2.5-8.6,2.5-17.5c0-15.6-2.8-22.4-9.4-23c-2.6-0.3-5.1,0.4-6.2,1.7
		c-1.6,1.9-1.2,2,2.7,0.4c4.1-1.6,4.8-1.4,7.2,1.6c5.2,6.5,5.6,30,0.7,37.7c-1.9,2.9-3.3,3.6-6.5,3.1c-2.2-0.3-3.7,0-3.3,0.7
		s2.8,1.1,5.3,0.8C283.5,96.4,285.1,95.1,287,91.2z M203.2,51.8c0.7-0.6,2.5-1.5,4.1-1.9c1.9-0.5,1.4-0.8-1.6-0.9l-4.5-0.2
		l-4.5,15.7c-2.5,8.6-4.4,16.6-4.4,17.8c0,1.2,2.2-4.9,4.9-13.6C199.9,60.1,202.6,52.4,203.2,51.8z M374.4,76.2l7.4-0.5l-8.2-0.3
		c-8.1-0.3-8.2-0.2-8,3.7c0.2,3.3,0.3,3.5,0.8,0.8C366.9,77.2,368.1,76.7,374.4,76.2z M251.7,76.7c-0.5-0.9-1.6-1.6-2.5-1.6
		c-0.9,0-0.8,0.8,0.3,2.2C251.5,79.8,253.2,79.2,251.7,76.7z M418.3,64.8V53l3.9,0.9c2.9,0.7,3.4,0.5,1.8-0.5
		c-1.2-0.8-3.3-1.5-4.6-1.5c-2.2,0-2.5,1.5-2.5,11.6v11.7l-7.5-0.6c-5.8-0.4-6.4-0.3-2.5,0.5C418.6,77.6,418.3,77.9,418.3,64.8
		L418.3,64.8z M242.4,69.5c4.1-3.4,4.4-11,0.6-14.5c-2.4-2.3-2.5-2.3-0.9,0c2.3,3.2,1.5,11.5-1.2,12.9c-1.2,0.6-4.4,1.8-7.2,2.5
		l-5,1.4l5.2,0.1C237.1,72.2,240.5,71.1,242.4,69.5L242.4,69.5z M329.6,67.8c3.4-3.5,3.7-10.6,0.6-13.7c-3.3-3.3-4-2.8-1.4,0.9
		c5,7.2,1.8,12.7-8.3,14.3l-6,1l6.1,0.2C325,70.7,327.5,69.9,329.6,67.8L329.6,67.8z M371.9,58c-0.5-0.5-0.8,0.4-0.8,1.9
		c0.1,1.7,0.4,2,0.9,0.9C372.4,59.8,372.4,58.5,371.9,58L371.9,58z"/>
	<path id="path3036" class="st2" d="M290.2,584.7C273,576.3,228,538.4,198,507C116,421.3,70.3,319.8,53.5,186.6
		c-2.2-17.7-5.7-71-5.7-87.6c0-27,8.4-43.5,26.9-52.4c19.8-9.5,59.4-22,89.7-28.1c52.9-10.7,127-15.5,183.1-11.8
		c62.8,4.2,110,13,155.6,29.1c32.5,11.5,42.3,18.1,49.5,33.6c3.7,8,3.7,8.3,3.5,40.1c-1.1,130.7-35,246-99.4,337.7
		c-30.3,43.1-73.1,87.1-119.3,122.4C312.6,588.4,303.8,591.3,290.2,584.7L290.2,584.7z M321.3,574.5
		c33.7-22.9,86.8-72.9,113.2-106.6c28.4-36.2,58.5-88.4,73.7-127.5c23.3-60.1,36.3-121.7,41.6-196c1.7-24.8,1.8-59.2,0.1-66.6
		c-0.8-3.7-0.7-5.6,0.4-5.9c2.1-0.7-2.7-8.3-5.3-8.3c-1,0-3.4-1.7-5.3-3.8C526.3,45,457,24.4,393.9,16.2
		c-45.9-5.9-123-6.6-168.8-1.6C154.7,22.3,79.6,43.7,64.4,60.3c-2.3,2.5-4.6,4.2-5.2,3.9c-7.4-4.7-7.3,64.6,0.2,124.6
		C75.7,320.6,122.8,422.5,206.5,508c29.5,30.1,65.5,60.4,84.8,71.5C301.6,585.4,306.4,584.6,321.3,574.5L321.3,574.5z M294.3,567.1
		c-3.3-1.9-12.5-8.6-20.6-14.9c-8.1-6.2-15.6-11.3-16.6-11.3c-1,0-4-1.9-6.5-4.2l-4.7-4.2l5.4,3.9c7.2,5.3,6.8,3.8-0.6-2.3
		c-3.3-2.7-5.5-4.1-4.9-3.2c2.4,3.9-1.8,1.3-7.1-4.4c-3.1-3.4-4-4.9-2.1-3.3c2,1.6-7.1-8.3-20.1-21.9c-22.9-24-44.8-50.4-59.2-71.4
		c-8.2-11.9-10.4-14.5-8-9.5l1.7,3.6l-2.9-3.6c-1.6-2-2.6-4.5-2.3-5.5c0.4-1,0.1-1.5-0.7-1c-1.4,0.9-6.2-7.1-4.9-8.3
		c0.4-0.4-2.5-6.7-6.3-13.9c-10.3-19.3-18.2-36.3-27.4-58.9c-4.5-11-8.5-19.6-9-19.2c-0.5,0.5-0.5-0.7-0.1-2.6
		c0.5-2.2,0.3-2.8-0.5-1.6c-1.8,2.6-6.6-11.6-5.4-15.9c0.7-2.7,0.6-2.9-0.7-1.2c-1.3,1.7-1.4,1.1-0.7-2.9c0.7-4,0.5-4.6-0.8-2.9
		c-1.4,1.9-1.5,1.8-0.8-0.5c0.5-1.5-0.7-9-2.6-16.8c-9.3-37.6-19-104.5-19.5-134.3c-0.1-4.6-0.4-5.7-1.2-3.7c-1,2.6-1.2,2.6-2-0.7
		c-0.5-2-0.9-7-1-11.2c0-11.6-2.8-10.1-4.8,2.5c-0.3,2-0.6-6.2-0.7-18.2c-0.1-12,0.3-22.5,0.9-23.3s3-1.5,5.3-1.5
		c5.1,0,6.2-3.1,3.1-9.4c-2-4.1-1.9-4.5,1.7-8.2c3.7-3.8,17.1-10.8,24.5-12.8c3.5-0.9,3.4-0.9-0.4,1.3c-2.2,1.3-3.9,2.9-3.9,3.7
		c0,1.8,0,1.8,7.2-0.8c7.2-2.6,9.1-2.7,7.8-0.6c-0.6,1.1,0,1.3,1.7,0.8c30.8-9.9,57.1-16.5,84.9-21.2c13.2-2.3,22.3-4.4,20.7-4.9
		c-1.6-0.5,0.4-0.5,4.3-0.1c5.5,0.6,6.6,0.3,5-0.9c-1.6-1.2-0.3-1.5,5.7-0.9c4.3,0.4,21.7,0.2,38.6-0.5c57-2.3,80.8-2.8,79-1.7
		c-1,0.6,7.8,1.9,19.5,2.9c25.9,2.2,65.4,7.9,86.8,12.6c8.7,1.9,17.4,3.1,19.3,2.7c2.8-0.6,3.1-0.5,1.3,0.9c-1.8,1.4-1.6,1.5,1,0.8
		c3.7-1.1,10.8,0.5,9.8,2.2c-0.4,0.6,0.7,0.8,2.4,0.3c2.2-0.6,2.8-0.3,2,1c-0.8,1.4-0.3,1.6,2.1,0.8c2.1-0.7,2.9-0.5,2.3,0.5
		c-0.5,0.9,2.3,2.6,6.6,4c14.3,4.8,30.4,12.5,34.5,16.4c8.5,8.2,8.8,9.9,8.5,42.2c-0.2,25-3,69.6-5.5,87.8c-0.8,5.7-0.3,4.7,3.9-8.7
		c1.6-5.2,3.5-10.2,4.2-11c0.7-0.9,1.9-5.1,2.6-9.5c1.3-7.5,1.3-7.3,0.6,3c-5,72.7-29.7,159.3-62.9,220.5
		c-28.3,52-69.1,103.6-109.3,137.9l-9.3,7.9l6.5-7.2c3.6-4,7.6-9.6,8.8-12.5c1.3-2.9,4.4-7.8,7-10.9l4.7-5.6l-4.9,4.5
		c-2.7,2.4-9.1,8.3-14.2,13c-11.2,10.3-40.1,34-53.2,43.4C306,570.9,302,571.7,294.3,567.1L294.3,567.1z M258.1,394.2
		c6.1-6.2,2.4-10.6-4.6-5.5c-2.6,1.8-4.9,3.5-5.2,3.7c-1.2,0.7,3.1,4.8,5,4.8C254.3,397.2,256.5,395.8,258.1,394.2z M220.3,372.3
		c0.1-2.4-0.2-4.3-0.8-4.3c-1.9,0-4.7,7.1-3.8,9.6C217.1,381.3,220,377.9,220.3,372.3z M325.1,371.5c2.6-1.3,2.9-1.9,1.3-2.9
		c-1.1-0.7-3.4-3.5-5.1-6.3c-3.8-6.3-9-12.1-10-11.1c-0.4,0.4,1.3,4.1,3.9,8.2c3.8,6.1,4.5,8.4,3.9,13.1c-0.8,6.3,0.6,9.5,1.9,4.2
		C321.5,374.7,323.3,372.4,325.1,371.5L325.1,371.5z M401.1,369.1c0-1-0.6-2.7-1.3-3.8c-1.6-2.5-3.6,0.4-2.5,3.5
		C398.3,371.4,401.1,371.6,401.1,369.1z M343.9,337.3c0-0.7-1.3-2-2.9-2.8c-1.6-0.9-2.9-2.5-2.9-3.7s-0.6-2.1-1.4-2.1
		c-2.5,0-1.6,8.5,1,10C340.3,340.1,343.9,339.4,343.9,337.3L343.9,337.3z M231.3,317l0.8-8l-2.2,5.1c-1.2,2.8-2.4,8.4-2.7,12.4
		c-0.5,7.2-0.5,7.2,1.4,2.9C229.6,327,230.8,321.4,231.3,317z M306.4,326.3c0.4-2.5,1.5-2.9,7.4-2.8c8,0.1,12.3-2.9,13.7-9.6
		c0.7-3.3,0.2-5.1-2.1-7.6c-1.7-1.8-5.5-8.3-8.6-14.6c-6.3-12.8-6-13.3,5.6-12.2c3.9,0.4,7.1,0.2,7.1-0.3c0-1.9,7.3-4.4,12.9-4.4
		c4.1,0,6.1,0.8,7.4,2.9c1,1.6,2.8,2.9,3.9,2.9c1.7,0,1.6-0.4-0.3-1.5c-4.5-2.6-2.7-4.4,2-2c3.5,1.8,4,2.7,2.5,3.7
		c-1.5,0.9-1,1.3,1.6,1.3c3.6,0,3.6,0-1.1-4.3c-3.6-3.3-6-4.3-10.5-4.3c-3.2,0-7-0.7-8.6-1.5c-3.4-1.8-3.8-6.5-0.5-5.2
		c1.3,0.5,4,1.3,6.1,1.7l3.8,0.8l-3.6-3.2c-2-1.8-5.3-3.8-7.5-4.6c-4.7-1.7-5.1-5.1-0.8-6.8c2.9-1.1,2.9-1.2-1.1-2.1
		c-2.7-0.6-5.1-2.5-6.7-5.5c-2.2-4-3-4.4-6.9-3.6c-4.9,1.1-11.4-2.3-11.4-5.9c0-1.2,1.4-3.5,3-5.2l3-3.1l-2.8-9
		c-2.6-8.6-3.1-9.1-10.7-12.8c-11.7-5.8-12.1-10.6-1.5-17.9c6.4-4.5,11.5-4.6,19.1-0.7c6.2,3.2,9.8,9.6,9.8,17.2
		c0,2.8,2.6,7.8,7.8,15c8.1,11.1,11.4,19.6,10.6,26.9c-0.4,3.5-1.3,4.4-4.8,4.9c-3.8,0.6-3.5,0.7,2.1,1.5c5.4,0.7,6.8,1.5,8.6,5.3
		c2.9,6,9.9,14.9,10,12.7c0-1-1.3-5.2-3-9.5c-1.6-4.2-5.2-16.2-7.9-26.6c-2.9-10.9-7.5-24.1-11-31.2c-3.3-6.8-6.2-12.8-6.5-13.5
		c-0.3-0.6,0.8-1.2,2.5-1.2c4.7,0,12.8,8.4,18.9,19.8c6,11.2,10.9,15.7,16,14.9c2.7-0.4,3.1-1.3,2.9-6.5c-0.3-7-5-17.2-9.1-19.8
		c-4.2-2.7-3.5-4,2.1-4c4.9,0,7.8-2,5.2-3.6c-0.8-0.5-6.2-2.1-12-3.6c-5.8-1.5-17.1-5.8-25.1-9.5c-8.8-4.1-15.5-6.4-17.2-5.9
		c-1.5,0.5-6.2,4-10.4,7.7c-11.7,10.5-21,16.9-31.3,21.9c-17.2,8.3-20.7,14.1-24.9,41c-1.3,8.4-2.9,15.6-3.5,16
		c-2.7,1.9-16.2,21.2-18.2,25.9c-2.5,6.2-2.6,9.3-0.4,14.2c2.1,4.6,7.3,4.9,10.3,0.6c3.3-4.8,6.6-2.6,5.6,3.8
		c-0.5,3.4-0.3,5.2,0.8,5.2c2.5,0,7.4-5.6,9.7-11.1c2.7-6.6,5.4-7.4,11.9-3.7c6.9,3.9,14.9,4,19.7,0.2c2-1.6,4.1-2.6,4.8-2.2
		c1.6,1,3.5-2.3,3.5-5.8c0-3.9,4.4-4.5,6.4-0.9c1.2,2.2,1.1,3.7-0.2,5.9c-2.5,4.1-0.2,5.5,4.5,2.8l4.1-2.4l0.6,5.3
		c0.5,4.7-0.1,6-6.2,12.1c-7.6,7.5-9.6,12.7-7.1,18.3C302.7,330.9,305.8,330.6,306.4,326.3L306.4,326.3z M250.9,295.8
		c0-4.3,2.3-9.4,4.3-9.4c2,0,1.7,9.3-0.3,11.4C252.2,300.5,250.9,299.9,250.9,295.8z M270.2,276.7c-1.3-1.3-2.9-4-3.7-5.9
		c-1.9-5-5.2-5.7-9.3-1.9c-4.2,4-5.9,2.9-3.8-2.6c0.8-2.2,2.3-10.2,3.2-17.8c2.7-21.5,8.8-25.1,13.7-8c1.2,4.3,3.2,8.8,4.3,9.9
		c1.1,1.1,2,4.7,2,7.9c0,4.7,1.1,7.1,5.7,12.6c3.1,3.7,5.7,7,5.7,7.4c0,0.4-3.5,0.6-7.8,0.6C275,279.1,271.8,278.4,270.2,276.7
		L270.2,276.7z M327.4,185.2c-3.4-2.9-3.9-3.9-2.3-5c4-2.7,12.8,3.2,10,6.6C333,189.5,332.4,189.3,327.4,185.2z M369.9,313
		c1.4-1.4-0.4-1.8-8.6-1.8c-15.6,0-23.1-5.2-23.1-16.1c0-12,15-15.3,18.8-4.2c0.8,2.3,2.1,4.3,2.8,4.3c0.8,0,0.7-1.2-0.1-2.8
		c-2.4-4.6-1.7-5.9,3.2-6.1c3.5-0.1,2.7-0.5-3-1.5c-4.2-0.7-8.8-1.9-10.3-2.7c-5.8-3.2-15.6-1.1-19.6,4.2c-5,6.7,0.8,20.4,11,26
		c5.5,3,8,3.4,16.8,3C363.5,315,368.9,314,369.9,313L369.9,313z M398.8,303.7c-0.6-0.9-1.1-3-1.2-4.6c-0.1-1.6-1-3.3-2.1-3.6
		c-1.2-0.4-1.6,0-1,1c0.6,1-0.1,1.6-1.8,1.6c-1.5,0-3.2,1-3.6,2.2c-0.6,1.6,0.2,2.2,3.3,2.2c2.3,0,4.6,0.7,5,1.5s1.2,1.5,1.6,1.5
		C399.5,305.4,399.4,304.6,398.8,303.7L398.8,303.7z M393.1,266.6c1.1-2.8-0.5-13.7-2-13.7c-2.3,0-3.9,13-1.9,15.1
		C390.7,269.6,392.2,269.1,393.1,266.6L393.1,266.6z M245.2,258.5c3.1-4.9,5.7-9.7,5.7-10.6c0-0.9-1.6,1.2-3.5,4.7
		c-1.9,3.5-4.9,8.2-6.5,10.6c-1.6,2.3-2.6,4.3-2.1,4.3C239.1,267.5,242.1,263.4,245.2,258.5L245.2,258.5z M397.5,226.4
		c-1-6.1-3.2-8.4-5.1-5.3c-2.1,3.4-1.4,11.3,1.2,14.1c2.4,2.5,2.5,2.5,3.6-0.3C397.9,233.2,398,229.4,397.5,226.4z M253.2,228.5
		c-0.5-0.5-0.8,0.4-0.8,1.9c0.1,1.7,0.4,2,0.9,0.9C253.7,230.3,253.7,229,253.2,228.5L253.2,228.5z M264.5,207.7
		c1.4-1.6,2.3-2.9,1.9-2.9s-1.9,1.3-3.3,2.9c-1.4,1.6-2.3,2.9-1.9,2.9C261.6,210.6,263.1,209.3,264.5,207.7z M390.4,173.7
		c1.9-10.3-7.3-21.4-19.4-23.7c-5-0.9-4.9-0.9,1.4,2.5c11.3,6,16.3,18.9,10.7,27.2c-1.2,1.8-1.8,4-1.2,4.9
		C383.5,187.2,389.3,179.6,390.4,173.7z M304.5,181.5c1.4-1.6,2.3-2.9,1.9-2.9c-0.4,0-1.9,1.3-3.3,2.9s-2.3,2.9-1.9,2.9
		S303.1,183.1,304.5,181.5z M313.8,173.5c1-1.2,1.5-2.2,1.1-2.2s-1.5,1-2.5,2.2c-1,1.2-1.5,2.2-1.1,2.2
		C311.7,175.7,312.9,174.7,313.8,173.5z M288.8,145.7c-12.4-4.5-13-13-1.3-17.5c5.7-2.2,9.3-2.1,15.5,0.3c1.5,0.6,2.3,0.1,2.3-1.5
		c0-3.1,5.6-5.2,14.8-5.4c5.9-0.1,6.7-0.4,3.8-1.3c-14.7-4.8-41.7,2.8-47.9,13.4l-2.6,4.5l5.2,4.9c4.1,3.8,6.4,4.8,10.6,4.8l5.4-0.1
		L288.8,145.7L288.8,145.7z M95,107.3c0-24.3,0.3-29,2.1-29.7c1.9-0.7,2.1,2.6,2.1,24.6c0,28.3-0.5,27.1,10,23.3
		c7-2.5,8.6-2.7,8.6-0.9c0,0.7-4.9,3.1-10.8,5.3s-10.5,4.3-10.2,4.6c0.3,0.3,5.4-1.2,11.4-3.4c9.6-3.5,10.9-4.4,11.4-8
		c0.6-4.5,0.1-4.5-10.2-0.2c-9.2,3.8-8.9,4.6-8.5-23.5c0.2-14,0.4-25.5,0.3-25.5c-0.1,0-2.2,0.7-4.6,1.6l-4.5,1.6v30.5
		c0,20,0.5,30.2,1.4,29.6C94.4,136.5,95,125,95,107.3z M332.2,135.1c1.4-0.9,1.1-1.5-1.4-2.1c-1.8-0.5-3.6-0.3-4.1,0.4
		c-0.4,0.7-3,1.6-5.8,1.9c-4,0.5-3.6,0.7,2.2,0.8C327.1,136.2,331.2,135.7,332.2,135.1z M504.4,104.8L504,76.2l4,1
		c4.7,1.2,2.9-1.2-2.1-2.8l-3.2-1v30c0,16.5,0.5,30,1.1,30C504.3,133.4,504.6,120.6,504.4,104.8L504.4,104.8z M476.7,104.4
		c-4.9-12.2-9.1-21.8-9.4-21.5c-0.3,0.3,2.7,9,6.8,19.3s8,20.3,8.7,22.2c0.7,1.9,1.6,3.2,2,2.8C485.2,126.9,481.6,116.6,476.7,104.4
		L476.7,104.4z M134.3,116.3c1.4-9.2,1.9-10.2,6.2-11.2c2.1-0.5,4.9-1.3,6.2-1.6c1.9-0.6,2.7,0.9,4,7.3l1.6,8l4.4-1.5
		c5.1-1.8,5.4,1.5-3.4-33.3l-6.1-24.1l-4.4,1.2c-4.1,1.1-4.6,1.9-6.8,12.5c-1.3,6.2-4.6,20.6-7.2,31.9l-4.7,20.6l4.6-1.4
		C132.8,123,133.5,122,134.3,116.3z M129.8,116.6c-0.5-1.2-0.5-2.6-0.1-3s1.1,0.6,1.5,2.2C132.1,119.3,131.1,119.9,129.8,116.6
		L129.8,116.6z M130.9,109.5c-0.1-1.5,0.3-2.4,0.8-1.9c0.5,0.5,0.5,1.7,0.1,2.8C131.3,111.5,130.9,111.2,130.9,109.5L130.9,109.5z
		 M133.7,96.4c-0.1-1.5,0.3-2.4,0.8-1.9c0.5,0.5,0.5,1.7,0.1,2.8C134.1,98.4,133.8,98.1,133.7,96.4L133.7,96.4z M139.5,93
		c0.1-2.2,0.9-7.3,1.9-11.3l1.7-7.3l1.8,10.1c1.5,8.2,1.4,10.3-0.1,11.3C141.2,98,139.3,97,139.5,93z M135.2,90.6
		c-0.1-1.5,0.3-2.4,0.8-1.9c0.5,0.5,0.5,1.7,0.1,2.8C135.6,92.6,135.2,92.3,135.2,90.6L135.2,90.6z M137.4,81.7
		c1.6-9.8,3.5-14,2.5-5.8c-0.5,4-1.4,8.3-2.2,9.5C136.9,86.8,136.8,85.5,137.4,81.7z M140.8,66c0-1.7,1-2.5,3.2-2.4
		c2.2,0.1,2.5,0.4,1.1,0.9c-1.2,0.5-2.6,1.6-3.2,2.4C141.2,68,140.8,67.6,140.8,66z M459.7,90.6V62.4l3.9,0.6
		c3.1,0.5,3.5,0.3,1.8-0.9c-1.2-0.9-3.6-1.6-5.4-1.6l-3.2,0v29.1c0,18.5,0.5,29.1,1.4,29.1C459.2,118.8,459.7,108.5,459.7,90.6z
		 M175.9,113c1.6,0,2.1-3.7,2.2-19.3c0.1-10.6,0.5-17.7,0.8-15.7c1,5.8,9.2,32.7,10.4,34c0.6,0.7,1.5-1.3,2-4.4
		c0.5-3.1,3.1-12.4,5.9-20.9l4.9-15.3l-0.8,19.1l-0.8,19.1l4.4-0.7l4.4-0.7l0.4-29.7l0.4-29.7l-4.5,0c-4.4,0-4.6,0.4-7.7,10.6
		c-1.7,5.8-4.3,15-5.6,20.5l-2.5,9.9l-5.2-16.7c-2.9-9.2-5.2-17.4-5.2-18.3c0-1.8-2-2-6.8-0.7c-3.2,0.9-3.2,1-3.2,30.7
		c0,26.6,0.2,29.8,2.3,29C172.9,113.4,174.8,113,175.9,113z M438.6,85.9l-0.4-28.6l3.6,0.9c2,0.5,3.6,0.3,3.6-0.4s-1.9-1.6-4.3-2
		l-4.3-0.6v29.6c0,16.3,0.5,29.6,1.1,29.6C438.5,114.5,438.8,101.6,438.6,85.9L438.6,85.9z M417.9,89.3c-0.3-4.2-0.5-0.8-0.5,7.6
		c0,8.4,0.2,11.9,0.5,7.6C418.2,100.4,418.2,93.5,417.9,89.3z M241,104.2c7.8-2,11.7-7.2,12.5-16.5c0.6-6.9,0.2-8.4-2.8-11.5
		c-3.4-3.5-3.4-3.6-0.9-6.8c4-5,3.5-15.3-1-19.8c-3.3-3.4-4.4-3.6-15.4-3.2l-11.8,0.4l-0.4,30l-0.4,30l7.5-0.7
		C232.5,105.8,238.2,104.9,241,104.2z M229.5,87.5V78h5.5c6.6,0,10.2,3.5,10.2,9.7c0,5.7-4,9.2-10.5,9.2h-5.3V87.5z M230,68.7
		c-0.4-1.1-0.5-4.9-0.3-8.4c0.4-5.7,0.9-6.4,4.3-6.8c6.2-0.7,9.7,2,9.7,7.6c0,5.6-1.7,7.4-8.3,8.6C232.2,70.4,230.6,70.1,230,68.7
		L230,68.7z M393.9,78.6c0-27.9,0.1-28.6,2.9-27.8c1.6,0.4,2.9,0.2,2.9-0.4c0-1-4.7-2.9-7.5-2.9c-0.6,0-1.1,13.4-1.1,29.9
		c0,18.9,0.5,29.9,1.4,29.9C393.4,107.2,393.9,96.7,393.9,78.6z M488,70c3.9,0.7,3.9,0.7-0.4-1.3l-4.3-2.1l-0.4,16.8
		c-0.4,15.1-0.6,16.6-2.5,14.1c-1.9-2.5-2-2.4-0.6,1.6c3.1,9.3,3.6,8.2,3.9-10.6l0.4-19.3L488,70L488,70z M373.9,103.4
		c2.3-1.5,2.6-1.9,0.7-1.2c-1.6,0.6-5.1,1.5-7.9,2.1c-4.9,1.1-4.9,1.1-0.7,1.2C368.4,105.6,371.9,104.6,373.9,103.4z M286.4,101.3
		c5.7-3.6,8.7-10.3,9.8-22.3c2.3-24.8-8.9-42-22.9-35.2c-7.2,3.5-11.3,12.6-12.1,27C259.7,97,271.1,110.8,286.4,101.3z M273.9,92.7
		c-5.9-6-6-30.9-0.1-37.2c4.4-4.7,7.9-4.6,11.1,0.3c2,3.1,2.5,7,2.5,17.9s-0.6,14.8-2.5,17.9C281.9,96.2,277.8,96.7,273.9,92.7
		L273.9,92.7z M338.2,101.3c0-0.7-1.9-6.5-4.1-13l-4.1-11.8l3.4-2.3c7.7-5.1,7.4-21.8-0.4-28.1c-3-2.4-5.8-3-15-3h-11.2v29.9v29.9
		h3.6c3.5,0,3.6-0.1,3.6-13.1V76.6l3.9,0c3.7,0,4.2,0.8,8,13.6c4,13.4,4.1,13.5,8.2,12.9C336.3,102.8,338.2,102,338.2,101.3
		L338.2,101.3z M332,100.3c-0.3-0.6-2.4-6.5-4.5-13.1l-3.9-12H318c-3.5,0-5.6-0.7-5.6-1.8c0-1.2,2.7-1.9,7.9-2.1
		c4.4-0.1,8.8-1,9.9-1.9c5.3-4.5,3.5-15.8-2.9-18.8c-4.2-2-12.9-2.2-14.1-0.3c-0.4,0.7-0.9,8.6-1.1,17.4c-0.2,8.9-0.6,15.8-1.1,15.3
		c-0.4-0.4-1.1-9-1.5-18.9L308.8,46l10.1,0c11.7,0,15.4,2,17.8,9.5c2.2,6.9,0.6,13.1-4.4,17.1l-4.2,3.3l4.2,12.7
		c3.2,9.7,3.7,12.7,2.2,12.7C333.5,101.4,332.3,100.9,332,100.3L332,100.3z M314.4,67.3c-0.4-1.1-0.6-5.2-0.3-9.1
		c0.4-6.8,0.6-7.1,5.1-7.6c9.2-0.9,15.7,11.4,8.6,16.4C323.9,69.9,315.5,70,314.4,67.3z M357,100.6c-5.6-4.8-7.8-11.9-7.9-25.5
		c-0.1-14.6,3.4-24.3,9.8-27c6.5-2.8,14.3-0.2,17.6,5.9c0.9,1.6,1.6,2,1.7,1c0-1.1-1.8-3.9-4.1-6.2c-3.2-3.3-5.5-4.3-9.8-4.3
		c-12.4,0-18.1,10.6-17.2,32.3c0.6,14.9,3.6,23.9,8.9,26C361.1,105,361.4,104.4,357,100.6z M371.5,97.8c5-5.1,4.1-16.8-1.3-16.8
		c-1.1,0-2-1.1-2-2.3c0-1.5,0.8-2,2.3-1.5c1.2,0.5,3.8,0.9,5.6,0.9c3.1,0,3.4,0.7,3.9,7.6l0.5,7.6l0.3-9.1l0.3-9.1h-7.9
		c-7.4,0-7.9,0.2-7.9,3.5c0,2.8,0.8,3.6,3.9,4c3.5,0.4,3.9,1,3.4,4.8c-0.7,6.4-2.8,9.5-6.3,9.4c-5.3-0.1-9.5-4.6-10.9-11.6
		c-0.9-4.5-1.3-5.3-1.4-2.6C353.6,94.7,364.9,104.5,371.5,97.8z M379.4,96.2c-0.4-0.4-1.2,0.4-1.8,1.8c-0.8,2.1-0.6,2.2,0.8,0.8
		C379.4,97.8,379.8,96.7,379.4,96.2z M418.3,65.6c0-10.7,0.1-10.8,3.7-10.8c2.1,0,3.3-0.6,2.8-1.5c-0.5-0.8-2.5-1.5-4.4-1.5
		c-3.4,0-3.5,0.3-3.5,11.7c0,8.4-0.5,11.6-1.8,11.6c-1,0-4.8-0.6-8.6-1.2c-3.7-0.6-6.8-0.6-6.8,0c0,0.6,3.1,1.6,6.8,2.1
		c3.7,0.5,7.4,1.1,8.2,1.3C417.6,78.1,418.3,76.1,418.3,65.6L418.3,65.6z M356,63c0.5-3,2.2-6.8,3.7-8.4c1.5-1.6,2.2-2.8,1.4-2.8
		c-2.5,0-6,7.1-6.6,13.4C353.8,72.4,354.7,71.2,356,63L356,63z M373.9,61.4c0-2-3.5-8-4.9-8.6c-1.1-0.4-0.9,1,0.6,4.2
		C371.4,61.2,373.9,63.6,373.9,61.4L373.9,61.4z M379.6,59.2c0-0.8-1-1-2.1-0.6c-1.2,0.5-2.1,1.1-2.1,1.4c0,0.3,1,0.6,2.1,0.6
		S379.6,59.9,379.6,59.2z M85.7,55c-0.4-0.4-1.6,0-2.6,1c-1.4,1.4-1.2,1.6,0.8,0.8C85.4,56.3,86.2,55.5,85.7,55z"/>
	<path id="path2991" class="st3" d="M298.9,586.7c-5.4-0.8-9-2.5-16.7-8.2c-26.4-19.3-48.2-37.1-67.7-55.5c-7.5-7-24-24-29.7-30.6
		c-23.6-27-43.2-54.7-67.3-94.9c-5.3-8.9-11.7-22.1-20.6-42.2c-28.6-65.2-43.6-131.1-48-211.3c-0.9-15.6-1.1-27.7-1.1-45.4
		c0.1-14.6,0.1-16.4,0.8-20.3c1.3-7.3,3.9-14.2,7-18.9c3.8-5.8,14.3-14.1,22.6-18.1c11.8-5.6,40.5-14.3,66.4-20.1
		c7-1.6,20.9-4.4,25.6-5.2c1.4-0.2,4.3-0.8,6.4-1.2c2.2-0.4,5.1-0.9,6.4-1.1c1.4-0.2,3.6-0.6,5-0.9c1.4-0.3,4-0.7,5.7-0.9
		c1.8-0.2,5.5-0.7,8.2-1.1c2.8-0.4,5.7-0.8,6.6-0.9c8.6-1,11.4-1.4,17.2-2C255,5,293.7,3.5,321.7,4.5c12.3,0.4,40.1,2,42.3,2.4
		c0.6,0.1,3.3,0.3,6.1,0.5c2.7,0.2,7.2,0.6,10,0.9c2.8,0.3,7.2,0.9,9.8,1.2c12.5,1.4,23.3,2.8,27.9,3.6c1.7,0.3,6.1,1,9.8,1.6
		c39.4,6.3,72,15.5,96.3,27.2c10.5,5,14.7,7.9,19.8,13.4c6,6.4,9.5,13.2,11.4,21.7c1.6,7.2,0.9,52.2-1.3,80.7
		c-2.9,39-8,71.7-16.3,106c-9,37-21,71-38.6,108.6c-5.9,12.7-7.5,15.8-12.5,24.2c-2.6,4.5-4.9,8.4-5,8.6c-0.1,0.2-0.7,1.1-1.3,2
		c-0.6,0.9-1.3,2-1.5,2.4c-0.2,0.4-1.1,1.9-2,3.3c-0.8,1.4-1.6,2.7-1.7,2.9c-0.1,0.2-0.2,0.4-0.4,0.5c-0.1,0.1-0.9,1.3-1.8,2.7
		c-0.9,1.4-2.2,3.5-2.9,4.6c-0.8,1.1-1.4,2.2-1.4,2.4c0,0.2-0.1,0.4-0.3,0.5c-0.4,0.2-2.2,3.1-2.2,3.5c0,0.2-0.2,0.4-0.5,0.5
		c-0.3,0.1-0.5,0.4-0.5,0.6s-0.9,1.7-2,3.3c-1.1,1.6-2,3.1-2,3.2c0,0.2-0.2,0.4-0.5,0.6c-0.3,0.1-0.5,0.5-0.5,0.8
		c0,0.3-0.1,0.6-0.3,0.6c-0.2,0-0.5,0.5-0.8,1c-0.3,0.6-0.6,1.2-0.8,1.4c-1.2,1.6-2.7,3.7-5.3,7.5c-2.6,3.7-5.3,7.5-8.9,12.4
		C411.7,505.3,378,537.9,325.1,577c-7.7,5.7-11.3,7.7-15.9,8.9C306.1,586.7,301.6,587.1,298.9,586.7L298.9,586.7z M308.1,583.4
		c4.5-1.2,8.2-3.2,15.2-8.4c67.6-49.9,105.4-90.5,148.4-159.4c11.6-18.5,17.2-28.4,21.8-38.1c12.5-26.6,21.6-48.7,29-71.1
		c18-54.3,27.8-111.8,30.2-178.3c0.6-15.6,0.5-45.9-0.2-49.6c-1.8-10.2-7.9-20-17-26.9c-3.3-2.5-15-8.5-22.5-11.6
		c-22.2-9.1-47.6-15.9-80.9-21.7c-19.5-3.4-45-6.6-69.6-8.6c-2.6-0.2-5.5-0.5-6.6-0.6c-3.3-0.3-19.1-1.2-28.1-1.7
		c-17.2-0.8-48.5-0.4-70.3,0.9c-57.2,3.5-120,15-163,29.8c-11.8,4.1-16.1,6-22.2,10c-9.9,6.6-14.5,11.5-17.7,19.5
		c-3.8,9.3-4.5,17.2-3.9,45.4c0.7,35.8,2.8,63.6,7,92.9c8.3,58.1,22.7,107.1,47.4,160.8c9.6,20.9,12.4,25.9,27.7,50.5
		c3.8,6.1,14.1,21.6,18.3,27.7c28.8,41.2,56.7,70.9,98.3,104.8c10.8,8.8,36.5,28.3,40.8,31c1.6,1,5.7,2.6,7.7,3
		C300.4,584.3,305.1,584.2,308.1,583.4L308.1,583.4z M298.5,568.7c-2.2-0.6-7.2-4.1-17.3-12.1c-62.5-49.1-97.8-87.6-133-145
		c-4.7-7.7-11-18.4-15.2-26c-4.2-7.6-17.7-36.1-24.4-51.7c-23.9-55.3-37-112.7-41-179.4c-1.4-23.5-1.6-55.6-0.4-62.3
		c1.3-7.4,3.7-13.8,7-18.8c3.6-5.4,10.2-10.9,16.5-13.5c12.9-5.4,42.2-13.8,67.3-19.4c43.6-9.6,84.3-14.6,129.9-15.9
		c12.6-0.4,34.4-0.2,38.8,0.2c0.8,0.1,3.8,0.2,6.8,0.4c28.3,1.1,66.2,5.2,93.4,10.1c33.6,6,59.2,13.5,81.1,24
		c3.4,1.6,7.5,3.6,8.9,4.3c12.1,5.7,17.6,14.5,19.5,31c0.9,8.1-1.2,48.3-4.1,76.6c-8.1,80.2-24.3,138.7-54.8,197.9
		c-12.3,23.9-32,56.6-46.9,77.8c-25.5,36.4-50.2,61.9-100,103c-1,0.8-5.2,4.3-9.3,7.8c-4.1,3.4-8.6,7-9.9,7.9
		C306.7,568.6,302.2,569.8,298.5,568.7L298.5,568.7z M205.7,438.5c4.4-2,5.8-5.1,6.4-13.7c0.4-5.7,1.5-7.9,4.3-8.5l1.4-0.3l-0.2-3.4
		c-0.3-5.1-0.2-12.8,0.1-13.9c0.1-0.5,1.9-3.1,4-5.6c4.8-6.1,7.7-10.3,8.5-12.4c0.4-1,1-4.1,1.4-7c0.9-5.9,0.5-5.1,7-15.8
		c1.9-3.2,4.8-8.5,6.4-11.8c1.7-3.6,3.4-6.6,4.3-7.5c0.7-0.8,1.7-1.9,2.1-2.3c0.4-0.5,0.9-0.8,1.1-0.8c0.7,0,2.9,2.3,3.7,3.9
		c0.8,1.6,0.8,2.1,0.8,10.2c0,8.5,0,8.5,0.8,9.2c0.5,0.4,1.2,0.7,1.7,0.7c0.8,0,0.8,0-0.2-1.1c-1.5-1.6-1.8-3.8-1.5-10
		c0.2-4.8,0.2-5.5-0.6-7.7c-0.4-1.3-0.7-2.9-0.7-3.6c0.1-1.1,0.2-1.2,1.7-1.3c1.8-0.1,2.6-0.7,3.6-2.7c0.7-1.4,0.9-2.5,0.7-4.6
		c-0.1-1-0.3-1.3-1.9-2.2c-2.4-1.4-3.1-2.4-3.6-5.4c-0.5-3.5-0.1-14.4,0.6-16.8c0.7-2.2,1-2.2,3.5-0.4c2.5,1.7,10.1,5,13.8,6
		c4.6,1.2,10.8,1.3,12.8,0.3c1.7-0.9,8.1-5.9,10.8-8.4c1.2-1.2,3.2-2.8,4.4-3.7s2.8-2.1,3.6-2.8c0.8-0.7,1.8-1.2,2.2-1.2
		c1.3,0,4.7,1.4,5.9,2.4c2.2,1.8,1.1,3.7-4.2,7.2c-4.1,2.7-8.6,7.6-10.6,11.7c-0.9,1.9-5.3,15-5.3,15.9c0,1.5,1.2,4.7,2.4,6.4
		c4.3,6.1,6.4,9.5,6.8,11.2c0.3,1,0.7,2.5,1,3.2c1.2,2.8-0.2,4.4-4.9,5.6c-1.8,0.4-4.2,0.9-5.3,1.1l-2,0.2l0.6,0.9
		c0.5,0.8,0.6,0.8,0.9,0.3c0.3-0.5,1.1-0.6,4.4-0.6c3.3,0,4.5-0.1,6-0.8l1.9-0.8l0.9,1.1c1,1.3,6.8,7.3,6.8,7.1
		c0-0.9-2.8-7.3-5-11.5c-1.5-2.9-3.5-6.8-4.4-8.7c-0.9-1.9-2.9-5.2-4.5-7.4c-1.6-2.2-3-4.4-3.2-4.9c-0.5-1.8-0.2-4.9,0.6-7.5
		c1.4-4,2.5-3.7,2.5,0.6c0,3.1,0.4,4.1,3.8,9.1c3.9,5.8,4.2,6.3,6.2,11.2c1.7,4.2,3.7,8.1,6.1,11.6c1.2,1.7,3.5,8,3.5,9.5
		c0,0.6-0.4,1.4-1.2,2.1l-1.2,1.2l-0.8-1c-0.4-0.5-0.9-0.9-1-0.7c-0.1,0.1-0.3,1.3-0.4,2.6c-0.1,2.3-0.1,2.4,1.1,3.5
		c1.2,1.1,1.3,1.3,1.3,3.4c0,2.6,0.8,4.4,2.4,5.5c0.7,0.4,2.8,1.1,5.1,1.6l4,0.8l1.4-1.1c2.5-2,5.4-5.5,5.8-7
		c0.5-1.7,0.2-3.3-0.8-4.1c-0.4-0.4-0.9-1.1-1.2-1.6c-0.7-1.4-0.1-1.8,3.1-1.8c2.6,0,2.8-0.1,3.6-1.1c1-1.2,3.4-6.6,4.8-10.7
		c0.7-2.1,0.9-3.3,0.9-6.1c0-2.8,0.2-3.9,0.9-6.2c1.3-3.7,1.3-6.5,0-8.9c-1.1-2.1-1.8-2.8-4.5-4.5c-2.9-1.9-2.6-3,1.5-4.6
		c2.3-0.9,3.5-1.9,3.5-2.9c0-0.9,0-0.9-3.2-0.7c-3.2,0.2-3.2,0.2-3.8-0.8c-2-2.9-3.1-3.3-5.1-1.9c-2.2,1.5-7.2,10.7-7.2,13.2
		c0,1.5,1.6,3,4.6,4.2c1.5,0.6,3.1,1.4,3.6,1.7c1.5,1,2.2,2.7,2.2,5.1c0,1.2,0.2,2.7,0.4,3.2c0.2,0.5,0.4,2,0.4,3.3
		c0,1.9-0.2,2.8-1.1,4.6c-1.4,3-5.9,8.9-7.1,9.3c-1.3,0.5-2.6-0.6-3.2-2.6c-0.5-1.5-0.4-1.7,0.3-3.4c1.7-3.9,1.9-5.3,1.5-11
		c-0.2-2.8-0.6-5.6-0.8-6.2c-0.7-1.7-1.9-1.1-4.4,1.9c-2.3,2.9-3.9,4.1-5.1,4.1c-1.2,0-1.7-1.2-1.4-4.2c0.2-2.9,0.9-4.9,3.4-10.6
		c1.9-4.3,5-12.4,6-16c0.8-2.8,0.9-9.7,0.2-12.6c-0.4-1.5-0.9-2.5-2.4-4c-3.2-3.5-7.5-9.5-9.7-13.8c-2.6-5-4.3-10.2-3.4-10.2
		c0.5,0,4.5,5.2,6.1,7.9c2,3.4,3,4.2,4.8,4c1.3-0.2,1.3-0.1,1.5,1.1c0.7,4.3,2.7,8.5,5.9,12.3c1.5,1.7,7.5,6.7,9.3,7.6
		c2,1,5.4,2.2,9.3,3.1c2.4,0.6,4.3,0.7,8.9,0.7c6.1,0,7.5-0.3,9-1.7c0.4-0.4,1.7-1.1,2.8-1.5c1.2-0.4,2.5-1,3-1.2
		c1.3-0.7,2.2-2.1,2-3c-0.2-0.7-0.5-0.8-4.7-1c-5.4-0.3-10.2-1.4-13.9-3.3c-1.4-0.7-3.6-1.7-5-2.2c-4.2-1.6-7.4-4.2-8.1-6.6
		c-0.4-1.2,0.4-2.2,1.8-2.5c0.7-0.1,1.3-0.4,1.4-0.6c0.1-0.2,0.5-0.3,0.8-0.3c1.5,0,1.6-0.5,0.8-3.9c-1-4.1-1-4.8-0.1-4.8
		c1.5,0,2.5,0.9,4.5,3.9c1.2,1.7,3,4.1,4.1,5.2c1.8,1.9,2.2,2.1,3.5,2.1c0.8,0,1.5-0.2,1.7-0.4c0.1-0.2-0.1-1-0.5-1.8
		c-0.4-0.9-0.7-2.2-0.7-3.3c0-1.5,0.2-2,1.1-3.1c1-1.2,1.3-1.3,3.2-1.3c2.4,0,4,0.9,5.4,3c0.8,1.2,1,1.4,2.5,1.4c1.2,0,2-0.3,3-1
		c1.2-0.8,1.5-0.9,2.2-0.6c0.5,0.2,1.3,1,1.7,1.8c0.5,0.8,1.4,1.9,2,2.4c1,1,1.2,1,3,0.8c1.1-0.1,2.3-0.1,2.9,0.1
		c1.6,0.6,1.8,1.5,1.1,5.1c-0.6,3-0.6,3.3,0,4.8c0.3,0.9,1.1,2.2,1.7,2.8c1.2,1.4,1.2,1.4,1.8,6c0.5,4.4,0.1,7.5-1.7,12.2
		c-0.8,2.1-2,5.3-2.7,7.2c-0.7,1.9-1.8,4-2.3,4.7l-1,1.2l1.5,1.1c1.9,1.5,3.3,3.9,5.4,9.2c2.9,7.5,3.2,8.5,3.2,11.4
		c0,2.3-0.2,3.4-1.5,7.4c-2,6.2-2.1,8.6-0.3,11c0.7,0.9,1.3,1.9,1.3,2.3c0,0.3-0.9,2.1-2,3.9c-4.5,7.5-4.5,10.9,0.1,15.1
		c2.4,2.2,4.5,3.4,5.8,3.2c0.9-0.1,1-0.2,1.1-2.1c0.1-2.2,1.1-3.7,2.4-3.6c0.6,0.1,0.8,0.5,1,2.6c0.3,3.1,0.5,3.5,1.3,3.5
		c1.5,0,6.5-4,7.5-5.9l0.5-1.1l-1.5,1.1c-0.9,0.6-1.9,1.5-2.4,2c-1,1.1-2.1,1.2-3.4,0.2c-1.3-1-1.5-2.4-0.8-5.1
		c0.8-3.2,0.6-5.7-0.7-6.8c-0.8-0.7-1.4-0.8-3.7-0.8c-1.5,0-3-0.2-3.3-0.3c-1-0.6,0.1-2.1,2.5-3.3c3.4-1.7,3.5-2.9,0.6-4.4
		c-1.9-1-2.4-1.6-2.4-3.3c0-1.9,1.3-3.6,3.2-4.4c2.3-0.9,3.2-2.1,3.2-4.4c0-2.5-0.9-4.1-3-5.8c-3.5-2.7-3.4-2.5-3.4-5.8
		c0-2.4,0.1-3.1,0.7-3.6c0.5-0.5,0.7-1.4,0.9-3.6c0.1-1.9,0.5-3.5,0.9-4.5c1.2-2.5,1.1-3.1-1.3-6.6c-1.5-2.2-1.9-4.5-1.9-9.7
		c0-2.2-0.1-4.3-0.3-4.8c-0.5-1.2,0-5.4,0.6-5.6c1-0.4,2.6,0.7,3.8,2.7c1.3,2.1,1.5,2.3,1.8,1.2c0.3-1.2,2-0.9,6.2,0.9
		c9.3,4.1,19.8,5,25.5,2.1c3.2-1.7,9-6.8,10.5-9.3c1.4-2.3,1.3-2.4-4.5-2.2c-5.9,0.2-9.4-0.2-13.2-1.6c-3.3-1.2-6.9-3.7-9-6.1
		c-0.9-1.1-3.3-3.4-5.3-5.1c-2-1.7-3.8-3.4-3.9-3.7s-0.5-0.5-0.8-0.5c-1.1,0-5.9-2.3-8.6-4c-1.5-1-3.3-2.1-4.1-2.5
		c-2.6-1.3-12.4-3.4-18.5-3.8l-3.3-0.2l-0.2-1.3c-0.4-2.4-1.2-4-3.3-7.5c-1.8-2.8-2.2-3.7-2.2-5c0-1.9-0.8-3.8-3.4-7.9
		c-1.3-2.1-2.2-4.1-2.7-6c-0.4-1.6-1.4-4.3-2.2-6.1c-1.7-4-2.3-6.2-2.8-10.3c-0.6-4.6-1.2-7.2-2.8-11.5c-0.8-2.1-1.8-5.6-2.2-7.8
		c-1.1-5.7-1.6-6.8-4.5-11.1c-1.4-2.1-2.7-4.4-2.9-5.1c-0.1-0.7-0.7-1.7-1.2-2.4c-0.5-0.6-1.6-2.2-2.4-3.5c-0.8-1.3-1.8-2.9-2.2-3.6
		c-0.5-0.7-0.8-1.7-0.8-2.2c0-1.6,0.9-2,3.5-1.9c5.7,0.2,10.1,4.5,15.8,15.6c4.6,8.8,8.3,13.3,13,15.6c1.8,0.9,3,1.3,4.2,1.3
		c2.1,0,2.9-0.8,3.1-3.2c0.2-2.1-0.2-4-2.2-10.2c-1.1-3.6-1.5-5.4-1.7-8.3c-0.3-4.5-0.5-4.8-4.5-6.2c-3.5-1.2-3.7-1.9-0.8-2.6
		c2.8-0.7,5.9,0,9.2,2.4c2.2,1.5,2.6,1.7,4,1.5c1.2-0.1,1.9-0.5,3.6-2.1c1.9-1.8,2-2.1,1.9-3.3c-0.2-1.5,0.8-3.7,2.1-4.9
		c1.1-1,1.7-2.5,2.9-7.2c1.6-6.4,1.2-11.7-1.3-16.1c-2-3.5-11.6-11.2-17.1-13.9c-5.1-2.4-5.3-2.4-32.8-2.7
		c-30.6-0.4-44.3-1-48.2-2.4c-5.7-2-9.8-5.5-9.2-8c0.3-1.4,2.3-3.3,4-4c3.2-1.2,7.7-0.4,16.4,3.2c8,3.3,12.9,4.1,22.2,3.8
		c8.2-0.3,14.8-1.3,16.4-2.5c0.6-0.5,0.6-0.5,0-1.1c-0.4-0.3-3-1.2-5.8-1.9c-6.3-1.6-9.7-2.9-9.7-3.7c0-0.5,0.6-0.5,4.7-0.4
		c4.8,0.2,10.1,1.1,14.3,2.4c2.6,0.8,8.4,1,10.3,0.3c1.3-0.4,1.5-1.4,0.6-2.3c-2.3-2.3-14.9-6.9-24.6-8.9c-6.1-1.3-10.8-1.6-21-1.4
		c-12.5,0.2-17.7,1.2-23.7,4.3c-4.9,2.5-10.6,7.8-12.4,11.5c-2.1,4.3-0.7,7.2,5.4,10.9c4.2,2.6,7.5,3.6,14.5,4.6
		c12.7,1.9,21.7,2.3,46.4,2.3c12.1,0,21.7,0.1,22.9,0.3c3.7,0.6,8.1,2.2,10.3,3.8c2.7,1.8,5.9,5.7,7.7,9.1c1.1,2.2,1.3,2.9,1.3,5.3
		c0,2.4-0.1,3-1,4.6c-1.4,2.5-4.2,5.7-5.6,6.3c-1.7,0.7-5.7,0-10.5-1.9c-3.3-1.3-4.5-1.6-7.9-1.8c-4.4-0.3-4.9-0.5-11.3-3.4
		c-6.6-3-16.7-6.3-21.7-7.2c-2.4-0.4-4.8,0.1-8.1,1.6c-3.4,1.6-5.3,3.2-12.1,9.7c-6.3,6.2-9.2,8.5-12.8,10.2
		c-6.4,3.1-24.8,13.7-26.6,15.2c-2.5,2.2-6.7,7.5-8.5,10.5c-3.3,5.6-4.3,10-4.7,20.3c-0.3,7-0.3,7.4-1.4,10.3c-1.2,3.2-4.6,9-9,15.8
		c-4.2,6.4-7.2,11.5-9.3,15.6c-4,8-4.7,11.1-5,22.5l-0.3,8.4l-1.3,3.8c-0.7,2.1-2.2,6-3.3,8.7c-4.1,10-4,9.5-4.4,27.9l-0.3,13.5
		l-1.5,3c-0.8,1.7-2.2,4.1-3.1,5.3c-2,2.9-2.5,5.3-3.3,13.9c-0.3,3.6-0.6,7.2-0.7,8.1c-0.1,1.3-0.7,2.1-4.7,6.6
		c-7.6,8.5-10.5,12.9-10.5,15.9c0,1.5-0.1,1.7-1.5,2.7c-2.8,1.9-6.7,6.5-8,9.3c-1.5,3.3-1.9,6.4-1,8.2c1.1,2.1,1.8,1.7,4.7-2.3
		l2.6-3.6l0.9,0.8c0.5,0.5,0.9,1,0.9,1.3c0,0.3-0.6,1.8-1.4,3.5c-0.8,1.7-1.4,3.4-1.3,3.9c0.1,1.2,1.4,1.4,8.9,1.3
		C203.3,439.3,204.1,439.2,205.7,438.5L205.7,438.5z M202.4,418.7c-1.2-0.5-3.1-4.7-2.8-6.4c0.3-1.4,0.6-1.5,2.5-0.7
		c1.9,0.8,2.9,0.7,4.7-0.7c1.8-1.4,2.3-1.5,3-0.8c0.6,0.6,0.5,1.8-0.3,3.4c-0.4,0.8-1,1.9-1.3,2.5
		C207.1,417.9,204,419.4,202.4,418.7z M213.9,384.3c-0.8-0.8-0.9-1.2-0.9-4c0-1.7-0.1-3.3-0.2-3.6c-0.1-0.3,0-0.7,0.2-1
		c0.3-0.5,0.5-0.4,1.4,0.6c0.9,1,1.4,1.2,2.6,1.2c1,0,1.7-0.2,2.3-0.8c1.1-1,1.9-0.7,1.9,0.9c-0.1,2.5-1.6,5.2-3.7,6.6
		C215.7,385.5,215,385.5,213.9,384.3L213.9,384.3z M327.8,381.1c-0.9-0.3-1.9-0.6-2.1-0.8c-0.6-0.6-1.2-5.1-0.8-6.2
		c0.8-2.2,3.5-1.2,4.1,1.5c0.4,1.6,0.4,1.6,1.8,1.6c1.6,0,2.1,0.7,2.1,2.7c0,1.1-0.1,1.3-1.1,1.5
		C330.3,381.7,329.9,381.6,327.8,381.1L327.8,381.1z M221.4,350.8c-1.5-0.7-2-2.5-1.8-6.3c0.2-3.5,1.6-6.7,3.5-8l1.2-0.8l0.9,1.1
		c0.5,0.7,1.2,1.1,1.8,1.1c1.3,0,4-1.6,6-3.5c1-0.9,2.7-2.5,3.8-3.5c2.5-2.2,3.2-3.8,3.1-7.5c0-4.8-0.4-5.8-2.6-7.9
		c-2.3-2.1-3.2-3.9-3.2-6.6c0-3.1,1.5-4.9,4.2-4.9c1.5,0,2.5,1,4.4,4.2c3.1,5.3,7.6,7.4,10.5,4.9c1.4-1.2,1.9-1.3,2.7-0.5
		c0.5,0.5,0.6,1.5,0.6,5.8c0,2.9,0.1,5.6,0.3,6.1c0.2,0.6,1,1.1,2.3,1.7c2.4,1,3.2,2.2,3,4.6c-0.2,1.9-1.3,3.2-3.2,3.8
		c-2,0.5-3.5,0-9.6-3.5c-1.9-1.1-3.9-1.2-5.2-0.3c-0.5,0.3-1.7,1.7-2.7,3.1c-1.4,2-2.6,3-5.4,4.9c-3.9,2.7-5,3.8-7.3,7.4
		c-1.6,2.6-3.6,4.8-4.3,4.8c-0.2,0-0.7,0.1-1.1,0.2C222.8,351.3,222,351.1,221.4,350.8L221.4,350.8z M278.9,273.7
		c-1.3-0.6-3.1-1.3-4.1-1.5c-2.3-0.5-3.6-1.2-4.3-2.3c-0.5-0.8-0.5-1.1,0-3.1c0.6-2.6,0.3-4.6-0.9-5.7c-0.6-0.6-1.3-0.7-3.8-0.6
		c-1.8,0-3.8,0.3-4.7,0.6c-0.9,0.3-1.6,0.6-1.7,0.6c-0.2,0,0.2-3.5,0.6-4.8c0.2-0.9,0.7-1.6,1.6-2.1c2.1-1.3,2.4-2.1,2.2-5.8
		c-0.3-4.4,0.3-6.6,1.7-6.6c0.2,0,0.9,0.6,1.6,1.4c0.9,0.9,1.6,2.1,2.2,3.9c1.4,4.3,2,5.3,3.3,5.3c2.1,0,2.2,0.2,2.2,5.4
		c0,5.6,0.3,6.5,4.1,10.2C284.6,274.3,284.6,276.4,278.9,273.7L278.9,273.7z M337.1,244.4c-0.1-0.5-0.1-2.4,0-4.2l0.2-3.2l-1-0.7
		c-0.9-0.6-1.8-0.7-8.4-0.7c-6.4,0-7.5-0.1-8.8-0.7l-1.4-0.7l1.1-0.3c0.6-0.1,2.6-0.3,4.5-0.3c3.9-0.1,5.5-0.4,7.1-1.7
		c4.7-3.5,3.7-7.8-3.2-14.8c-4.3-4.3-5.1-5.5-4.9-7.7l0.1-1.5l1.8,1.8c1,1,2.4,2.8,3,4c2,3.4,8.5,12.5,10.9,15.2
		c3.6,4,4.9,7.4,4.3,11.2c-0.3,2-2.4,4.6-4,4.9C337.5,245.4,337.3,245.3,337.1,244.4L337.1,244.4z M329.3,186.8
		c-0.5-0.6-1.3-1.6-1.7-2.2c-0.5-0.7-1.6-2.1-2.5-3.2c-2-2.4-2.3-3.2-1.4-4.2c1-1,5-1,6.8,0c1.8,1,3.2,3.9,3.5,7.3l0.2,2.7l-1.1-0.2
		c-0.8-0.2-1.1-0.1-1.3,0.3C331.4,188.1,330.3,187.9,329.3,186.8L329.3,186.8z M318.8,135.4c-0.4-0.1-1.5-0.5-2.4-0.9
		c-2-0.9-2.5-1.9-1.4-2.9c1-0.9,1.8-0.8,3.7,0.1c0.8,0.4,2.5,0.9,3.7,1c1.5,0.1,2.6,0.5,3.5,1.1c1.5,1,1.6,1.4,0.8,1.7
		C326,135.7,319.9,135.7,318.8,135.4L318.8,135.4z M245.1,420.1c2.5-1.3,4.7-4,6.8-7.9c1-2,2.4-4,3.4-5.1c2.1-2.2,2.5-3,3.5-6.6
		c0.9-3.5,2.5-6.7,5.4-11.1c3.3-4.9,4.7-6.4,9-8.7c6.7-3.7,7.1-4.2,7.6-9.3c0.2-2,0.5-4.1,0.8-4.7c0.7-1.3,4-4.4,6.8-6.3l2.1-1.4
		h-9.9c-7.7,0-10.5,0.1-12.4,0.6c-1.3,0.3-3.2,0.5-4.2,0.5l-1.7-0.1l-2.2,5.6c-1.2,3.1-2.2,6-2.2,6.4c0,1.2-1.1,5.4-1.8,6.8
		c-0.9,1.8-7,8.3-8.6,9.1c-0.8,0.4-1.8,0.7-2.4,0.7c-1.3,0-2.7,1.1-3.3,2.4c-0.2,0.6-1.6,1.8-3,2.8c-3.2,2.3-7.2,6-8.2,7.7
		c-1.2,2-1.8,4.7-1.8,8.6c0,3.9,0.8,7.3,1.6,7.3c0.3,0,1.7-0.8,3.1-1.8c4.1-2.9,4.9-2.3,2.4,1.8c-0.8,1.3-1.4,2.6-1.4,2.8
		c0,0.7,2.5,1.2,5.7,1.1C242.7,421.1,243.6,420.9,245.1,420.1L245.1,420.1z M248.6,400.2c-2.3-1.7-4.4-3.9-4.4-4.6
		c0-0.4,0.8-1,2.2-1.7l2.2-1.1l1.5,1c2,1.3,3.6,1.5,5.9,0.6c2.6-1,2.9-0.8,2.5,1.5c-0.2,1-0.5,2.3-0.8,2.8c-0.6,1.1-2.9,2.2-5.5,2.4
		C250.2,401.3,250,401.2,248.6,400.2L248.6,400.2z M286.2,400.9c0.8-0.2,0.4-0.3-1.5-0.3c-2.3,0-2.6-0.1-2.5-0.7c0.1-0.4,1-1,2-1.5
		c1-0.5,2-1,2.1-1.2c0.2-0.2,0.3-1.6,0.3-3.2c0-3.4,0.5-4.2,3.2-4.7c1.9-0.4,2.7-1.1,2.7-2.5c0-0.6-0.4-1-1.6-1.5
		c-2-0.9-2.7-2-1.7-2.8c0.3-0.3,2-1.7,3.6-3.2c2.6-2.3,3-2.8,3.4-4.5c0.9-3.6,1.7-8.1,1.4-8.8c-0.3-1-1.6-2.3-2.2-2.3
		c-0.3,0-0.8-0.3-1.2-0.7c-0.5-0.5-0.7-0.6-0.7-0.2c0,0.3-1.1,2.3-2.4,4.5c-1.3,2.2-3,5.3-3.8,7c-1.3,2.7-1.7,3.2-3.6,4.5
		c-5.4,3.8-8.4,8.5-9.2,14.9c-0.4,3-0.1,5,0.6,5c0.3,0,1.4-0.7,2.4-1.6c1-0.9,2.2-1.6,2.5-1.6c0.6,0,0.6,0.3,0.4,2.5l-0.2,2.5
		l1.2,0.4C282.8,401.2,284.7,401.3,286.2,400.9L286.2,400.9z M398,275.3c0.7-0.5,1.9-1.9,2.8-3.1l1.6-2.2l-0.9-1.1
		c-3.6-4.5-5.8-7.9-7.5-11.3c-1.1-2.2-2-4.3-2-4.6c0-0.9,1.1-2,3.3-3.4c4.9-3.1,5.4-4.4,5.6-13.9c0.1-4.4,0-7.7-0.3-9.1
		c-0.6-3.1-2.3-6.4-4.5-8.8l-1.9-2.1l-1.4,0.4c-1.7,0.5-4.3,3-5.2,5c-0.9,2.1-0.8,4.5,0.4,9.5c0.7,3,1.1,5.2,1.1,7.1
		c0,3.3-0.1,4.1-1.7,10.5c-1.6,6.5-2,10-2,15.4c0,4.8,0.5,7.1,1.9,9.2C389.7,276.3,395.1,277.6,398,275.3z M96,137.3
		c3.3-1.8,12-5.5,19.2-8.3l6.2-2.3l0-5c0-2.8-0.1-5-0.3-5c-0.4,0-10.9,4.3-14.5,6c-1.6,0.7-3,1.3-3.1,1.3c-0.2,0-0.3-11.2-0.3-25.7
		c0-14.1-0.1-25.7-0.3-25.7c-0.1,0-2.6,1.1-5.5,2.5l-5.2,2.5L92,107.8c-0.1,16.6-0.1,30.4,0,30.5C92.2,138.9,93.8,138.5,96,137.3
		L96,137.3z M511.3,124.5c-0.1-7.2-0.2-20.9-0.4-30.6l-0.2-17.6l-4.7-2c-2.6-1.1-5.1-2-5.6-2l-1,0v30.4V133l1.5,0.4
		c0.8,0.2,3.4,1.2,5.6,2.2c2.3,1,4.3,1.8,4.5,1.8C511.3,137.5,511.3,133,511.3,124.5L511.3,124.5z M491.5,85.7l0-17l-4-1.4
		c-2.2-0.7-4.3-1.5-4.6-1.7c-0.3-0.2-1.1-0.3-1.7-0.3h-1.1l0,15.4c0,8.5,0,15.6,0,15.8c0.3,2-1.5-2-7.9-17.6
		c-5.5-13.6-7.5-18.2-8-18.4c-1.3-0.6-8-2.1-9.1-2.1h-1.1V89v30.6h0.9c0.7,0,7.7,1.6,10.3,2.4c0.6,0.2,0.6-0.8,0.4-18.5
		c-0.2-12.9-0.1-18.6,0.1-18.3c0.2,0.2,4.2,9.7,8.8,21.1l8.4,20.8l4.1,1.3l4.1,1.3l0.2-13.5C491.3,108.8,491.4,95.1,491.5,85.7
		L491.5,85.7z M126.3,125.3c0.6-0.3,2.7-1,4.6-1.6c1.9-0.6,3.6-1.1,3.6-1.2c0,0,0.8-4,1.8-8.7l1.7-8.7l1.6-0.5
		c5.6-1.7,9.4-2.5,9.7-2.1c0.1,0.2,1,3.6,1.8,7.4c0.9,3.9,1.7,7.1,1.8,7.3c0.1,0.2,2.6-0.3,5.4-1c4.3-1,5.2-1.3,5.1-1.8
		c-0.1-0.3-1.4-5.1-3-10.5c-1.6-5.5-5.2-18-8.1-27.9c-2.9-9.9-5.3-18.1-5.3-18.2c-0.1-0.1-1.8,0.3-3.8,0.8c-2,0.5-4.1,1-4.6,1.1
		c-0.9,0.1-1,0.5-5.3,20c-2.4,10.9-5.7,25.6-7.2,32.7c-2.8,12.8-2.8,12.9-2.1,13.2C125.1,125.9,125.1,125.9,126.3,125.3z
		 M139.6,97.1c0-0.6,3.6-18.4,3.8-19c0.3-0.7,0.7,1,2.8,10.3l1.5,6.8l-1.5,0.4c-1.5,0.4-5,1.3-6,1.7
		C139.9,97.4,139.6,97.3,139.6,97.1z M446.2,86.6l0.2-30.3l-2-0.4c-1.1-0.2-3.7-0.8-5.8-1.3c-2.1-0.5-4-0.8-4.4-0.8
		c-0.6,0-0.6,1.3-0.7,21.9c-0.1,21.2,0,38.9,0.3,39.1c0.3,0.3,11.8,2.5,12,2.3C445.9,117,446.1,103.3,446.2,86.6L446.2,86.6z
		 M173.9,112.9c2.5-0.5,4.6-0.9,4.7-0.9c0.1,0,0.1-6.9,0.2-15.4c0.1-11.5,0.2-15.2,0.5-14.5c0.2,0.5,2.6,7,5.3,14.5
		c2.7,7.5,5.1,13.6,5.3,13.6c1.2,0,1.1,0.3,8.5-25.5c1-3.5,2-6.5,2.1-6.7c0.2-0.2,0.3,6.6,0.3,15c0,8.5,0.1,15.4,0.3,15.4
		c0.4,0,8.4-1.1,9.6-1.3l1.1-0.2l-0.1-29.4c-0.1-16.2-0.2-30-0.3-30.6c-0.2-1.1-0.3-1.2-1.3-1c-3.1,0.5-8.2,1-9,0.9
		c-0.5-0.1-1-0.1-1.1,0.1c-0.1,0.1-2.3,7.4-5,16.1c-2.7,8.7-5,16.4-5.3,17c-0.2,0.7-0.4,1.1-0.5,1c-0.1-0.1-2.4-6.8-5.2-14.9
		c-2.8-8.1-5.1-14.9-5.1-15.1c-0.1-0.3-1.4-0.1-4.4,0.4c-2.3,0.5-4.7,0.9-5.3,0.9l-1.1,0l-0.2,11.5c-0.1,6.3-0.2,20.1-0.2,30.6
		c0,20.4-0.1,19.1,1.5,19.4C169.2,113.8,171.3,113.4,173.9,112.9L173.9,112.9z M425.6,82.7l0.1-30.5l-0.8-0.2
		c-3.5-0.8-8.8-1.7-9.8-1.7h-1.2l0.2,11.8c0.2,11.5,0.2,11.8-0.5,11.8c-0.4,0-3.3-0.4-6.6-0.9c-3.2-0.5-6-0.9-6.2-0.9
		c-0.1,0-0.3-5.4-0.3-12v-12l-0.8-0.2c-1.6-0.3-9.1-1.3-10-1.3h-1v30.5v30.5l5.6,0.7c3.1,0.4,5.7,0.7,5.9,0.6c0.1-0.1,0.1-6.4,0-14
		l-0.2-13.9l0.9,0.2c0.5,0.1,3.5,0.6,6.7,1l5.8,0.8v14.1v14.1l1.2,0c0.6,0,3.2,0.4,5.6,0.9c2.5,0.5,4.6,0.8,4.8,0.8
		C425.3,113.2,425.5,102.7,425.6,82.7L425.6,82.7z M370.3,106.7c5.4-1.4,9-4.9,10.7-10.4c0.6-1.9,0.7-3.4,0.7-12.4V73.7h-8.2h-8.2
		v1.8c0,1-0.1,3-0.2,4.6l-0.2,2.8h3.5h3.5l-0.1,4.9c-0.1,4.5-0.2,4.9-1.1,6.3c-2.6,4.1-8.1,3.3-11.3-1.5c-2.3-3.5-2.4-4.3-2.4-19.7
		c0-13.5,0-13.9,0.8-15.3c1-1.8,3-3.7,4.3-4c0.5-0.1,1.2-0.3,1.4-0.3c0.8-0.3,3,0.6,4.3,1.7c1.6,1.4,2.6,3.4,2.9,5.6l0.2,1.6h5.3
		c6.1,0,5.6,0.3,4.8-3.7c-1.7-8.3-8.4-13.8-16.8-13.8c-8.3,0-15,5.2-17.5,13.5c-0.4,1.2-0.5,5.1-0.5,16c0,15.9,0.2,17.8,2.3,22.1
		c1.4,2.8,4.3,6.1,6.9,7.8c1.9,1.3,5.3,2.6,7.4,3C364.7,107.4,368.4,107.2,370.3,106.7L370.3,106.7z M234.9,104.7
		c12.3-1,13.1-1.3,16.2-4.7c5.7-6.2,6.5-19.1,1.5-24.3c-1.1-1.2-3.5-2.4-4.6-2.4c-0.5,0-0.2-0.3,0.8-0.8c5.4-2.7,7-14.1,3.1-22.3
		c-1.5-3.2-3.6-5.4-6.3-6.7l-2-0.9l-5.9,0.4c-6.1,0.5-17.7,1.5-17.8,1.7c0,0-0.2,13.8-0.3,30.6l-0.2,30.5l3.4-0.2
		C224.6,105.6,230,105.1,234.9,104.7z M230.1,96.1c-0.1-0.2-0.3-4.1-0.3-8.7V79l5.3-0.2l5.3-0.2l1.2,1.2c0.6,0.6,1.6,2.1,2.1,3.2
		c0.8,1.7,1,2.5,1,5.3c0,2.9-0.1,3.5-1,5c-1.5,2.6-2.4,3-8.3,3.1C232.6,96.3,230.3,96.3,230.1,96.1L230.1,96.1z M231.9,69.5
		l-2.1-0.1l0.1-7.9l0.1-7.9l4.9-0.1l4.9-0.1l1.7,1.9c3.9,4.4,3.5,11.5-0.8,13.7C239,69.8,237.7,69.8,231.9,69.5L231.9,69.5z
		 M283.6,103.4c7.5-1.6,12.6-7,13.5-14.1c0.2-1.5,0.3-9.2,0.2-17.2c-0.1-16.1-0.2-16.6-2.5-21.1c-1.4-2.7-4.8-6.2-7.3-7.6
		c-2.4-1.3-5.5-2.2-8.3-2.4c-6.3-0.4-13.1,4.3-16.6,11.4c-2.5,5-2.6,6.3-2.3,22.9c0.3,15.6,0.4,16.9,2.2,20.3
		C266,101.9,275.2,105.3,283.6,103.4L283.6,103.4z M276,94c-2-0.7-3.4-1.9-4.4-3.7l-0.9-1.6l-0.1-15.2l-0.1-15.2l1-2
		c2.5-5.2,8.4-6.1,12.7-2c1.6,1.6,2.6,3.6,2.9,6.2c0.2,1.2,0.3,8,0.4,15c0.1,12.7,0.1,12.8-0.7,14.5C285,93.6,280.1,95.5,276,94
		L276,94z M340.5,103.2c0-0.3-2.3-6.4-5.2-13.7c-2.9-7.3-5.2-13.3-5.2-13.5c0-0.2,0.6-0.4,1.3-0.6c5.3-1,8.3-6.3,8.3-14.6
		c0-7.9-3.2-15-8.1-17.9c-1.8-1.1-4.7-1.4-18.6-1.8l-8.7-0.2v30.6v30.6l1.2,0.2c0.6,0.1,3.1,0.2,5.6,0.2l4.4,0.1l-0.1-13l-0.1-13
		l3-0.1l3-0.1l3.2,10.5c1.8,5.8,3.6,11.8,4.1,13.4l0.9,2.9l3.9,0.1c2.2,0.1,4.2,0.2,4.4,0.2C339.2,103.7,340.5,103.6,340.5,103.2
		L340.5,103.2z M315.3,68c-0.1-0.1-0.2-4-0.2-8.5v-8.3l4.4-0.3c4.9-0.3,6.3,0,8.2,1.9c3.1,3,2.9,11.4-0.3,14.3l-1.2,1.1h-5.3
		C317.9,68.3,315.4,68.2,315.3,68z"/>
	<path id="path3032" class="st4" d="M292.7,565.1c-12-7.4-41.8-31.7-61.8-50.3c-32.9-30.5-65.8-71.5-88.3-109.6
		c-47.9-81.4-72.8-176.3-75.7-288.7C66,83.6,66,82.6,69.2,76.1c4.1-8.7,7.8-11.2,27.5-18.9c54.3-21.2,111.6-31,190-32.6
		c88.6-1.7,161.8,9,220.8,32.2c20.4,8.1,24.1,10.5,28.2,19.3c3.1,6.6,3.2,7.6,2.3,41.2c-4.8,184.6-68.1,321.6-197.4,426.8
		c-15.7,12.8-32,24.4-36.1,25.7C302.4,570.3,298.7,568.8,292.7,565.1L292.7,565.1z M205.8,439.2c2.2-1,3.9-3.7,5.1-8.3
		c1-3.7,2.8-7.9,4-9.4c1.3-1.6,2.5-6.4,2.8-12.3c0.5-8.6,1.2-10.5,6.1-16.7c3.1-4,6.5-10.6,7.8-15.4c1.3-4.6,3.3-10.3,4.6-12.7
		c9.2-18,15.1-28.4,16.2-28.4c3.2,0,5.7,6.9,5.7,15.6c0,6.8,0.6,9.4,2.3,10.4c2,1.2,2.1,1.8,0.2,5.5c-1.2,2.3-2.5,6.2-3.1,8.5
		c-1.4,5.9-6,12.1-10.7,14.6c-2.2,1.2-7,5.1-10.6,8.7c-5.3,5.2-6.6,7.6-6.6,11.4c0,6.4,2.1,9.8,4.5,7.3c2.9-2.9,4.2-2.1,3.2,2.1
		c-0.9,3.7-0.8,3.8,3.8,2.9c5.9-1.2,11.3-4.7,12.3-7.9c0.4-1.4,1.3-3.4,2-4.7c0.7-1.2,3.3-6.7,5.9-12.1c3.2-6.8,6.6-11.6,11-15.3
		c3.5-2.9,7.3-7.6,8.5-10.4c3.4-8.2,13.2-15.3,13.2-9.5c0,3.4-5.5,13.7-9.6,17.8c-5.1,5.2-9,12.1-9,16c0,3.4,2,4.4,3.6,1.8
		c1.6-2.6,3.3-1.6,2.6,1.5c-0.6,2.4,0,2.9,3.7,2.9c7.3,0,14.3-4.2,15.3-9.3c0.5-2.5,2.2-6.6,3.7-9.1c1.8-3,2.4-5.9,1.9-8.3
		c-1-3.9,1.7-14,3.6-14c1.5,0,6.7,10.9,8,16.8c0.5,2.4,2.2,5.8,3.8,7.5c2.6,2.9,3.8,3.1,16.6,2.4c13.3-0.8,13.9-1,17.4-5.3
		c2.6-3.3,3.8-6.9,4.4-13.3c1-11.2,5.9-18.9,17-26.9l8.3-6l2.1,3.3c1.1,1.8,3.6,7,5.4,11.7c3.1,7.7,3.2,9,1.6,15.6
		c-1,4-1.4,8.6-0.9,10.3c0.5,1.7-0.2,6.2-1.6,10.2l-2.5,7.2l3.4,3.7c3.8,4.2,6.5,4.7,7.7,1.5c1.1-2.9,3.8-2.8,3.8,0.1
		c0,3.1,2.8,2,6-2.4c2.5-3.4,2.5-4,0.4-10.1c-1.2-3.6-2-7.6-1.6-9c0.4-1.4,0-5.3-0.8-8.7c-1.8-7.8-1.7-17,0.3-26.6
		c1.4-6.8,1.2-8.2-2-15.3c-2-4.3-3.3-8.1-3-8.5c0.3-0.3,3,0.4,6,1.6c13.9,5.6,24.7,4.3,31.3-3.7l3.9-4.7l-8.4-0.7
		c-9.6-0.8-10-1.1-20.2-10.1c-7.1-6.4-7.4-6.9-6.6-12.6c0.5-3.4-0.3-10.7-1.6-17.1c-2.2-10.2-2.3-11.7-0.2-19.1
		c1.2-4.4,2.3-9.9,2.3-12.2c0-7-3.9-17.9-8.4-23.7c-2.3-3-5-8-5.8-11.3c-0.9-3.2-3.1-8.2-5.1-11.1c-3.3-5-3.4-5.6-1.4-10.4
		c1.1-2.8,2.1-8.7,2.1-13.1c0-7-0.6-8.7-4.6-13.4c-8.8-10.2-12.9-11.1-54.7-12.4c-48.3-1.5-55.9-3.3-48.4-11.7
		c3.1-3.5,8.1-3.4,18.5,0.3c11.4,4,25.3,5,33.5,2.4c7-2.3,7.1-2.1-5-4.7c-2-0.4-3.6-1.5-3.6-2.4c0-1.1,2.2-1.3,6.8-0.7
		c18.7,2.5,21.8,2.7,21.8,1.3c0-2.4-12.6-7.2-25.7-9.9c-21.1-4.3-41.4-0.7-51,9c-5.9,6-6.6,12.4-1.7,15.7c6.2,4.1,16.4,5.4,52.8,6.5
		c33.3,1.1,37.3,1.5,43,4.3c7.1,3.5,10.2,8.1,10,14.8c-0.2,5.6-3.8,11.6-7.1,11.6c-5.6,0-24.1-4.7-37.1-9.5
		c-7.7-2.8-15.2-5.1-16.8-5.1c-3.6,0-7.7,2.8-20.1,13.4c-5.3,4.6-14.8,11.1-21.1,14.4c-20.3,10.7-26.5,19.3-29.4,40.1
		c-1.5,11.3-3.4,15.8-12.1,28.9c-7.2,10.9-12.4,25.5-12.4,35.4c0,4.8-1.7,12.4-4.5,20.4c-3.7,10.5-4.5,15.3-4.8,27.3
		c-0.3,12.5-0.8,15.5-4,21.4c-2.3,4.2-4,10.5-4.7,16.4c-0.9,8.8-1.6,10.4-8,18c-3.9,4.6-7,9.2-7,10.1c0,1-2,4-4.3,6.8
		c-5.5,6.3-8.1,13.6-5.9,15.9c1.2,1.2,2.2,0.8,3.8-1.6c3.1-4.6,4.9-4,3.5,1.1c-0.8,2.9-0.7,4.5,0.5,5
		C193.5,442.4,201.6,441.1,205.8,439.2L205.8,439.2z M315.3,133.5c-4-2.6-0.2-3.3,5.9-1.1l6.2,2.2l-5,0.1
		C319.7,134.8,316.5,134.2,315.3,133.5z M108.9,131.7c11.1-4.1,11.8-4.6,11.8-8.6c0-2.3-0.2-4.2-0.5-4.2s-4.2,1.3-8.8,2.9
		c-4.6,1.6-8.5,2.9-8.8,2.9c-0.3,0-0.5-11.5-0.5-25.5s-0.2-25.5-0.5-25.5s-2.5,0.7-5,1.6l-4.5,1.6v30.6c0,28.6,0.2,30.5,2.5,29.6
		C96,136.5,102.5,134.1,108.9,131.7z M512.7,107.3V76.9l-4.5-1.6c-2.5-0.9-4.7-1.6-5-1.6c-0.3,0-0.5,13.7-0.5,30.4v30.4l4.6,1.5
		c2.6,0.8,4.8,1.6,5,1.7C512.5,137.7,512.7,124.1,512.7,107.3L512.7,107.3z M490.9,98.9l-0.4-30.1l-3.9-1.1l-3.9-1.1l0,16.3
		c0,18.6-0.2,18.6-8.7-3.4c-6.3-16.1-8.3-18.9-13.7-18.9h-3.3v29.9c0,22.9,0.4,29.9,1.8,29.9c1,0,3.2,0.4,5,0.9
		c3.1,0.9,3.2,0.7,3.6-16.9l0.4-17.7l7.8,19.9c4.3,10.9,8.8,20.5,10,21.2C491.1,131,491.3,130.2,490.9,98.9z M133.8,123.8
		c0.5-0.3,1.3-4.1,1.9-8.5c1.1-9,1-8.9,8.1-10.2l5.2-1l1.7,7.4c1.7,7.2,1.8,7.3,6.3,6.5c2.5-0.5,4.8-1.1,5.1-1.4
		c0.7-0.6-12.8-54.8-14-56.1c-0.5-0.5-2.8-0.3-5.2,0.3c-4.3,1.2-4.4,1.4-9.7,24.9c-2.9,13-6.2,27.5-7.3,32.2l-2,8.5l4.5-1
		C130.9,124.8,133.3,124.1,133.8,123.8z M140,94.2c0.5-1.5,1.4-5.6,2-9.1l1.1-6.3l1.9,7.8c1.6,6.6,1.6,8-0.1,9.1
		C141.4,97.9,139.1,97.2,140,94.2L140,94.2z M446.9,87.6c0-16.4-0.5-30.1-1.1-30.4c-0.6-0.3-2.8-1-5-1.6l-3.9-1v30.5v30.5l3.9,0.6
		c2.2,0.3,4.4,0.7,5,0.8C446.4,117.3,446.9,104,446.9,87.6L446.9,87.6z M176.8,113.7c1.4-0.5,1.8-3.4,1.4-10.6
		c-0.3-5.4-0.3-12.5,0-15.7c0.4-5.4,0.9-4.6,6,10.9l5.6,16.6l5.2-18.7l5.2-18.7l0.4,16.4c0.3,14.1,0.7,16.2,2.6,15.5
		c1.2-0.5,3.4-0.9,5-0.9c2.6,0,2.7-1.4,2.7-30.3V48l-4.9,0.6c-4.8,0.6-5,0.8-8.7,13.2c-2.1,6.9-4.6,15.2-5.7,18.4l-1.9,5.8
		l-4.7-15.3c-2.6-8.4-5.2-15.9-5.8-16.5c-0.6-0.7-3.1-0.8-5.6-0.2l-4.4,1v29.8c0,28.4,0.1,29.8,2.7,29.8
		C173.6,114.5,175.7,114.1,176.8,113.7z M425.1,82.8l-0.4-30.2l-3.9-0.5l-3.9-0.5v11.8v11.8l-6.1-0.9c-10-1.4-9.7-1-9.7-13.7
		c0-8.4-0.5-11.7-1.8-11.7c-1,0-3.2-0.4-5-0.9l-3.2-0.9v30.6v30.6l5,0.6l5,0.6V96c0-15-0.5-14.4,10.4-12.6l5.4,0.9v13.5
		c0,11.7,0.3,13.6,2.5,14.2C425.6,113.7,425.5,114.5,425.1,82.8L425.1,82.8z M245.1,103.8c5.9-2.9,9.2-8.9,9.3-16.9
		c0.1-5.6-0.6-8-3-10.4c-3.1-3.1-3.1-3.2-0.4-7.7c3.3-5.5,3.5-11.2,0.6-17c-2.7-5.3-9.6-7.2-21.4-6l-8.6,0.9l-0.4,30.4l-0.4,30.4
		l10.4-1C236.9,105.9,243.2,104.7,245.1,103.8L245.1,103.8z M230.9,88.5c0-7.6,0.4-8.8,3-9.5c8-2.1,13.8,5.9,9.7,13.5
		c-1.5,2.8-3.4,3.9-7.4,4.2l-5.3,0.5C230.9,97.2,230.9,88.5,230.9,88.5z M230.9,62.7v-8h4.7c5.7,0,8.2,2.2,8.2,7.4
		c0,4.6-1.9,6.4-8.2,7.7l-4.6,0.9C230.9,70.7,230.9,62.7,230.9,62.7z M376.3,103.5c3.8-2.5,6.2-10.3,6.2-20.1
		c0-7.7-0.1-7.8-10.4-8.8l-6.8-0.7V79c0,4.3,0.5,4.9,3.6,4.9c2.9,0,3.6,0.7,3.6,3.7c0,8.6-6.8,12.5-11.9,6.7c-7-7.9-5.4-38,2.1-40.4
		c3.1-1,8.4,2.8,8.4,6.1c0,1.3,1.8,2,5,2c5.7,0,6.3-1.9,2.9-8.7c-3-6-7.6-8.8-14.3-8.8c-12.3,0-17.8,9.3-17.8,29.9
		c0,13.6,2.1,22.2,6.4,27.1C358.3,107.2,369.4,108.2,376.3,103.5L376.3,103.5z M287.8,102c1.8-1.3,4.6-5,6.3-8.4
		c4.5-8.8,4.6-30.8,0.2-40.6c-3-6.7-8.8-11.4-14.1-11.4c-5,0-11.7,4.7-14.9,10.3c-6.6,12-5.3,38.7,2.3,48c3,3.6,4.6,4.3,10.2,4.3
		C281.7,104.3,286,103.3,287.8,102L287.8,102z M274.2,91.6c-1.8-2.9-2.7-7.5-3-17.1c-0.4-11.3,0-13.9,2.5-18c3.7-6,8.3-5.8,11.5,0.5
		c3.2,6.5,3,29.5-0.4,34.7C281.6,96.6,277.4,96.6,274.2,91.6L274.2,91.6z M315.3,90.7c0-12.3,0.1-12.8,3.1-12.4
		c2.4,0.4,4,3.1,7.5,13.2l4.4,12.7h5.3h5.3l-4.7-13.7l-4.7-13.7l3.8-3.7c4.7-4.5,6.2-11.1,4.1-18.6c-2.2-8.4-7.8-11.4-21.7-11.4
		l-11,0l-0.4,30c-0.2,16.5-0.3,30.1-0.2,30.2c0.1,0.1,2.2,0.2,4.6,0.2h4.4V90.7L315.3,90.7z M316.3,68.5c-0.6-0.6-1.1-4.7-1.1-9.1
		v-8l6,0.8c8.6,1.2,12.2,7.2,7.9,13.2C327.3,68.1,318.1,70.3,316.3,68.5z M48,108.6c0-2,0.3-2.8,0.7-1.8s0.4,2.6,0,3.6
		C48.4,111.5,48,110.7,48,108.6z M48.2,95.5c0-4.4,0.3-6.2,0.6-4c0.3,2.2,0.3,5.8,0,8C48.5,101.7,48.2,99.9,48.2,95.5z"/>
	<path id="path3030" class="st5" d="M288.6,558c-35.2-25.6-79-67.1-103.7-98.2c-74.5-93.9-109.8-199.5-115-344.6
		C68.5,76.7,70.4,71.9,91.4,63c54.8-23.4,125.2-35,211-35c64.7,0,109.9,5.1,159.5,18c22.5,5.8,53.9,17,61.9,21.9
		c5.9,3.7,10,10.5,11.3,18.9c1.3,8.4-1.6,67.4-4.5,93.3c-15.1,133.8-63.3,237.4-150.9,324c-28.1,27.8-70.8,62.1-77.2,62.1
		C301,566.2,294.8,562.5,288.6,558L288.6,558z M206.1,439.5c3.4-2.1,4.8-4.3,5.6-8.4c0.6-3,2.2-7.1,3.7-9c1.9-2.5,2.7-5.9,2.7-12.6
		c0-8.5,0.4-9.6,5.8-16.2c4-4.9,6.8-10.6,9.2-18.3c1.9-6.2,4.7-13.1,6.2-15.3c1.5-2.2,4.8-8.2,7.3-13.2c2.5-5,5-9.1,5.7-9.1
		c3,0,5,5.1,4.7,12.1c-0.4,8.9,0.6,12.7,3.4,12.7c1.8,0,1.8,0.6-0.1,4.3c-1.2,2.4-2.2,5.1-2.2,6.1c0,4.5-6.3,14.5-11,17.4
		c-2.8,1.7-6.5,4.6-8.2,6.2c-1.8,1.7-4.6,4.2-6.3,5.6c-2.9,2.4-3.9,6.4-3.2,13.5c0.4,4.2,2.6,6,4.6,3.9c2.7-2.8,4.3-2,2.6,1.2
		c-1.4,2.6-1.1,2.9,3.2,2.9c5.4,0,14-4.8,14-7.8c0-2,10.1-22.5,13.7-27.7c1-1.5,3.9-3.9,6.3-5.5s5.5-5.2,6.8-8.2
		c3.2-7.3,7.4-12,10.7-12c1.4,0,2.6,0.3,2.6,0.8c0,2.5-8.8,17.9-10.6,18.6c-2.7,1-9.8,15.1-8.7,17.1c1.1,1.9,5,1.8,5-0.1
		c0-0.8,0.6-1.5,1.4-1.5s1,1,0.5,2.3c-1.3,3.3,1.9,4.8,7.6,3.5c7.4-1.7,12-5.3,12-9.5c0-2,1.4-5.6,3.1-7.9c2.3-3.2,2.9-5.5,2.2-9.5
		c-0.8-5.2,1.2-12.4,3.5-12.4c1.7,0,4.9,6.9,6.9,14.6c2.8,10.7,3.9,11.3,20.2,11.3c10.8,0,14.7-0.5,16-2.1c0.9-1.2,2.9-3.5,4.5-5.2
		c2-2.2,2.8-5.4,3-11.4c0.2-7,1-9.5,5.1-15.3c6.1-8.7,18-17.4,20.7-15.2c1,0.9,3.5,5.9,5.6,11.2c3.4,8.8,3.6,10.3,2.1,15.9
		c-0.9,3.4-1.4,8-1,10.3c0.4,2.2-0.1,6.3-1.3,9c-2.8,6.9-2.5,10,1.5,14.1c4.4,4.4,6.2,4.5,7.8,0.3l1.2-3.3l1.3,3.6l1.3,3.6l3.8-3.9
		c4.3-4.4,4.7-8.1,1.7-14c-1.1-2.2-1.7-5.5-1.2-7.3c0.5-1.8,0-7.1-1-12c-1.5-7.1-1.5-11,0-20.7c1.7-11.3,1.7-12.3-1.2-17.7
		c-4.6-8.7-4.1-9.6,4.1-6.4c12.4,4.8,25.4,2.8,30.5-4.7c3.6-5.2,3-7.2-1.9-6.2c-7.6,1.5-13.7-0.7-22.1-8.2l-8.1-7.2l-0.7-12.8
		c-0.8-13.4-0.8-21.2-0.2-42.4c0.4-12.8,0.3-12.9-5.3-21.5c-3.1-4.7-6.7-11.8-8-15.6s-3.8-8.5-5.5-10.4c-3-3.3-3.1-3.7-0.9-7.9
		c6.8-13.4,2.7-26.7-10.5-34.2l-7.7-4.4l-36.6-1.2c-46.4-1.5-55.2-3.2-51.5-10.1c2.4-4.5,7.5-4.7,19.9-0.7
		c12.6,4.1,26.4,4.9,34.2,2.2c5.2-1.9,4.7-4.2-1-4.2c-2.2,0-5.2-1-6.7-2.3c-2.6-2.1-2.4-2.2,2.9-1.5c17.5,2.4,23.6,2.6,23.6,1
		c0-0.9-2.7-2.9-6.1-4.3c-20.7-9-46.9-9.9-62-2.3c-7.6,3.9-14.9,11.5-14.9,15.5c0,2.7,7,8.3,12.3,9.9c3.1,0.9,22.3,2.3,42.7,3.1
		c40.1,1.5,46.9,2.8,52.2,9.6c3.9,5,3.7,12.4-0.4,17.2l-3.3,3.9l-11.1-2.3c-6.1-1.3-16.7-4.4-23.6-6.9c-21.4-7.8-21.5-7.8-38.5,6.6
		c-5.7,4.9-17,12.5-25,17c-20.4,11.3-24.5,17.9-27.6,43.9c-0.6,4.9-2.9,10.1-8.1,18.2c-11,17.1-14.1,24.9-15.5,39.4
		c-0.7,7.5-3,17.8-5.6,25.1c-3.6,10.3-4.3,14.6-4.3,25.7c0,11.3-0.5,14.2-3.5,19.7c-1.9,3.5-3.9,9.7-4.4,13.7
		c-1.5,12.4-2,13.6-8.5,21c-3.5,4-6.8,8.7-7.3,10.6c-0.6,1.9-2.9,5.5-5.1,8.1c-4.5,5.3-6.4,10.7-4.9,14.5c0.9,2.2,1.4,2,4.6-1.8
		l3.6-4.4l-0.9,5.5l-0.9,5.5l6.1,0C199,442.3,203.5,441.1,206.1,439.5L206.1,439.5z M315.9,133.3c-1.5-2.4-0.3-2.6,5.1-0.5l5,1.9
		l-4.6,0.1C318.9,134.8,316.4,134.2,315.9,133.3L315.9,133.3z M96.9,258.4c-6.7-35-11.1-74.7-13.3-119.8
		c-2.3-47.5-2.4-48.1-5.1-52.2c-1.4-2.1-3.1-3.9-3.8-3.9c-4.1,0,1.3,82.7,8.2,125.3c4,24.5,12.9,61.2,14.9,61.2
		C98.5,268.9,98.1,264.2,96.9,258.4L96.9,258.4z M122.2,122.9c0-3-0.2-5.5-0.5-5.5c-0.3,0-4.2,1.3-8.8,2.9c-4.6,1.6-8.7,2.6-9.1,2.2
		c-0.4-0.4-1-11.6-1.4-24.8c-0.4-13.2-1.2-24-1.8-24s-2.8,0.6-4.8,1.4l-3.7,1.4v31.3v31.3l15-5.4l15-5.4L122.2,122.9L122.2,122.9z
		 M511.6,76.4c-0.6-0.6-2.9-1.5-5-2.1l-3.9-1v30.8v30.8l4.6,1.9l4.6,1.9l0.4-30.6C512.5,91.3,512.2,77,511.6,76.4L511.6,76.4z
		 M492.6,100c0-16.8-0.5-30.8-1.1-31.2c-0.6-0.4-3.2-1.1-5.9-1.7l-4.8-1l0.5,14.7c0.3,8.1,0.2,14.7-0.2,14.7
		c-0.4,0-3.5-7.1-6.8-15.7c-7.5-19.2-7.2-18.7-12.9-20l-4.6-1v30.6c0,16.8,0.5,30.9,1.1,31.2c0.6,0.3,2.8,1,5,1.6l3.9,1v-17.1
		c0-9.4,0.5-16.5,1.2-15.7c0.7,0.8,4.3,9.5,8.1,19.4c6.7,17.5,8.7,20.2,14.7,20.5C492.2,130.5,492.6,123.5,492.6,100z M130.5,126
		c4-1.4,4.6-2.5,6.1-10c1.5-7.7,2-8.5,5.9-9.3c6.5-1.3,6.5-1.3,7.5,4.6c1.4,8.5,2.2,9.2,8.3,7.5c2.9-0.8,5.3-1.8,5.3-2.3
		c0-0.4-2.5-10.1-5.5-21.4c-3-11.4-6.4-24.1-7.4-28.4c-1.9-7.5-2-7.7-6.3-6.8c-2.4,0.5-4.8,1.4-5.4,1.9c-1,1-15.4,60.5-15.4,63.9
		C123.6,128,124.8,128,130.5,126z M141.3,92.3c0.5-2.5,0.9-5.5,0.9-6.8c0-3.7,2.4,0,3.3,5.1c0.7,3.8,0.3,4.7-2.1,5.4
		C140.8,96.7,140.5,96.3,141.3,92.3z M532.6,97.7c0.1-10.5-0.9-16.8-2.6-16.8c-0.5,0-2.1,0.9-3.6,1.9c-2.5,1.8-2.5,2.6-0.1,17.8
		c1.3,8.8,2.8,16.9,3.2,18.1C530.7,122,532.5,109.6,532.6,97.7L532.6,97.7z M446.9,87.7V56.6l-4.5-0.9c-2.5-0.5-4.6-0.8-4.8-0.5
		c-0.2,0.2-0.7,13.9-1.2,30.5l-0.9,30.1l5.4,1.5c3,0.8,5.6,1.5,5.8,1.6C446.7,118.8,446.9,104.8,446.9,87.7L446.9,87.7z M176.2,115
		c3-0.8,3.2-1.6,3.4-14.9l0.1-14l4.6,14.2c2.6,7.8,5,14.6,5.4,15c0.4,0.4,2.1-3.7,3.7-9.1c1.6-5.5,3.9-13.2,5-17.2l2.1-7.3l0.1,14.7
		l0.1,14.7l5.4-0.9l5.4-0.9L211,78.7c-0.3-16.8-0.7-30.8-0.9-31s-2.5,0.1-5.1,0.8c-4.6,1.2-4.9,1.7-9.7,18.5l-5,17.2l-5.2-15.9
		c-5.1-15.7-5.3-15.9-9.4-15.4c-2.3,0.3-4.6,0.9-5.2,1.5c-0.5,0.5-1.2,14.6-1.4,31.2C168.6,118.4,168.3,117.2,176.2,115L176.2,115z
		 M426.8,84c0-16.8-0.5-30.8-1.1-31.2c-0.6-0.4-3-0.9-5.4-1.2l-4.3-0.5l-0.4,11.3c-0.4,11.2-0.4,11.3-4.3,11.3
		c-9.7,0-10.2-0.7-10.6-13.6l-0.4-11.9l-4.6-0.5l-4.6-0.5v30.5c0,32.7-0.1,32.3,7.2,32.3c2.4,0,2.7-1.4,3.1-13.5l0.4-13.5l5.7,0.5
		c3.1,0.3,6.2,0.8,6.8,1.2s1.1,6.8,1.1,14.3v13.7l4.6,0.6c2.6,0.3,5.1,0.7,5.7,0.8C426.4,114.4,426.8,100.7,426.8,84L426.8,84z
		 M244.8,104.9c9.4-3.9,13.4-18.2,7.7-27.7c-2.3-3.9-2.4-4.8-0.7-7.2c2.7-3.7,2.5-15.3-0.3-19.4c-3.5-5-8.6-6.4-20.2-5.3l-10.4,1
		v31.2v31.2l9.7-1C235.8,107.2,242.3,106,244.8,104.9z M231.5,95c-0.4-1.1-0.6-4.9-0.3-8.4c0.4-5.8,0.8-6.4,4.5-6.8
		c5.6-0.7,8.1,2,8.1,8.7c0,4.8-0.6,5.9-3.7,7.1C235,97.5,232.4,97.3,231.5,95z M230.9,62.9c0-5.6,0.5-6.5,3.5-7.3
		c4.8-1.2,7.9,0.3,8.9,4.4c1.2,4.7-2.9,9.3-8.3,9.3C231.1,69.3,230.9,69,230.9,62.9z M374.5,105.5c5.2-2.4,8-9.7,8-20.6v-9.4
		l-6.6-0.9c-10.4-1.5-10.5-1.4-10.5,4.2c0,4.1,0.5,5.1,2.9,5.1c4.2,0,4.2,11,0.1,12.4c-7.3,2.3-11.5-5.8-11.5-22.3
		c0-12.2,2.9-19.3,7.9-19.3c2.9,0,4.2,1,5.4,4.5c1.5,4.1,2,4.4,6.7,3.5c2.8-0.5,5.2-1.2,5.5-1.4c0.2-0.2-0.5-2.7-1.6-5.5
		c-6.3-15.3-24.8-16.5-31.1-1.9c-3.8,8.8-5,22.8-2.8,33.6c2.4,11.8,9.7,19.7,18.4,19.7C368.3,107.2,372.5,106.4,374.5,105.5
		L374.5,105.5z M287.5,103c6.4-4,9.6-12,10.3-25.8c1.2-22.2-5.8-35.6-18.6-35.6c-4.6,0-6.7,1-10.5,4.8c-6.3,6.4-8.3,14.6-7.6,31.6
		c0.4,11.1,1.2,14.9,3.7,19.1C270.1,105.8,279.2,108.1,287.5,103L287.5,103z M276.1,93.3c-7.3-7.5-6-37.7,1.7-40.7
		c9.1-3.6,13.4,30.9,5,40.3C280,96.1,278.9,96.2,276.1,93.3z M341,104.6c0-0.7-1.9-7-4.3-14l-4.3-12.9l4.4-5.1
		c4-4.7,4.4-5.8,3.8-12.9c-1.1-13.1-8.2-17.9-26.5-18l-8.9,0v31.3v31.3h5.7h5.7V91.2c0-17.5,2.4-17.5,8.6-0.1
		c4.1,11.5,5.1,13.1,8.4,13.6C340.4,105.8,341,105.8,341,104.6L341,104.6z M316.7,60.2v-7.8l5,0.6c6.2,0.7,8.2,3.2,7.7,9.3
		c-0.4,4.6-0.8,4.9-6.5,5.3l-6.1,0.4V60.2z M86.4,73.3c0.1-1.9-4.9-1.2-8.3,1.2l-3.3,2.3l3.3,3.5l3.3,3.5l2.5-4.8
		C85.2,76.6,86.3,73.9,86.4,73.3z"/>
	<g id="g3060" transform="matrix(0.95536881,0,0,0.97325585,-276.43252,0.08142099)">
		<path id="path3028" class="st6" d="M583.4,566.1C478.1,486.9,413,389.7,382.8,266.7c-12.1-49.5-19.5-110.7-19.5-162
			c0-28,2-31.1,26.6-40.9c79-31.4,196.2-42.4,310.3-29.2C757.9,41.2,831,62,842.5,75.1c4.7,5.3,5.8,8.3,2.6,7.2
			c-1-0.4-3.4,0.5-5.3,2c-3.4,2.6-3.4,2.7-1.3,15.3c1.2,7,2.7,19.9,3.2,28.8c0.6,8.9,1.6,16.1,2.2,16.1c2,0,3-10.6,3.3-35.9
			l0.3-24.7l0.5,20.2c1,38-4.6,94.4-13.9,140.1c-17.3,85.2-51,158.8-102,223c-32.1,40.5-113.4,113-126.6,113
			C603.4,580.2,594.9,574.8,583.4,566.1L583.4,566.1z M619.5,568c19.5-12.6,38.6-28.7,60.7-51c30.2-30.6,47.7-51,53.8-62.7
			c1.9-3.6,1.8-4.3-0.8-6.6c-2.8-2.6-3.5-2-23.5,17.7c-25,24.7-42.3,38.7-42.3,34.1c0-2.7-19.4-13.7-31-17.5
			c-20.7-6.9-43.1-6.3-61.4,1.7l-7.8,3.4l-2.5-8.5c-7-24-11-55.9-7.2-58.3c0.9-0.6,3.5-5.3,5.8-10.4c3-6.7,6.4-11.2,12-16
			c4.7-4,8.3-8.6,9.2-11.5c1.4-4.9,8-11.1,10.9-10.2c2.4,0.8-2.9,11.5-9.7,19.4c-3.3,3.8-6.8,9-7.9,11.7c-1.7,4.2-1.7,5.1,0.4,7.2
			c2.2,2.2,2.5,2.2,3.5-0.5c1-2.6,1.2-2.5,2,0.9c1.2,4.9,5.6,5.5,14,1.8c5.8-2.6,6.7-3.6,7.5-8.9c0.5-3.3,2-6.9,3.3-7.9
			c1.6-1.3,2.2-4,2-8.1c-0.4-6.4,1.3-14.3,3-14.3c1.8,0,5.8,8.1,6.9,13.9c0.6,3.1,2.4,7.3,4,9.4c2.8,3.5,3.7,3.7,18.4,3.7h15.4
			l4.3-5.6c3.3-4.3,4.3-7.3,4.5-13.4c0.3-10.6,5.8-19.6,16.7-27.4l8.5-6.1l2.4,3.2c1.3,1.8,3.9,7.2,5.6,12.1
			c2.5,6.9,2.8,9.7,1.7,12.8c-0.8,2.2-1.8,8.1-2.1,13.1c-0.3,5-1,11.5-1.6,14.5c-0.9,4.7-0.5,5.8,3.1,8.6c5.2,4.1,6.4,4,8.1-0.2
			c1-2.4,1.4-2.7,1.4-0.8c0.2,4.3,3.1,4.7,7.1,1c3.2-3,3.6-4.4,2.9-9.5c-0.5-3.3-1.5-10.4-2.2-15.7c-0.7-5.4-1.8-10.9-2.4-12.4
			c-0.6-1.5-0.3-8.9,0.8-16.5c1.8-13.2,1.7-14.1-1.3-20.1c-4.4-8.6-4.1-9.9,1.5-7c6.5,3.4,20.9,4.5,26.7,2.1
			c4.9-2,10.5-8.1,10.5-11.4c0-1.5-1.8-1.8-7.1-1.2c-5.9,0.7-7.9,0.2-11.8-2.7c-2.6-1.9-7.5-5.5-10.9-8c-5.9-4.3-6.1-4.8-5.3-10.7
			c0.5-3.5-0.2-10.9-1.6-17c-1.4-6-2.1-13-1.6-15.5c0.5-2.6,1.6-7.9,2.4-11.9c2-9.9-0.4-20.1-7.4-30.6c-3.1-4.7-6.5-11.3-7.6-14.6
			c-1-3.3-3.2-7.8-4.8-10.1c-2.8-4-2.8-4.4-0.4-11.8c4.8-14.5-0.1-26.3-13.9-32.9c-6.7-3.2-9.7-3.6-43.8-4.5
			c-32.9-1-49.9-2.6-54-5.1c-2.8-1.7-1.3-6.8,2.4-8.5c3.2-1.5,5.9-1.1,16.8,2.6c13.9,4.6,28.6,5.6,36.7,2.4c5.4-2.1,4.2-4-3.3-5.2
			c-3.3-0.5-6.4-1.6-6.9-2.4c-1.3-2.1,1.9-1.9,13.4,0.8c9.3,2.1,17.3,1.8,17.3-0.8c0-1.6-12.6-6.8-23.4-9.6
			c-12.2-3.1-33.9-3.1-43.8,0.1c-9.1,2.9-18.9,10.9-20.3,16.4c-1.3,5,2.9,9.8,10.8,12.4c3.2,1,23.8,2.7,47.5,3.7
			c44.5,2,48.6,2.8,53.8,10.2c3.4,4.9,2.9,12.3-1.1,17c-3.4,4-3.6,4-11.6,2.2c-4.5-1-16.9-4.7-27.7-8.1c-15.1-4.9-20.5-6.1-24-5.1
			c-2.4,0.7-9.5,5.6-15.7,10.9c-6.2,5.4-17.8,13.1-25.9,17.4c-20.6,10.9-27,19.3-29.5,39.5c-1.4,11.3-3.9,17.2-14.3,33.7
			c-7.1,11.3-11.1,22.7-11.1,31.6c0,4.6-2,13.6-5.2,23.2c-4.4,13.2-5.2,17.7-5.2,29c0,11.3-0.6,14.4-3.7,20.6
			c-2.1,4-4.1,10.6-4.6,14.7c-1.4,12.3-1.7,13.1-9.6,22.4c-4.2,4.9-7.5,10.1-7.5,11.6c0,1.5-0.6,2.7-1.4,2.7c-2.5,0-9,11-9,15.2
			c0,5.7,2.9,6.8,6.2,2.6l2.8-3.6l-0.9,4.9c-0.8,4.2-0.5,4.9,2.2,4.9c2.2,0,4.4,2.2,7.2,7.1c15.8,27.7,50.8,68.5,76.9,89.6
			c13.2,10.7,31.3,23,33.7,23C609.1,574.2,614.2,571.4,619.5,568L619.5,568z M517.5,429.8c0.8-2.2,1.4-7.2,1.3-11.3
			c-0.1-6.1,0.6-8.4,4.3-13.1c5.7-7.3,8.6-13,10.9-21.4c1.9-7.2,17.5-37.5,19.3-37.5c3.1,0,4.7,4.5,4.7,13.7
			c0,7.6,0.6,10.4,2.3,11.4c3.8,2.1-1.6,17.4-8.6,24.2c-9.1,8.8-13.6,12.7-18,15.4c-3,1.9-4.4,4.3-5.1,8.6c-0.5,3.3-1.5,6-2.2,6
			c-0.7,0-3.3,1.8-5.8,3.9l-4.6,3.9L517.5,429.8L517.5,429.8z M620.8,137c-1.9-1.2-1.7-1.4,0.7-1.4c1.6,0,4.3,0.7,6,1.4
			c2.7,1.2,2.7,1.3-0.7,1.4C624.8,138.4,622.1,137.8,620.8,137z M408.8,327.5c-2.8-8.9-8.1-28.2-11.8-43
			c-12.6-50.8-16.8-85-21.1-171.6c-0.7-14.7-1.6-20-3.8-23.6c-3.3-5.5-5.8-6-6-1.3c-1.9,61.5,8.2,139.6,25.5,196.7
			c7.5,24.8,19.7,58.9,21.1,58.9C413.4,343.6,411.6,336.4,408.8,327.5L408.8,327.5z M455.4,239.6c29.1-7.7,56.3-30.1,69-56.9
			c1.6-3.3,2.9-6.3,3-6.7c0.1-0.4,1.4-4.8,2.9-9.7c2.1-6.7,2.8-13.6,2.9-26.9c0.1-20.1-1-26.1-4.8-26.4c-1.4-0.1,1.3-0.7,6-1.4
			c16.3-2.4,22.1-8.2,22.1-22.1c0-5.1-0.9-8.5-2.9-10.9c-2.7-3.3-2.7-3.7-0.4-6.3c1.6-1.8,2.5-5.4,2.5-10.2c0-6.5-0.6-8-4.9-11.8
			c-5.2-4.6-11.8-5.5-24.7-3.4l-5.6,0.9v19.9c0,10.9-0.4,21-0.9,22.3c-0.5,1.3-2.5,2.4-4.5,2.4h-3.6V70.4c0-21.5,0-21.7-3.4-21.7
			c-8.7,0.1-9.4,0.9-14.6,19.1l-5,17.4l-5.3-16l-5.3-16l-5.3,1c-2.9,0.5-5.8,1.2-6.4,1.6c-0.6,0.4-1.1,10-1.1,21.3v20.7l-4,1
			c-2.2,0.5-4.4,0.5-5-0.2c-0.6-0.7-3.1-9.2-5.7-19s-4.9-18.1-5.3-18.4s-3.1-0.2-6,0.3l-5.3,1L430,79.1
			c-7.1,30.2-5.7,27.4-14.6,29.5c-4.3,1-10,2.7-12.7,3.8l-4.9,2V94.1c0-18-0.3-20.2-2.4-19.4c-1.3,0.5-4,1.3-6.1,1.8l-3.7,0.9
			l0.6,33.9c0.6,37.4,2.6,50.9,12.1,85.7c7.3,26.6,13.9,43.1,17.9,44.9C420.7,243.9,444.6,242.5,455.4,239.6L455.4,239.6z
			 M437.3,95.7c0.5-1.3,0.9-3.8,0.9-5.5c0-4.1,2.3-1.7,3.6,3.8c0.8,3.5,0.5,4.1-2.2,4.1C437.3,98.1,436.6,97.4,437.3,95.7
			L437.3,95.7z M532.5,90.8c0-6.2,0.5-7.4,3.2-8.2c5.2-1.4,8.7,1.5,8.7,7c0,6-2.3,8.5-7.8,8.5C532.7,98.1,532.5,97.8,532.5,90.8z
			 M478.1,95.6c-0.5-0.5-1-2.1-1-3.4c0-1.9,0.3-1.9,1.6,0.4C480.4,95.3,479.9,97.4,478.1,95.6z M498.3,90.6c0-2.1,0.3-2.9,0.8-1.9
			c0.4,1,0.4,2.7,0,3.7S498.3,92.6,498.3,90.6z M532.5,64.4c0-6.7,0-6.7,5.2-6.7c5.3,0,6.1,1.2,5.3,7.5c-0.4,2.9-4.4,6-7.8,6
			C533,71.1,532.5,69.9,532.5,64.4z M821.4,200c4.2-10.5,10.6-48.5,10.5-62.6c0-5.4-1.1-10.9-2.9-14.6c-2.4-5-2.9-9.4-2.9-25.6
			L826,77.6l-5.2-1.6l-5.2-1.6l-0.4,18.2c-0.4,17.2-0.6,18.2-3.4,17.7c-6.8-1-6.7-1-6.7-21V70l-4.7-0.9c-2.6-0.5-5.3-0.9-6-0.9
			s-1.3,6.6-1.4,14.6l-0.1,14.6l-6.8-16.5c-3.8-9.1-7.3-16.9-7.8-17.4c-0.5-0.5-3.2-1.4-5.8-2l-4.9-1V80c0,19.4,0,19.6-3.4,19.6
			c-6.3,0-7-2.4-7-22.6c0-18.4-0.1-19-3.4-19.9c-8.8-2.3-8.6-2.7-8.6,19.4v20.4l-3.4-0.9c-1.9-0.5-3.9-0.9-4.5-0.9
			c-0.6,0-1.1-9.4-1.1-20.8V53.5l-4.7-0.9c-2.6-0.5-5.3-0.9-6-0.9s-1.3,5.4-1.3,12c0,12.9,0.1,12.8-8.7,11.1l-4.6-0.9l-0.4-12.2
			l-0.4-12.2l-5.6-0.5l-5.6-0.5v32.1v32.1l5.3,0.6c2.9,0.3,5.6,0.3,6-0.1s0.7-6.7,0.7-13.9c0-14.3-0.2-14.1,8.8-12.3l4.7,0.9
			l0.1,11.4c0.1,12.7,2.2,41.2,3.4,45.9c5.8,23.2,24.4,44.6,46.2,53.2c11.5,4.6,18.3,5.7,33,5.5C819.3,203.8,819.9,203.7,821.4,200
			L821.4,200z M780.4,102.2c-1.6-5.2-1.9-8.5-0.8-7.9c2,1.2,4.5,9.7,2.9,9.7C781.6,104.1,780.7,103.2,780.4,102.2z M683.3,107.7
			c4.8-3.2,6.4-8,6.4-20c0-11.4-0.6-12-12.4-12c-5.6,0-5.6,0-5.6,6c0,5,0.5,6,3,6c2.3,0,3,1,3,4.3c0,6.3-3.5,8.7-8.2,5.6
			c-4.7-3.1-6-7.8-6-21.9c0-17.1,6.7-25.1,12.4-14.9c2.2,3.9,3.3,4.5,7.8,4.1c4.7-0.4,5.2-0.8,5-4.6c-0.7-9.7-12.4-17.9-22.3-15.4
			c-5.9,1.5-12,8.7-13.9,16.4c-3.7,14.5-0.9,34.7,5.9,43.3C663.8,111.5,675.4,112.9,683.3,107.7z M592.1,104.8
			c6.3-5.3,9.5-14.4,9.7-27.7c0.4-21.9-6.6-34.5-19.2-34.5c-13.3,0-20.9,12.4-20.9,33.7c0,13.9,3.4,24.6,9.3,29.2
			C576.6,109.9,586.4,109.6,592.1,104.8L592.1,104.8z M577.2,94.1c-1.3-1.6-2.2-7.4-2.5-16.8c-0.5-15.9,1.3-21.5,6.9-22.3
			c5.5-0.8,8.3,8,7.5,23.9c-0.6,13.4-2.4,17.7-7.2,17.7C580.5,96.6,578.4,95.5,577.2,94.1z M620.5,94.7c0.6-17.5,3-17.4,9.4,0.4
			l4.8,13.5h6.5c3.6,0,6.5-0.2,6.5-0.4c0-0.2-2.3-6.7-5-14.4l-4.9-14l4.2-4.2c3.5-3.5,4.2-5.5,4.2-11.8c0-15.5-5.2-19.9-24.3-20.9
			l-13.1-0.6v32.2c0,34.4-0.1,34.1,7.5,33.5C620,107.8,620.1,107.5,620.5,94.7L620.5,94.7z M620.8,62.1c0-7.5,0-7.5,4.9-7.5
			c6,0,8.5,2.3,8.5,7.5s-2.6,7.5-8.5,7.5C620.9,69.6,620.8,69.6,620.8,62.1z M376.8,84.1c0-1,1.7-4.3,3.8-7.4c3-4.5,3.3-5.6,1.4-5.6
			c-2.6,0-14.2,5.6-14.2,6.8c0,0.4,1.5,2.7,3.2,5.2C374.2,87.3,376.8,87.8,376.8,84.1z M464,49.5c62.7-10.1,124.8-13.3,190.6-9.7
			c26.9,1.5,72.4,5.9,90.6,8.8c7.9,1.3,10.4,1.1,8.7-0.7c-1.3-1.3-36.4-7.8-55.1-10.3c-35-4.6-62.7-5.8-112.9-5
			c-52.3,0.8-74.3,2.7-108.6,9.4c-25.4,4.9-46.8,11.1-38.5,11.1C440,53.2,451.4,51.5,464,49.5z"/>
	</g>
</g>
</svg>
