<?xml version="1.0" encoding="utf-8"?>
<!-- Generator: Adobe Illustrator 27.1.0, SVG Export Plug-In . SVG Version: 6.00 Build 0)  -->
<svg version="1.1" id="Capa_2_00000080911379910990866680000001686948858252135058_"
	 xmlns="http://www.w3.org/2000/svg" xmlns:xlink="http://www.w3.org/1999/xlink" x="0px" y="0px" viewBox="0 0 148.6 78.2"
	 style="enable-background:new 0 0 148.6 78.2;" xml:space="preserve">
<g>
	<path d="M44.6,36h5.1l2.2-3.9h5.3l0.1,3.9H62l-1-17.7h-7l-0.2,0.5L54,19c0.4,0.4,0.2,0.9-1.2,3L44.6,36z M56.9,23.2h0.2l0.1,5.4
		h-3.3L56.9,23.2z"/>
	<polygon points="115.7,24.6 103.9,24.6 102.4,28.8 110.5,28.8 101.2,32 100.7,33.5 114,29.1 	"/>
	<path d="M31.2,36h12.1l1.5-4.2h-7l4.6-13.5h-6.1l-0.2,0.5l0.3,0.3c0.3,0.3,0.3,0.7,0,1.5L31.2,36z"/>
	<path d="M86.3,20.6L81,36h7.8c3.3,0,5.2-0.7,6.8-2.4c1.9-2.1,3.7-7.4,3.7-10.3s-2-5-6.1-5h-7.1l-0.2,0.5l0.3,0.3
		C86.6,19.4,86.5,19.7,86.3,20.6z M90.5,22.5h1.9c1.3,0,2.1,0.4,2.1,1.5c-0.1,1.2-0.4,2.4-0.8,3.5c-0.3,1.3-1,2.5-1.8,3.5
		c-0.6,0.6-1.3,0.8-3,0.8h-1.6L90.5,22.5z"/>
	<path d="M63,36h4.4l3.9-11.4L73.6,36h4.4l6-17.7h-4.6l-3.2,9.6l-1.8-9.6h-6.3L68,18.7l0.3,0.3c0.3,0.3,0.3,0.7,0,1.5L63,36z"/>
	<path d="M114.6,39.8H107l-0.2,0.5l0.3,0.3c0.3,0.3,0.3,0.7,0,1.5l-5.3,15.4h4.9l2.1-6.1h1.7l1.9,6.1h4.9l-2.3-6.3
		c1-0.1,1.9-0.5,2.7-1.2c1-1,1.7-2.3,2.1-3.8c0.8-2.5,0.3-4-0.2-4.7C118.8,40.6,117.4,39.8,114.6,39.8z M115.1,46.2
		c-0.2,0.5-0.6,0.9-1.1,1.1c-0.5,0.1-1,0.2-1.5,0.2h-2.3l1.3-3.7h2.8c0.8,0,1.2,0.4,1.2,0.9C115.4,45.3,115.2,45.8,115.1,46.2z"/>
	<path d="M86,39.8l-6.5,12.7h-0.2L79,39.8h-5.4l-0.2,0.5l0.5,0.3c0.4,0.3,0.6,0.6,0.6,1.5l0.7,15.4h6L91,39.8L86,39.8z"/>
	<path d="M100.8,50.4l1.4-3.7h-6.2l1-2.8h6.7l1.5-4.1H92.4l-0.2,0.5l0.3,0.3c0.3,0.3,0.3,0.7,0,1.5l-5.3,15.4h11.9l1.4-4.1h-6.9l1-3
		L100.8,50.4z"/>
	<path d="M49.6,39.8H42l-0.2,0.5l0.3,0.3c0.3,0.3,0.3,0.7,0,1.5l-5.3,15.4h4.9l2.1-6.1h1.7l1.9,6.1h4.9l-2.3-6.3
		c1-0.1,1.9-0.5,2.7-1.2c1-1,1.7-2.3,2.1-3.8c0.8-2.5,0.3-4-0.2-4.7C53.7,40.6,52.3,39.8,49.6,39.8z M50,46.2
		c-0.2,0.5-0.6,0.9-1.1,1.1c-0.5,0.1-1,0.2-1.5,0.2h-2.3l1.3-3.7h2.8c0.8,0,1.2,0.4,1.2,0.9C50.3,45.3,50.2,45.8,50,46.2z"/>
	<polygon points="37.4,42.1 24,46.5 22.4,51 34.2,51 35.7,46.7 27.5,46.7 36.8,43.6 	"/>
	<path d="M66.4,39.6h-0.6c-3.3,0-5.2,0.9-6.8,2.6c-1.9,2.1-3.7,7.6-3.7,10.6s2,5.1,6.1,5.1H62c3.3,0,5.2-0.9,6.8-2.6
		c1.9-2.1,3.7-7.6,3.7-10.6S70.5,39.6,66.4,39.6z M66.7,49c-0.3,1.3-1,2.5-1.8,3.6c-0.8,0.8-1.9,1.1-3,1c-1.3,0-2-0.5-2-1.6
		c0.1-1.2,0.4-2.5,0.9-3.6c0.3-1.3,1-2.5,1.8-3.6c0.8-0.8,1.9-1.1,3-1c1.3,0,2,0.5,2,1.6C67.5,46.6,67.2,47.8,66.7,49z"/>
	<path d="M123.5,16.9C108.9,9.3,90.7,6.4,74.3,6.4S39.7,9.3,25.1,16.9C16.8,21.1,6.4,28.8,6.4,39.1s10.4,18,18.7,22.2
		C39.7,68.9,58,71.8,74.3,71.8s34.6-2.9,49.2-10.5c8.2-4.2,18.7-11.9,18.7-22.2S131.8,21.1,123.5,16.9z M122.8,59.9
		c-14.4,7.4-32.4,10.3-48.5,10.3s-34-2.8-48.5-10.3C18.2,56,8.1,48.7,8.1,39.1s10.1-16.8,17.8-20.8C40.3,10.9,58.2,8,74.3,8
		s34.1,2.8,48.5,10.3c7.6,4,17.8,11.2,17.8,20.8S130.4,56,122.8,59.9z"/>
	<path d="M126.5,11.2C112.5,4,94,0,74.3,0S36.1,4,22.1,11.2C13.9,15.5,0,24.8,0,39.1s13.9,23.7,22.1,27.9
		c14,7.2,32.5,11.2,52.2,11.2s38.2-4,52.2-11.2c8.3-4.3,22.1-13.6,22.1-27.9S134.7,15.5,126.5,11.2z M124.7,63.5
		c-13.4,6.9-31.3,10.7-50.4,10.7S37.4,70.5,24,63.5C11.1,56.9,4,48.2,4,39.1s7.1-17.8,20-24.4C37.4,7.8,55.2,4,74.3,4
		s37,3.8,50.3,10.7c12.9,6.7,20,15.3,20,24.4S137.5,56.9,124.7,63.5z"/>
</g>
</svg>
