<?xml version="1.0" encoding="utf-8"?>
<!-- Generator: Adobe Illustrator 27.1.0, SVG Export Plug-In . SVG Version: 6.00 Build 0)  -->
<svg version="1.1" id="maserati" xmlns="http://www.w3.org/2000/svg" xmlns:xlink="http://www.w3.org/1999/xlink" x="0px" y="0px"
	 viewBox="0 0 150 150" style="enable-background:new 0 0 150 150;" xml:space="preserve">
<g>
	<rect x="61.8" y="127.1" width="26.3" height="6.5"/>
	<rect x="65" y="136.1" width="19.9" height="13.5"/>
	<rect x="35.8" y="96.9" width="78.3" height="3.3"/>
	<rect x="31.6" y="103.1" width="86.7" height="3.3"/>
	<rect x="31.5" y="90.8" width="86.7" height="3.3"/>
	<path d="M73.2,109.1H52.1c0,0.2,0,0.4,2.4,0.9c2.5,0.5,4.8,1.7,6.7,3.3c4.3,3.9,4.3,11.1,4.3,11.1h18.8c0,0,0-7.1,4.3-11.1
		c1.9-1.7,4.2-2.8,6.7-3.3c2.4-0.5,2.4-0.9,2.4-0.9H73.2L73.2,109.1z"/>
	<path d="M36.1,115.9c5.8,1.3,9.4-1.3,9.4-6.8h-9.4V115.9z"/>
	<path d="M56.1,88.4h10.8c0.4-0.6,0.7-1.1,1-1.7c3.2-5.4,5.6-11.3,7.1-17.4c1.5,6.1,3.9,12,7.1,17.4l1,1.7h10.8
		c-5.7-8.2-10-17.2-12.8-26.7c-2.6-11.2-3.6-22.6-3-34.1c0,0,2.8,1.2,6.2,2.8c2.1,1,6.3,3.2,6.8,2.3c0.5-0.9-7.1-6.7-10.7-13.6
		C76.6,11.7,75.9,0.6,75,0.4c-1,0.2-1.7,11.3-5.5,18.7C66,26.1,58.4,32,58.8,32.7c0.4,0.7,4.7-1.3,6.9-2.3c3.3-1.7,6.1-2.8,6.1-2.8
		c0.7,11.5-0.3,23-3,34.2C66,71.3,61.7,80.3,56.1,88.4z"/>
	<path d="M45.6,88.4c-0.8-8-2.2-15.9-4.2-23.8C39,56.8,35.7,49.1,31.5,42c2-0.1,3.9,0.4,5.7,1.2c3.7,1.4,5.8,3.1,6.1,2.8
		s-5.6-7.5-11.7-11.7c-5.7-4-13.4-5.5-14-4.6s8.6,10,13.3,25.5c4.2,14.1,4.9,31.9,4.9,33.3L45.6,88.4L45.6,88.4z"/>
	<path d="M132.4,29.7c-0.6-0.9-8.2,0.7-14,4.6c-6.2,4.2-12.2,11.2-11.7,11.7s2.3-1.4,6.1-2.8c1.8-0.8,3.7-1.3,5.7-1.2
		c-4.2,7.1-7.5,14.7-9.9,22.7c-2,7.8-3.4,15.7-4.3,23.8h9.8c0-1.3,0.7-19.2,5-33.3C123.8,39.7,133,30.6,132.4,29.7z"/>
	<path d="M113.7,115.9v-6.8h-9.4C104.4,114.6,108,117.1,113.7,115.9z"/>
</g>
</svg>
