<?xml version="1.0" encoding="UTF-8"?>
<svg xmlns="http://www.w3.org/2000/svg" xmlns:xlink="http://www.w3.org/1999/xlink" viewBox="0 0 150 150">
  <defs>
    <style>.ac384118-4a68-413f-b605-d1962c704268{fill:url(#a95a1ac9-b19f-41c0-9e26-3ee53c7f4933);}.a1caeb6e-e3c1-4e08-885f-2dfb1c850ff4{fill:url(#bcc20968-db0f-43f8-b9cc-bc65b8f047e6);}.babe7b2d-94b2-4070-9c14-e6cc05746a04,.bf4e12aa-3d54-4693-ab24-ddc1a36f743c{opacity:0.4;}.babe7b2d-94b2-4070-9c14-e6cc05746a04,.bf4e12aa-3d54-4693-ab24-ddc1a36f743c,.e08ce797-36b9-4e68-a1b9-e1e7d3908fd4{isolation:isolate;}.babe7b2d-94b2-4070-9c14-e6cc05746a04{fill:url(#ffcf00bf-2fd7-4cdc-9d23-257014c58a87);}.f6715fea-03ce-4123-8f9a-d3dbe4fcb92c{fill:#fff;}.bf4e12aa-3d54-4693-ab24-ddc1a36f743c{fill:url(#fae73b6d-e07a-4473-865c-f4d4945dde61);}.b1c7fc52-f73f-4c2a-b0a6-4d4a01ad4ad2{fill:#565f64;}.e1d71e0d-88d5-4c66-bf89-650054e403ec{fill:url(#ebfdccd0-07eb-42d8-a5d3-caf13e3abb4d);}.abb1fa9b-9f0f-4403-9484-8a26406076c0{fill:#a4aaae;fill-opacity:0.6;}.a1ac93c0-bb4a-4d28-90ca-0fc97c90fa30{fill:#333e46;}.a613ab67-5e7a-4ffe-b614-7ae5895d1ab3{fill:url(#ae3caa88-e332-4aef-918a-a9932bd329e3);}.e02444ca-6580-4925-bdb3-255ffa575adf{fill-opacity:0.8;fill:url(#ec6586ec-cca7-42db-bddc-d969d6061b0d);}.e08ce797-36b9-4e68-a1b9-e1e7d3908fd4{opacity:0.8;fill:url(#f3dc1686-9fbb-4e25-aa7c-84049a65a855);}.af36f73c-4ac6-47e0-928f-fc382a41081a{fill:url(#a568cf6c-329c-47eb-ae42-a35a177f7232);}.fcdbb42f-6a57-48fc-9a0c-695acd1f872b{fill:url(#a1800fdb-af31-4a22-9a59-1555b6107a1a);}.a8a6693a-c9b6-489c-8a96-c54dbc2abe76{fill:url(#b833361a-5f2f-482b-bcbf-0ad96c08ab02);}.ef3c2ef5-da79-428f-9399-9361193521c7{fill:url(#bc8f6f2f-014b-4a17-9e3a-c57b3dde5472);}.f39be28c-cab0-43a5-a1ce-e9a01a70a751{fill:url(#e4288148-3fb1-4f78-80d4-7e3c5d0820ee);}.afa3a4a3-4f61-4044-9c25-697ff248a9ce{fill:url(#ef579186-5565-4104-a592-dd171363095e);}.a6b06f26-f9c3-4dae-a4cd-80f0d6ea955b{fill:url(#f0e58e54-2856-4588-863c-cda1c42c6f8b);}.b2a62381-3969-4c3d-b2a9-b6c974c5fb99{fill:#fbfbfb;}.ea08addb-152b-427e-b6b8-9ee8399d34fb{fill:#333f47;}</style>
    <linearGradient id="a95a1ac9-b19f-41c0-9e26-3ee53c7f4933" x1="-1199.35" y1="308.86" x2="-1086.85" y2="214.63" gradientTransform="matrix(1, 0, 0, -1, 1218.1, 336.75)" gradientUnits="userSpaceOnUse">
      <stop offset="0" stop-color="#fff"></stop>
      <stop offset="0.1" stop-color="#e7e8e6"></stop>
      <stop offset="0.1" stop-color="#cdd0d0"></stop>
      <stop offset="0.2" stop-color="#b5bbbd"></stop>
      <stop offset="0.2" stop-color="#a5acaf"></stop>
      <stop offset="0.3" stop-color="#9ba3a7"></stop>
      <stop offset="0.3" stop-color="#98a0a4"></stop>
      <stop offset="0.4" stop-color="#828a8f"></stop>
      <stop offset="0.5" stop-color="#667075"></stop>
      <stop offset="0.6" stop-color="#535c63"></stop>
      <stop offset="0.7" stop-color="#475158"></stop>
      <stop offset="0.8" stop-color="#434d54"></stop>
      <stop offset="1" stop-color="#475157"></stop>
    </linearGradient>
    <linearGradient id="bcc20968-db0f-43f8-b9cc-bc65b8f047e6" x1="-1195.9" y1="306.14" x2="-1090.43" y2="217.55" gradientTransform="matrix(1, 0, 0, -1, 1218.1, 336.75)" gradientUnits="userSpaceOnUse">
      <stop offset="0" stop-color="#0b1f2a"></stop>
      <stop offset="0.2" stop-color="#333f47"></stop>
      <stop offset="0.5" stop-color="#777f84"></stop>
      <stop offset="0.5" stop-color="#81898d"></stop>
      <stop offset="0.7" stop-color="#b3b8b8"></stop>
      <stop offset="0.8" stop-color="#d2d5d3"></stop>
      <stop offset="0.8" stop-color="#dee0dd"></stop>
      <stop offset="1" stop-color="#fbfbfb"></stop>
    </linearGradient>
    <linearGradient id="ffcf00bf-2fd7-4cdc-9d23-257014c58a87" x1="3120.55" y1="-726.29" x2="3171.88" y2="-867.39" gradientTransform="matrix(-1, 0, 0, 1, 3221.19, 871.75)" gradientUnits="userSpaceOnUse">
      <stop offset="0" stop-color="#e1e3e1"></stop>
      <stop offset="0.1" stop-color="#c1c5c4"></stop>
      <stop offset="0.3" stop-color="#9ba1a2"></stop>
      <stop offset="0.5" stop-color="#7d8487"></stop>
      <stop offset="0.7" stop-color="#687074" stop-opacity="0"></stop>
      <stop offset="0.8" stop-color="#5b6469" stop-opacity="0"></stop>
      <stop offset="1" stop-color="#576065" stop-opacity="0"></stop>
    </linearGradient>
    <linearGradient id="fae73b6d-e07a-4473-865c-f4d4945dde61" x1="-1175.44" y1="317.76" x2="-1110.76" y2="205.73" gradientTransform="matrix(1, 0, 0, -1, 1218.1, 336.75)" xlink:href="#ffcf00bf-2fd7-4cdc-9d23-257014c58a87"></linearGradient>
    <linearGradient id="ebfdccd0-07eb-42d8-a5d3-caf13e3abb4d" x1="-1113.83" y1="244.42" x2="-1117.81" y2="237.86" gradientTransform="matrix(1, 0, 0, -1, 1218.1, 336.75)" gradientUnits="userSpaceOnUse">
      <stop offset="0" stop-color="#27343c"></stop>
      <stop offset="1" stop-color="#00111e" stop-opacity="0"></stop>
    </linearGradient>
    <linearGradient id="ae3caa88-e332-4aef-918a-a9932bd329e3" x1="-1125.33" y1="268.51" x2="-1131.9" y2="279.06" gradientTransform="matrix(1, 0, 0, -1, 1218.1, 336.75)" gradientUnits="userSpaceOnUse">
      <stop offset="0.1" stop-color="#02131f"></stop>
      <stop offset="0.9" stop-color="#02131f" stop-opacity="0"></stop>
    </linearGradient>
    <linearGradient id="ec6586ec-cca7-42db-bddc-d969d6061b0d" x1="-1143.14" y1="251.58" x2="-1152.99" y2="248.77" gradientTransform="matrix(1, 0, 0, -1, 1218.1, 336.75)" gradientUnits="userSpaceOnUse">
      <stop offset="0.2" stop-color="#02131f"></stop>
      <stop offset="0.9" stop-color="#02131f" stop-opacity="0"></stop>
    </linearGradient>
    <linearGradient id="f3dc1686-9fbb-4e25-aa7c-84049a65a855" x1="-1169.37" y1="238.53" x2="-1170.78" y2="242.05" gradientTransform="matrix(1, 0, 0, -1, 1218.1, 336.75)" gradientUnits="userSpaceOnUse">
      <stop offset="0" stop-color="#02131f"></stop>
      <stop offset="0.1" stop-color="#02131f"></stop>
      <stop offset="1" stop-color="#02131f" stop-opacity="0"></stop>
    </linearGradient>
    <linearGradient id="a568cf6c-329c-47eb-ae42-a35a177f7232" x1="-1134.66" y1="296.4" x2="-1142.63" y2="295.46" gradientTransform="matrix(1, 0, 0, -1, 1218.1, 336.75)" gradientUnits="userSpaceOnUse">
      <stop offset="0.3" stop-color="#02131f"></stop>
      <stop offset="0.8" stop-color="#02131f" stop-opacity="0"></stop>
    </linearGradient>
    <linearGradient id="a1800fdb-af31-4a22-9a59-1555b6107a1a" x1="-1134.41" y1="296.53" x2="-1139.8" y2="295.83" gradientTransform="matrix(1, 0, 0, -1, 1218.1, 336.75)" gradientUnits="userSpaceOnUse">
      <stop offset="0.4" stop-color="#27343c"></stop>
      <stop offset="1" stop-color="#3b474e" stop-opacity="0"></stop>
    </linearGradient>
    <linearGradient id="b833361a-5f2f-482b-bcbf-0ad96c08ab02" x1="-1218.94" y1="259.8" x2="-1153.55" y2="222.06" gradientTransform="matrix(1, 0, 0, -1, 1218.1, 336.75)" gradientUnits="userSpaceOnUse">
      <stop offset="0" stop-color="#24303a" stop-opacity="0"></stop>
      <stop offset="0" stop-color="#25323b" stop-opacity="0"></stop>
      <stop offset="0.1" stop-color="#27343c"></stop>
    </linearGradient>
    <linearGradient id="bc8f6f2f-014b-4a17-9e3a-c57b3dde5472" x1="-1143.22" y1="249.09" x2="-1143.22" y2="260.34" gradientTransform="matrix(1, 0, 0, -1, 1218.1, 336.75)" gradientUnits="userSpaceOnUse">
      <stop offset="0.3" stop-color="#a5abaf"></stop>
      <stop offset="1" stop-color="#a5abaf" stop-opacity="0"></stop>
    </linearGradient>
    <linearGradient id="e4288148-3fb1-4f78-80d4-7e3c5d0820ee" x1="-1106.42" y1="331.36" x2="-1106.42" y2="188.39" gradientTransform="matrix(1, 0, 0, -1, 1218.1, 336.75)" gradientUnits="userSpaceOnUse">
      <stop offset="0" stop-color="#dee0dd"></stop>
      <stop offset="0" stop-color="#c5c9c7"></stop>
      <stop offset="0" stop-color="#9ea4a5"></stop>
      <stop offset="0" stop-color="#82898c"></stop>
      <stop offset="0" stop-color="#71797d"></stop>
      <stop offset="0" stop-color="#6b7378"></stop>
      <stop offset="0.2" stop-color="#333f47"></stop>
      <stop offset="0.5" stop-color="#27343c"></stop>
      <stop offset="0.8" stop-color="#333f47"></stop>
      <stop offset="1" stop-color="#434d54"></stop>
    </linearGradient>
    <linearGradient id="ef579186-5565-4104-a592-dd171363095e" x1="-1143.1" y1="335.11" x2="-1142.4" y2="335.11" xlink:href="#e4288148-3fb1-4f78-80d4-7e3c5d0820ee"></linearGradient>
    <linearGradient id="f0e58e54-2856-4588-863c-cda1c42c6f8b" x1="-1083.83" y1="317.78" x2="-1115.47" y2="271.37" gradientTransform="matrix(1, 0, 0, -1, 1218.1, 336.75)" gradientUnits="userSpaceOnUse">
      <stop offset="0.7" stop-color="#27343c"></stop>
      <stop offset="0.7" stop-color="#2b373f"></stop>
      <stop offset="0.7" stop-color="#36424a"></stop>
      <stop offset="0.7" stop-color="#49545b"></stop>
      <stop offset="0.8" stop-color="#646d73" stop-opacity="0"></stop>
      <stop offset="0.8" stop-color="#868d92" stop-opacity="0"></stop>
      <stop offset="0.8" stop-color="#b0b5b8" stop-opacity="0"></stop>
      <stop offset="0.8" stop-color="#e1e3e4" stop-opacity="0"></stop>
      <stop offset="0.8" stop-color="#fff" stop-opacity="0"></stop>
    </linearGradient>
  </defs>
  <g id="b024d8f9-c2b2-4078-b67c-baef67122fa8" data-name="Capa 2">
    <g id="ae49a845-ebf6-4f89-aa1d-e1ccbe93e132" data-name="Capa 2">
      <path id="e79a100e-9162-4e93-ad00-6e2b49642399" data-name="outer" class="ac384118-4a68-413f-b605-d1962c704268" d="M148.36,75A73.36,73.36,0,1,1,75,1.64,73.32,73.32,0,0,1,148.36,75ZM75,6.09A68.91,68.91,0,1,0,143.91,75,68.73,68.73,0,0,0,75,6.09Z"></path>
      <path class="a1caeb6e-e3c1-4e08-885f-2dfb1c850ff4" d="M75,6.09A68.91,68.91,0,1,0,143.91,75,68.73,68.73,0,0,0,75,6.09Zm0,133.36A64.45,64.45,0,1,1,139.45,75,64.4,64.4,0,0,1,75,139.45Z"></path>
      <path class="babe7b2d-94b2-4070-9c14-e6cc05746a04" d="M75,148.36A73.36,73.36,0,1,0,1.64,75,73.32,73.32,0,0,0,75,148.36ZM75,0A75,75,0,1,1,0,75,75.22,75.22,0,0,1,75,0Z"></path>
      <path class="f6715fea-03ce-4123-8f9a-d3dbe4fcb92c" d="M5.16,75.23C5.16,36.8,36.33,5.16,75,5.16h0a69.91,69.91,0,0,1,69.84,70.07h0A69.67,69.67,0,0,1,75,144.84h0A69.67,69.67,0,0,1,5.16,75.23ZM27,27A68.23,68.23,0,0,0,6.8,75.23h0a68,68,0,0,0,19.92,48.05h0A69,69,0,0,0,75,143.2h0a67.09,67.09,0,0,0,48.05-19.92h0a67.09,67.09,0,0,0,19.92-48h0A69,69,0,0,0,123.05,27h0A67.29,67.29,0,0,0,75,6.8h0A67.29,67.29,0,0,0,27,27Z"></path>
      <path class="bf4e12aa-3d54-4693-ab24-ddc1a36f743c" d="M75,139.69A64.63,64.63,0,0,1,29.3,29.3a64.63,64.63,0,1,1,91.4,91.4,64.16,64.16,0,0,1-45.7,19Zm0-1.88A62.58,62.58,0,1,0,30.7,30.94,60.93,60.93,0,0,0,12.19,75,62.8,62.8,0,0,0,75,137.81Z"></path>
      <path class="f6715fea-03ce-4123-8f9a-d3dbe4fcb92c" d="M132,105.47c-1.17-.94-46.4-36.8-46.4-36.8L75,8.44a4,4,0,0,0-2.11,1.87l-7.5,58.6L18.75,104.77s-.94,1.17-1.41,1.87a4.66,4.66,0,0,0-.23,1.88h0L74.77,84.84l57.65,23.68h0A3.34,3.34,0,0,0,132,105.47Z"></path>
      <path class="b1c7fc52-f73f-4c2a-b0a6-4d4a01ad4ad2" d="M75.47,76.87,75,87.66,128,109a4.24,4.24,0,0,0,4.69-.46L76.17,76.64A.45.45,0,0,0,75.47,76.87Z"></path>
      <path class="e1d71e0d-88d5-4c66-bf89-650054e403ec" d="M75.47,76.87A56.16,56.16,0,0,0,82,86a54.05,54.05,0,0,0,11.49,9.14L128,109a4.24,4.24,0,0,0,4.69-.46L76.17,76.64A.45.45,0,0,0,75.47,76.87Z"></path>
      <path class="abb1fa9b-9f0f-4403-9484-8a26406076c0" d="M132.42,106.41c0-.24-.23-.47-.47-.94L83.67,70.08,77.11,74.3s.47.23.7,0a5.83,5.83,0,0,1,3.52,0c1.17.47,51.09,32.34,51.09,32.34Z"></path>
      <path class="a1ac93c0-bb4a-4d28-90ca-0fc97c90fa30" d="M130.78,104.3l-45-35.63h0l-2.11,1.41L132,105.7A6,6,0,0,0,130.78,104.3Z"></path>
      <path class="b1c7fc52-f73f-4c2a-b0a6-4d4a01ad4ad2" d="M76.17,73.36l-.23.23s0,.47.47.24c.23-.24,7-3.75,9.37-5.16l-8.2-56.25a4.09,4.09,0,0,0-2.81-3.75l.93,65.16Z"></path>
      <path class="abb1fa9b-9f0f-4403-9484-8a26406076c0" d="M72.19,12.42v3.05L67,67.27A2.14,2.14,0,0,0,68,69.14l3,2.34L73.13,14.3l.23-4.46C72.66,10.31,72.42,11.25,72.19,12.42Z"></path>
      <path class="abb1fa9b-9f0f-4403-9484-8a26406076c0" d="M69.38,72.42l-2.82-2.34L19,104.53s-1.4.94-1.64,1.88h0l1.64-.94h0L68.91,74.06C69.84,73.59,70.08,73.13,69.38,72.42Z"></path>
      <path class="b1c7fc52-f73f-4c2a-b0a6-4d4a01ad4ad2" d="M74.3,76.87c0-.23-.24-.46-.47-.23L17.11,108.75a4.72,4.72,0,0,0,4.69.47l53-21.33Z"></path>
      <path class="a613ab67-5e7a-4ffe-b614-7ae5895d1ab3" d="M75.94,73.59l.23-.23-.23.23h0a.23.23,0,0,0,.23.24h.24c.23-.24,7-3.75,9.37-5.16l-.94-6.8h0L77.58,12.42a2.86,2.86,0,0,0-.71-2.11s3.52,47.35,3.52,52.5A15.29,15.29,0,0,1,75.94,73.59Z"></path>
      <path class="e02444ca-6580-4925-bdb3-255ffa575adf" d="M74.3,76.87c0-.23-.24-.46-.47-.23L17.11,108.75a4.72,4.72,0,0,0,4.69.47l53-21.33Z"></path>
      <path class="e08ce797-36b9-4e68-a1b9-e1e7d3908fd4" d="M21.8,109l53-21.32L74.3,77.34a13.45,13.45,0,0,1-7,8.21h0C64,87.42,32.58,102.89,21.33,108.28a15.14,15.14,0,0,1-2.11.94A2.57,2.57,0,0,0,21.8,109Z"></path>
      <path class="af36f73c-4ac6-47e0-928f-fc382a41081a" d="M76.17,73.36l-.23.23s0,.47.47.24c.23-.24,7-3.75,9.37-5.16l-8.2-56.25a4.09,4.09,0,0,0-2.81-3.75l.93,65.16Z"></path>
      <path class="fcdbb42f-6a57-48fc-9a0c-695acd1f872b" d="M76.17,73.36l-.23.23s0,.47.47.24c.23-.24,7-3.75,9.37-5.16l-8.2-56.25a4.09,4.09,0,0,0-2.81-3.75l.93,65.16Z"></path>
      <path class="a8a6693a-c9b6-489c-8a96-c54dbc2abe76" d="M12,104.06c-1.64-3.75-11-22-.7-57.18h-4c-2.11,7-3.75,11.24-4.69,17.57,0,0-.47,2.35-.7,4.93A51.92,51.92,0,0,0,1.64,75c0,14.06,3.52,22.27,3.52,22.27A68.5,68.5,0,0,0,24.37,127.5c7.74,6.8,19.69,11.95,29.54,13.83C52.27,141.09,24.14,129.14,12,104.06Z"></path>
      <path class="ef3c2ef5-da79-428f-9399-9361193521c7" d="M75.94,76.41H73.83c.23,0,.47,0,.47.23l.47,10.78H75l.47-10.78c0-.23.23-.47.47-.23Z"></path>
      <path class="f39be28c-cab0-43a5-a1ce-e9a01a70a751" d="M98.44,5.39c24.61,9.38,47.81,35.16,47.81,67.73A71.12,71.12,0,0,1,75,144.61v3.75c39.84,0,73.36-32.81,73.36-73.36A73.4,73.4,0,0,0,98.44,5.39Z"></path>
      <path class="afa3a4a3-4f61-4044-9c25-697ff248a9ce" d="M75.7,1.64h0Z"></path>
      <path class="a6b06f26-f9c3-4dae-a4cd-80f0d6ea955b" d="M137.81,47.34C121.41,9.61,84.38,7.5,82.27,7.27H82c28.36,5.15,46.41,23.67,52.74,43.12v.24a73.75,73.75,0,0,1,4.45,24.14,64.11,64.11,0,0,1-5.16,25.78c-.23,1.17-.47,2.57-.7,2.57h3.75C148.36,82,143.44,60.7,137.81,47.34Z"></path>
      <path class="b2a62381-3969-4c3d-b2a9-b6c974c5fb99" d="M5.16,75.23C5.16,36.8,36.33,5.16,75,5.16h0a69.91,69.91,0,0,1,69.84,70.07h0A69.67,69.67,0,0,1,75,144.84h0A69.67,69.67,0,0,1,5.16,75.23ZM27,27A68.23,68.23,0,0,0,6.8,75.23h0a68,68,0,0,0,19.92,48.05h0A69,69,0,0,0,75,143.2h0a67.09,67.09,0,0,0,48.05-19.92h0a67.09,67.09,0,0,0,19.92-48h0A69,69,0,0,0,123.05,27h0A67.29,67.29,0,0,0,75,6.8h0A67.29,67.29,0,0,0,27,27Z"></path>
      <path class="ea08addb-152b-427e-b6b8-9ee8399d34fb" d="M18.52,105h0L66.33,70.55a49.17,49.17,0,0,0,7.26,3.28c.47.23.47-.24.47-.24L68.2,68.67a2.13,2.13,0,0,1-.93-1.87l5.62-56.49c-.23.24-.23.71-.47.94a2.14,2.14,0,0,0-.23,1.17L64,68.91,19,104.3C18.75,104.53,18.52,104.77,18.52,105Z"></path>
    </g>
  </g>
</svg>
