<?xml version="1.0" encoding="utf-8"?>
<!-- Generator: Adobe Illustrator 27.1.0, SVG Export Plug-In . SVG Version: 6.00 Build 0)  -->
<svg version="1.1" id="Capa_1" xmlns="http://www.w3.org/2000/svg" xmlns:xlink="http://www.w3.org/1999/xlink" x="0px" y="0px"
	 viewBox="0 0 150 150" style="enable-background:new 0 0 150 150;" xml:space="preserve">
<style type="text/css">
	.st0{fill:#19191B;}
</style>
<path class="st0" d="M54.6,21.5c22.7-0.8,45.4,0,68,1.4c2.4,0.2,4.8,0.2,7.1,0.7c1.3,0.3,2.6,0.8,3.4,1.9c0.7,1.3,0.7,2.7,0.9,4.1
	c0.5,6.8,0.7,13.6,1.2,20.4c-1,0.1-2,0-2.9-0.1c-17.5-0.9-34.9-1.7-52.4-1.7c-9.1,0-18.1-0.1-27.2,0.4c-2.2,0.3-4.7,1.1-5.9,3
	c6.8,1.2,13.7,2.5,20.5,3.8c22.7,4.2,45.4,8.4,68.1,12.6c0,4.3,0,8.6,0,12.9c-12.8-2.1-25.5-4.4-38.2-6.6
	C69.7,69.8,42.2,65,14.8,60.3c0.1-4.8,0.3-9.5,0.4-14.3c0.2-3.8,0.1-7.6,0.9-11.3c0.6-2.6,1.6-5.3,3.6-7.1c3.4-3.4,8.4-4.4,13-4.8
	C40,22,47.3,21.8,54.6,21.5L54.6,21.5z M14.7,66.6C54,73.9,93.2,81.2,132.5,88.5c0.9,0.2,1.8,0.2,2.6,0.5l0.1,0.2
	c-0.2,6.4-0.3,12.9-0.6,19.3c-0.2,4-0.6,8.1-2.6,11.6c-2.2,3.6-6.3,5.6-10.3,6.4c-6,1.1-12,1.2-18.1,1.5c-26,1.2-52,0.5-77.9-1.3
	c-2.1-0.1-4.2-0.2-6.2-0.8c-1-0.3-2.1-0.9-2.7-1.8c-0.6-1.3-0.7-2.7-0.8-4.1c-0.6-7.5-0.9-15.1-1.2-22.6c13.4,0.9,26.8,1.3,40.2,1.6
	c12.9,0.2,25.9,0.2,38.8,0.3c2.8,0.1,5.8-0.4,7.9-2.4c0.3-0.4,0.8-0.7,0.8-1.2c-5.8-0.9-11.6-2-17.5-2.9c-23.4-4-46.9-8-70.3-12
	C14.7,76.3,14.7,71.4,14.7,66.6L14.7,66.6z"/>
</svg>
