<?xml version="1.0" encoding="utf-8"?>
<!-- Generator: Adobe Illustrator 27.1.0, SVG Export Plug-In . SVG Version: 6.00 Build 0)  -->
<svg version="1.1" id="Capa_1" xmlns="http://www.w3.org/2000/svg" xmlns:xlink="http://www.w3.org/1999/xlink" x="0px" y="0px"
	 viewBox="0 0 150 150" style="enable-background:new 0 0 150 150;" xml:space="preserve">
<style type="text/css">
	.st0{fill:#1D1D1B;}
</style>
<g>
	<g id="Volvo_Iron_Mark_1_">
		<g>
			<path class="st0" d="M67.7,80.7h18.1v-6h-2c0,2.3-1.7,4-4.3,4h-2.7v-9h3v-2h-12v2h3v9h-3L67.7,80.7L67.7,80.7z"/>
			<polygon class="st0" points="94.5,80.7 101.5,80.7 107.6,69.6 110.5,69.6 110.5,67.6 101.5,67.6 101.5,69.6 104.2,69.6 
				99.7,77.7 95.4,69.6 98.6,69.6 98.6,67.6 85.4,67.6 85.4,69.6 88.4,69.6 			"/>
			<polygon class="st0" points="31.7,67.6 18.7,67.6 18.7,69.6 21.6,69.6 27.7,80.7 34.8,80.7 40.7,69.6 43.7,69.6 43.7,67.6 
				34.7,67.6 34.7,69.6 37.3,69.6 33,77.7 28.6,69.6 31.7,69.6 			"/>
			<path class="st0" d="M45.5,74.2c0,3.8,3.1,6.9,9.3,6.9s9.2-3,9.2-6.9c0-3.8-3.2-6.8-9.3-6.8C48.7,67.3,45.5,70.3,45.5,74.2z
				 M57.9,74.2c-0.1,2.4-1,4.8-3.3,4.8c-2.2-0.1-3.2-2.5-3.2-4.9c0.1-2.5,1.3-4.7,3.3-4.7C56.9,69.4,58,71.7,57.9,74.2z"/>
			<path class="st0" d="M112.3,74.2c0,3.8,3.1,6.9,9.3,6.9c6.2,0,9.2-3,9.2-6.9c0-3.8-3.2-6.8-9.3-6.8
				C115.5,67.3,112.3,70.3,112.3,74.2z M121.6,69.4c2.1,0.1,3.2,2.3,3.1,4.8c-0.1,2.4-1,4.8-3.3,4.8c-2.2-0.1-3.2-2.5-3.2-4.9
				C118.3,71.5,119.5,69.3,121.6,69.4z"/>
		</g>
		<path class="st0" d="M136.4,32.7l-7.6,7.6c6.5,10,10.3,21.9,10.3,34.8c0,35.4-28.7,64-64,64s-64-28.7-64-64s28.7-64,64-64
			c12.9,0,24.8,3.8,34.8,10.3l7.6-7.6C105.4,5.4,90.7,0.5,75,0.5C33.9,0.5,0.5,33.9,0.5,75s33.4,74.5,74.5,74.5s74.5-33.4,74.5-74.5
			C149.5,59.3,144.6,44.7,136.4,32.7z"/>
		<path class="st0" d="M112.5,3.4v2.1c4.5,2.4,8.8,5.4,12.7,8.6l-10.6,10.6c4,3.2,7.6,6.7,10.8,10.7L136,24.8
			c3.3,3.9,6.1,8.2,8.6,12.6h2v-34C146.6,3.4,112.5,3.4,112.5,3.4z"/>
	</g>
</g>
</svg>
