<?xml version="1.0" encoding="utf-8"?>
<!-- Generator: Adobe Illustrator 27.1.0, SVG Export Plug-In . SVG Version: 6.00 Build 0)  -->
<svg version="1.1" id="Capa_1" xmlns="http://www.w3.org/2000/svg" xmlns:xlink="http://www.w3.org/1999/xlink" x="0px" y="0px"
	 viewBox="0 0 150 150" style="enable-background:new 0 0 150 150;" xml:space="preserve">
<style type="text/css">
	.st0{fill:#0166B1;}
	.st1{fill:#FFFFFF;}
</style>
<g id="ace8ac93-a8d6-4689-a6fe-e220707a267c">
	<g id="f46a4874-77ea-479e-8e80-e9d2bb12a650">
		<g id="b65f67d2-eeab-43a7-b686-5033714be10c">
			<g id="b3e447c8-cb95-4cb0-a296-0c38df1e418e">
				<g id="b91218cf-7033-4313-927d-62b180624d11">
					<g id="ec88bca2-b482-44c4-a405-826f2444fc4b">
						<g id="fdce2cf7-c315-4945-a9fe-7c6c64a81de6">
							<g id="acacbbf0-bf34-4500-ac1e-26ecd53424e9">
								<g id="a67cfcca-149e-4a77-9d6e-0af82539e6ab">
									<g id="f66dde36-75f4-43cf-8915-ee481cfd8e6a">
										<path id="a759dc44-2029-4a49-bc05-e9b1cc3ee40d" class="st0" d="M119.4,75c0,24.5-19.9,44.4-44.4,44.4c0,0,0,0,0,0V75
											H119.4z M75,30.6V75H30.6C30.5,50.5,50.4,30.6,75,30.6C75,30.6,75,30.6,75,30.6z"/>
									</g>
									<path id="b02f328f-acf6-480f-9ab8-7395c31c0017" class="st1" d="M75,30.6c24.5,0,44.4,19.9,44.4,44.4c0,0,0,0,0,0H75V30.6z
										 M30.6,75H75v44.4C50.5,119.5,30.6,99.6,30.6,75C30.6,75,30.6,75,30.6,75z"/>
								</g>
							</g>
							<g id="eb83ed94-0a4a-4bb6-b995-8b8b750928fa">
								<path id="b57228b4-aa9e-4048-869f-0fae3441b85e" class="st1" d="M75,30.6V33l0,0c23.2,0,42,18.8,42,42h2.4
									C119.4,50.5,99.5,30.6,75,30.6L75,30.6 M75,117c-23.2,0-42-18.8-42-42h-2.4c0,24.5,19.9,44.4,44.4,44.4l0,0 M75,0
									C33.6,0,0,33.6,0,75s33.6,75,75,75s75-33.6,75-75S116.4,0,75,0z M145.1,75c0,38.7-31.4,70.1-70.1,70.1S4.9,113.7,4.9,75
									C4.9,36.3,36.3,4.9,75,4.9c0,0,0,0,0,0C113.7,4.9,145.1,36.3,145.1,75z"/>
							</g>
							<g id="bc7c46b5-b90a-4d9c-86c5-094405c5cfc8">
								<g id="fd20eebe-ca7e-4713-b036-01c1f0369374">
									<path id="bf92547f-b7fe-4190-94ed-1608cf3c43ad" class="st1" d="M43,38.8c2.4-2.5,3.8-5.4,1.4-8.2
										c-1.4-1.5-3.5-1.9-5.4-1.1l-0.2,0.1v-0.2c0.5-1.7-0.1-3.5-1.5-4.6c-0.9-0.7-2.1-1.1-3.3-0.9c-2.2,0.2-4,1.8-8.7,7
										c-1.4,1.6-3.5,4.1-4.7,5.7l13,12.2C37.8,44.1,39.6,42.4,43,38.8z M26.1,35.8c2.1-2.5,4.3-4.9,6.6-7.2
										c0.4-0.4,0.8-0.7,1.3-0.8c0.9-0.2,1.7,0.3,2,1.1c0,0,0,0.1,0,0.1c0.1,0.9-0.3,1.8-1,2.4c-1.4,1.5-6.4,6.8-6.4,6.8
										L26.1,35.8z M31.2,40.6c0,0,4.9-5.2,6.5-6.8c0.4-0.5,0.9-0.9,1.5-1.3c0.5-0.3,1.2-0.3,1.7,0c0.5,0.3,0.8,1,0.7,1.6
										c-0.2,0.8-0.7,1.5-1.3,2c-0.7,0.7-6.5,6.9-6.5,6.9L31.2,40.6z M76.5,24.3l4.2-9.2l0.3-0.8l-0.1,0.9l0.4,12.3
										c1.5,0.1,3,0.3,4.4,0.6L85,9.7c-2.1-0.2-4.1-0.4-6.2-0.5l-4.1,10.1l-0.2,0.7l-0.2-0.7L70.4,9.3c-2.1,0.1-4.1,0.2-6.2,0.5
										L63.5,28c1.5-0.2,3-0.4,4.4-0.6l0.4-12.3l-0.1-0.9l0.3,0.8l4.1,9.2L76.5,24.3z M110.9,43.3c1,1.1,2.5,2.8,3.3,3.9l15.2-9.6
										c-0.8-1-2-2.5-2.9-3.5l-9.6,6.3l-0.7,0.6l0.5-0.7l4.3-8.4l-3-3l-8.5,4.2l-0.7,0.5l0.6-0.7l6.4-9.5
										c-1.1-0.9-2.2-1.8-3.6-2.9l-9.6,15c1.2,0.9,2.8,2.3,3.8,3.2l9.1-4.7l0.6-0.4l-0.4,0.6L110.9,43.3L110.9,43.3z"/>
								</g>
							</g>
						</g>
					</g>
				</g>
			</g>
		</g>
	</g>
</g>
</svg>
