<?xml version="1.0" encoding="utf-8"?>
<!-- Generator: Adobe Illustrator 27.1.0, SVG Export Plug-In . SVG Version: 6.00 Build 0)  -->
<svg version="1.1" id="Capa_1" xmlns="http://www.w3.org/2000/svg" xmlns:xlink="http://www.w3.org/1999/xlink" x="0px" y="0px"
	 viewBox="0 0 82 32" style="enable-background:new 0 0 82 32;" xml:space="preserve">
<style type="text/css">
	.st0{fill-rule:evenodd;clip-rule:evenodd;fill:#FFFFFF;}
</style>
<path class="st0" d="M76.3,8.1L81.8,0H0l5.5,8.1c0.6,3.4,2.2,12.3,2.4,13.1v0.1c0.5,2.4,0.8,3.9,5.4,5c6.2,1.5,20.4,4.5,27.6,5.7
	c7.1-1.2,21.4-4.1,27.6-5.7c4.6-1.1,4.9-2.6,5.4-5v-0.1C74.1,20.3,75.7,11.5,76.3,8.1z M9.5,7.2h7.2l-1.4-2.5h24.3v2.4h0.8V3.9H7.3
	L9.5,7.2z M10.2,10.4h30.3V8H9.8L10.2,10.4z M17.9,14.5h-7l-0.5-3.3h30.2v3.3h-0.8V12h-22L17.9,14.5z M40.5,18.6H29.1v-1.8h11.3
	L40.5,18.6L40.5,18.6z M41.4,3.9h11.4v4.9H41.4V3.9z M12.5,22.9c0.2,0.3,0.5,0.6,1.7,1c0.5,0.1,1,0.3,1.8,0.4l0.3,0.1h12.1v-1.7h-16
	C12.4,22.7,12.4,22.8,12.5,22.9L12.5,22.9z M28.3,20.2H11.8L11,15.3h17.3V20.2z M29.1,27.1c4.2,0.9,8.4,1.7,11.3,2.1V21H29.1V27.1z
	 M71,14.5H53.6V9.6h18.2L71,14.5z M53.6,5.5v1.7h18.7l1.2-1.7H53.6z M77.5,1.5H4.3L8.7,8c0.4,2.3,0.7,4.3,1,6.1l0,0l0,0
	c0.5,3.3,0.9,5.5,1.1,6.4c0,0.1,0,0.2,0.1,0.4l0,0l0,0l0,0c0.4,2.4,0.6,3.4,3.1,4.1c5.2,1.3,20.1,4.5,27,5.5
	c6.9-1.1,21.9-4.3,27-5.5c2.5-0.7,2.7-1.7,3.1-4.1v-0.2v-0.1c0.2-1,0.5-3.3,1.1-6.7c0.3-1.7,0.6-3.6,0.9-5.9L77.5,1.5z M42.2,18.6
	h-0.8v-3.3h29.5l-0.5,3.3h-6.8c0.1-0.6,0.3-2.2,0.3-2.5H42.2V18.6z M41.4,21.8h28.4l0.5-2.4H41.4V21.8z M41.4,11.2h11.4V13H41.4
	V11.2z M41.4,22.6h28.1c0,0.1-0.1,0.2-0.2,0.3c-0.2,0.3-0.5,0.7-1.7,1c-5.1,1.3-19.1,4.2-26.3,5.4L41.4,22.6L41.4,22.6z M44.1,27.9
	c-0.8,0.1-1.5,0.3-2,0.4v-4.8h20c-0.9,1.1-2.8,1.5-13,3.5c-0.5,0.1-0.9,0.2-1.4,0.3C47,27.4,45.5,27.6,44.1,27.9z"/>
</svg>
