<?xml version="1.0" encoding="utf-8"?>
<!-- Generator: Adobe Illustrator 27.1.0, SVG Export Plug-In . SVG Version: 6.00 Build 0)  -->
<svg version="1.1" id="a" xmlns="http://www.w3.org/2000/svg" xmlns:xlink="http://www.w3.org/1999/xlink" x="0px" y="0px"
	 viewBox="0 0 139.2 45.3" style="enable-background:new 0 0 139.2 45.3;" xml:space="preserve">
<style type="text/css">
	.st0{fill:#FFFFFF;}
</style>
<path class="st0" d="M138.6,9.8H92.3V0.9c0-0.5-0.4-0.9-0.9-0.9H47.8c-0.5,0-0.9,0.4-0.9,0.9v8.9H13.7c-0.5,0-1.1,0.4-1.4,0.9
	L0.1,34.6c-0.3,0.5-0.1,0.9,0.4,0.9h46.3v8.9c0,0.5,0.4,0.9,0.9,0.9h43.6c0.5,0,0.9-0.4,0.9-0.9v-8.9h33.2c0.5,0,1.1-0.4,1.4-0.9
	l12.2-23.9C139.3,10.3,139.1,9.8,138.6,9.8z M116.9,29.7H86.6v9.9h-34v-9.9H15l7.2-14.1h30.3V5.7h34v9.9h37.6L116.9,29.7L116.9,29.7
	z"/>
</svg>
