<?xml version="1.0" encoding="utf-8"?>
<!-- Generator: Adobe Illustrator 27.1.0, SVG Export Plug-In . SVG Version: 6.00 Build 0)  -->
<svg version="1.1" id="Capa_1" xmlns="http://www.w3.org/2000/svg" xmlns:xlink="http://www.w3.org/1999/xlink" x="0px" y="0px"
	 viewBox="0 0 150 150" style="enable-background:new 0 0 150 150;" xml:space="preserve">
<style type="text/css">
	.st0{fill:#E22027;}
</style>
<g>
	<g>
		<path class="st0" d="M53.4,20.3c-2.5,0-4,0.2-4,0.2c35.9,8,42.4,45.8,42.4,45.8c5.5,30.6-16.4,49.9-16.4,49.9
			c65.1-6.3,53.3-66.7,53.3-66.7C119.5,70,111.5,75,111.5,75C106.9,24.4,66.5,20.3,53.4,20.3L53.4,20.3z"/>
		<g>
			<g>
				<path class="st0" d="M75,34.1c-65.1,6.3-53.3,66.7-53.3,66.7c9.2-20.6,17.2-25.6,17.2-25.6c4.6,50.6,45,54.7,58.1,54.7
					c2.5,0,4-0.2,4-0.2c-35.9-8-42.4-45.8-42.4-45.8C53.2,53.4,75,34.1,75,34.1L75,34.1z"/>
			</g>
		</g>
	</g>
</g>
<path class="st0" d="M75,15.8c15.8,0,30.7,6.2,41.9,17.3c11.2,11.2,17.3,26,17.3,41.9c0,15.8-6.2,30.7-17.3,41.9
	c-11.2,11.2-26,17.3-41.9,17.3c-15.8,0-30.7-6.2-41.9-17.3C22,105.7,15.8,90.8,15.8,75S22,44.3,33.1,33.1C44.3,22,59.2,15.8,75,15.8
	 M75,7C37.4,7,7,37.4,7,75s30.4,68,68,68s68-30.4,68-68S112.6,7,75,7L75,7z"/>
</svg>
