<?xml version="1.0" encoding="utf-8"?>
<!-- Generator: Adobe Illustrator 27.1.0, SVG Export Plug-In . SVG Version: 6.00 Build 0)  -->
<svg version="1.1" id="Capa_1" xmlns="http://www.w3.org/2000/svg" xmlns:xlink="http://www.w3.org/1999/xlink" x="0px" y="0px"
	 viewBox="0 0 150 150" style="enable-background:new 0 0 150 150;" xml:space="preserve">
<style type="text/css">
	.st0{fill:url(#SVGID_1_);}
	.st1{fill:url(#SVGID_00000063619563755127021770000007596624817814738591_);}
	.st2{fill:url(#SVGID_00000090988259109477106090000007490804593943847093_);}
	.st3{fill:url(#SVGID_00000032613981575975443500000000808110185457625274_);}
	.st4{fill:url(#SVGID_00000148622855447007989730000007920756224347256503_);}
	.st5{fill:url(#SVGID_00000005225969103990433100000011185725746072843399_);}
	.st6{fill:url(#SVGID_00000040561378236311715170000000289170236968645531_);}
	.st7{fill:url(#SVGID_00000161626639379214803500000000034168062914822587_);}
	.st8{fill:url(#SVGID_00000103971711858224880650000008881984748716278952_);}
	.st9{fill:url(#SVGID_00000040548704965917253020000000530878450777149840_);}
</style>
<linearGradient id="SVGID_1_" gradientUnits="userSpaceOnUse" x1="-1493.9219" y1="-79.1824" x2="-1493.9219" y2="-79.2715" gradientTransform="matrix(658.8911 0 0 -1028.03 984436.75 -81345.5703)">
	<stop  offset="4.000000e-02" style="stop-color:#8C8C8C"/>
	<stop  offset="0.194" style="stop-color:#B6B6B6"/>
	<stop  offset="0.403" style="stop-color:#EBEBEB"/>
	<stop  offset="0.506" style="stop-color:#FFFFFF"/>
	<stop  offset="0.564" style="stop-color:#FAFAFA"/>
	<stop  offset="0.633" style="stop-color:#EBEBEB"/>
	<stop  offset="0.707" style="stop-color:#D3D3D3"/>
	<stop  offset="0.786" style="stop-color:#B2B2B2"/>
	<stop  offset="0.868" style="stop-color:#878787"/>
	<stop  offset="0.952" style="stop-color:#535353"/>
	<stop  offset="0.96" style="stop-color:#4D4D4D"/>
</linearGradient>
<path class="st0" d="M132.9,98.3c-0.5-0.5-3-2.7-3-2.7L79.2,56.3c8.8,8.6,21.7,22.6,25.6,35c1.1,3.3,1.6,6.5,1.6,9.4
	c0,2.5-0.6,5.4-1.6,8.3c-2.1,5.3-6.4,11.3-12.9,18.2c-2.2,2.4-11.9,11.9-15.1,15.1c-0.6,0.6-1.1,1.6-1.3,2.7v2.9l56.8-44.3
	c0.6-0.5,1.9-1.4,1.9-3C134.2,99.6,133.2,98.6,132.9,98.3L132.9,98.3z"/>
<linearGradient id="SVGID_00000024714402808098100330000000216782716605707964_" gradientUnits="userSpaceOnUse" x1="-1483.1332" y1="-91.5579" x2="-1483.1277" y2="-91.6377" gradientTransform="matrix(398.6914 0 0 -317.7239 591425.1875 -28987.4297)">
	<stop  offset="0" style="stop-color:#BFBFBF"/>
	<stop  offset="0.212" style="stop-color:#666666"/>
	<stop  offset="0.274" style="stop-color:#595959"/>
	<stop  offset="0.516" style="stop-color:#292929"/>
	<stop  offset="0.701" style="stop-color:#0B0B0B"/>
	<stop  offset="0.806" style="stop-color:#000000"/>
</linearGradient>
<path style="fill:url(#SVGID_00000024714402808098100330000000216782716605707964_);" d="M96.3,129.7c-0.3-0.3,10.8-8.3,17-21.8
	c1.8-3.8,2.5-5.4,6.2-5.7c3.8-0.3,8.4-0.6,10.7-0.8c1,0,1.3,0.2,1.4,0.6c0.2,0.3-0.2,0.8-1,1.3c-5.9,4.1-14.6,11.3-26.6,20.7
	C103.6,124.6,96.4,129.8,96.3,129.7L96.3,129.7z"/>
<linearGradient id="SVGID_00000125567162834475521190000002680805452734213305_" gradientUnits="userSpaceOnUse" x1="-1493.9142" y1="-79.7221" x2="-1493.9142" y2="-79.8113" gradientTransform="matrix(658.6648 0 0 -1024.8883 984093.5 -81702.1797)">
	<stop  offset="4.000000e-02" style="stop-color:#8C8C8C"/>
	<stop  offset="0.194" style="stop-color:#B6B6B6"/>
	<stop  offset="0.403" style="stop-color:#EBEBEB"/>
	<stop  offset="0.506" style="stop-color:#FFFFFF"/>
	<stop  offset="0.564" style="stop-color:#FAFAFA"/>
	<stop  offset="0.633" style="stop-color:#EBEBEB"/>
	<stop  offset="0.707" style="stop-color:#D3D3D3"/>
	<stop  offset="0.786" style="stop-color:#B2B2B2"/>
	<stop  offset="0.868" style="stop-color:#878787"/>
	<stop  offset="0.952" style="stop-color:#535353"/>
	<stop  offset="0.96" style="stop-color:#4D4D4D"/>
</linearGradient>
<path style="fill:url(#SVGID_00000125567162834475521190000002680805452734213305_);" d="M104.5,60.7c-1.1-3.3-1.6-6.5-1.6-9.4
	c0-2.5,0.6-5.4,1.6-8.3c2.1-5.3,6.4-11.3,12.9-18.2c2.1-2.2,10.7-10.8,15.1-15.1c0.8-0.8,1.1-1.6,1.4-2.7c0.2-1,0.2-1.8,0.2-2.1V4
	l-57,44.3c-0.3,0.3-1.3,1.1-1.8,2.1c-0.2,0.3-0.2,1.1,0,1.8c0.3,0.8,0.8,1.3,1.1,1.6c0.5,0.3,2.9,2.4,2.9,2.4L130,95.4
	C121.1,86.8,108.5,72.8,104.5,60.7L104.5,60.7z"/>
<path d="M101.7,59.9c-1-2.9-1.6-5.9-1.6-8.8c0-2.7,0.8-5.3,1.8-8c4.6-11.3,26.4-30.6,30.9-34.2c-3.7,2.9-19.7,16.6-23.9,20.9
	C102,36.5,96.7,44,96.7,51.3c0,8,5.6,16.1,11.9,23.6c4,4.8,7.8,8.9,11.6,12.3c4,3.7,6.7,6.1,9.6,8.3
	C126.7,92.4,106.9,74.9,101.7,59.9L101.7,59.9z"/>
<linearGradient id="SVGID_00000145763834024840452360000010106490678620111283_" gradientUnits="userSpaceOnUse" x1="-1480.7739" y1="-80.1507" x2="-1480.7739" y2="-80.0615" gradientTransform="matrix(366.575 0 0 -968.3348 542931.4375 -77517.3047)">
	<stop  offset="4.000000e-02" style="stop-color:#4D4D4D"/>
	<stop  offset="4.800000e-02" style="stop-color:#5A5A5A"/>
	<stop  offset="7.700000e-02" style="stop-color:#808080"/>
	<stop  offset="0.109" style="stop-color:#A3A3A3"/>
	<stop  offset="0.144" style="stop-color:#C0C0C0"/>
	<stop  offset="0.182" style="stop-color:#D7D7D7"/>
	<stop  offset="0.226" style="stop-color:#E9E9E9"/>
	<stop  offset="0.279" style="stop-color:#F6F6F6"/>
	<stop  offset="0.348" style="stop-color:#FDFDFD"/>
	<stop  offset="0.506" style="stop-color:#FFFFFF"/>
	<stop  offset="0.631" style="stop-color:#FDFDFD"/>
	<stop  offset="0.701" style="stop-color:#F5F5F5"/>
	<stop  offset="0.756" style="stop-color:#E7E7E7"/>
	<stop  offset="0.805" style="stop-color:#D3D3D3"/>
	<stop  offset="0.848" style="stop-color:#BABABA"/>
	<stop  offset="0.888" style="stop-color:#9B9B9B"/>
	<stop  offset="0.925" style="stop-color:#777777"/>
	<stop  offset="0.96" style="stop-color:#4D4D4D"/>
</linearGradient>
<path style="fill:url(#SVGID_00000145763834024840452360000010106490678620111283_);" d="M104.5,60.7c-1.1-3.3-1.6-6.5-1.6-9.4
	c0-2.5,0.6-5.4,1.6-8.3c2.1-5.3,6.4-11.3,12.9-18.2c2.1-2.2,10.7-10.8,15.1-15.1c0.2-0.2,0.3-0.3,0.5-0.6
	c-4.5,3.5-26.3,22.9-30.9,34.2c-1.1,2.7-1.8,5.3-1.8,8c0,2.9,0.5,5.9,1.6,8.8c5.3,15,24.7,32.3,28,35.5
	C120.9,86.7,108.5,72.8,104.5,60.7L104.5,60.7z"/>
<linearGradient id="SVGID_00000015351816606798202740000009365180778717118082_" gradientUnits="userSpaceOnUse" x1="-1480.1116" y1="-79.629" x2="-1480.1116" y2="-79.5398" gradientTransform="matrix(366.575 0 0 -971.79 542664.625 -77239.7266)">
	<stop  offset="4.000000e-02" style="stop-color:#4D4D4D"/>
	<stop  offset="4.800000e-02" style="stop-color:#5A5A5A"/>
	<stop  offset="7.700000e-02" style="stop-color:#808080"/>
	<stop  offset="0.109" style="stop-color:#A3A3A3"/>
	<stop  offset="0.144" style="stop-color:#C0C0C0"/>
	<stop  offset="0.182" style="stop-color:#D7D7D7"/>
	<stop  offset="0.226" style="stop-color:#E9E9E9"/>
	<stop  offset="0.279" style="stop-color:#F6F6F6"/>
	<stop  offset="0.348" style="stop-color:#FDFDFD"/>
	<stop  offset="0.506" style="stop-color:#FFFFFF"/>
	<stop  offset="0.631" style="stop-color:#FDFDFD"/>
	<stop  offset="0.701" style="stop-color:#F5F5F5"/>
	<stop  offset="0.756" style="stop-color:#E7E7E7"/>
	<stop  offset="0.805" style="stop-color:#D3D3D3"/>
	<stop  offset="0.848" style="stop-color:#BABABA"/>
	<stop  offset="0.888" style="stop-color:#9B9B9B"/>
	<stop  offset="0.925" style="stop-color:#777777"/>
	<stop  offset="0.96" style="stop-color:#4D4D4D"/>
</linearGradient>
<path style="fill:url(#SVGID_00000015351816606798202740000009365180778717118082_);" d="M107.6,91.9c-5.3-15-25.2-32.8-28.3-35.7
	c8.8,8.6,21.7,22.6,25.6,35c1.1,3.3,1.6,6.5,1.6,9.4c0,2.5-0.6,5.4-1.6,8.3c-2.1,5.3-6.4,11.3-12.9,18.2
	c-2.2,2.4-11.9,11.9-15.1,15.1c-0.2,0.2-0.3,0.3-0.5,0.6c4.5-3.7,26.1-22.9,30.9-34.2c1.1-2.7,1.8-5.3,1.8-8
	C109.2,97.8,108.7,95,107.6,91.9z"/>
<path d="M100.7,77.1c-4-4.8-7.8-8.9-11.6-12.3c-4-3.7-7-6.4-9.9-8.6c3.3,2.9,23.2,20.9,28.3,35.7c1,2.9,1.6,5.9,1.6,8.8
	c0,2.7-0.8,5.3-1.8,8c-4.8,11.3-26.4,30.6-31.1,34.2v0.2c3.8-2.9,19.9-16.6,24-20.9c6.8-6.7,12.1-14.2,12.1-21.5
	C112.5,92.7,106.9,84.6,100.7,77.1L100.7,77.1z M53.9,51.2c0,8-5.4,15.9-12.6,23.2c-4.6,4.6-9.2,8.8-13.5,12.1
	c-4.5,3.7-8,6.1-11.1,8.3c3.7-2.9,26.1-20.2,32-35c1.1-2.9,1.8-5.7,1.8-8.6c0-2.9-0.6-5.7-1.8-8.6c-5.9-14.8-28.3-32.2-32-35
	c3.2,2.2,6.7,4.6,11.1,8.3c4.3,3.3,8.9,7.5,13.5,12.1C48.5,35.3,53.9,43.4,53.9,51.2L53.9,51.2z"/>
<linearGradient id="SVGID_00000102515702365666845980000013836921941576323517_" gradientUnits="userSpaceOnUse" x1="-1477.9609" y1="-79.9114" x2="-1477.8542" y2="-79.9782" gradientTransform="matrix(360.5972 0 0 -993.7839 532949 -79398.9297)">
	<stop  offset="1.800000e-02" style="stop-color:#F5F5F5"/>
	<stop  offset="0.327" style="stop-color:#F0F0F0"/>
	<stop  offset="0.687" style="stop-color:#E2E2E2"/>
	<stop  offset="0.727" style="stop-color:#E0E0E0"/>
	<stop  offset="0.96" style="stop-color:#B3B3B3"/>
</linearGradient>
<path style="fill:url(#SVGID_00000102515702365666845980000013836921941576323517_);" d="M16.6,94.8l-1,0.6V6.9l1,0.6
	c3.3,2.9,24.2,20.2,29.6,35c1.1,2.9,1.8,5.7,1.8,8.6s-0.6,5.7-1.8,8.6C40.7,74.6,20,91.9,16.6,94.8"/>
<linearGradient id="SVGID_00000011724181777526999650000002131909044592662433_" gradientUnits="userSpaceOnUse" x1="-1479.5862" y1="-80.093" x2="-1479.5862" y2="-80.0038" gradientTransform="matrix(379.7903 0 0 -978.3885 561966 -78267.2188)">
	<stop  offset="4.000000e-02" style="stop-color:#4D4D4D"/>
	<stop  offset="4.800000e-02" style="stop-color:#5A5A5A"/>
	<stop  offset="7.700000e-02" style="stop-color:#808080"/>
	<stop  offset="0.109" style="stop-color:#A3A3A3"/>
	<stop  offset="0.144" style="stop-color:#C0C0C0"/>
	<stop  offset="0.182" style="stop-color:#D7D7D7"/>
	<stop  offset="0.226" style="stop-color:#E9E9E9"/>
	<stop  offset="0.279" style="stop-color:#F6F6F6"/>
	<stop  offset="0.348" style="stop-color:#FDFDFD"/>
	<stop  offset="0.506" style="stop-color:#FFFFFF"/>
	<stop  offset="0.631" style="stop-color:#FDFDFD"/>
	<stop  offset="0.701" style="stop-color:#F5F5F5"/>
	<stop  offset="0.756" style="stop-color:#E7E7E7"/>
	<stop  offset="0.805" style="stop-color:#D3D3D3"/>
	<stop  offset="0.848" style="stop-color:#BABABA"/>
	<stop  offset="0.888" style="stop-color:#9B9B9B"/>
	<stop  offset="0.925" style="stop-color:#777777"/>
	<stop  offset="0.96" style="stop-color:#4D4D4D"/>
</linearGradient>
<path style="fill:url(#SVGID_00000011724181777526999650000002131909044592662433_);" d="M16.6,94.8c3.7-2.9,26.1-20.2,32-35
	c1.1-2.9,1.8-5.7,1.8-8.6c0-2.9-0.6-5.7-1.8-8.6c-5.9-14.8-28.3-32.2-32-35c3.3,2.9,24.2,20.2,29.6,35c1.1,2.9,1.8,5.7,1.8,8.6
	c0,2.9-0.6,5.7-1.8,8.6C40.7,74.6,20,91.9,16.6,94.8z"/>
<path d="M133.2,98c-4.1-4-23.1-22-28.2-37.4c-1.1-3.2-1.6-6.2-1.6-9.2c0-2.7,0.6-5.3,1.6-8c2.4-6.1,7.5-12.6,12.7-18
	c2.2-2.4,11.9-11.9,15.1-15.3c0.8-0.8,1.3-1.8,1.4-2.7c0.2-1,0.3-1.9,0.3-2.5V3.1L76.8,47.8c-0.6,0.5-1.6,1.3-1.9,2.5
	c-0.3-1.1-1.3-2.1-1.9-2.5L15.2,2.9v96.7L73,54.7c0.6-0.5,1.6-1.3,1.9-2.5c0.3,1,1,1.8,1.3,1.9c4.1,4,23.2,22,28.3,37.4
	c1.1,3.2,1.6,6.2,1.6,9.2c0,2.7-0.6,5.3-1.6,8c-2.4,6.1-7.5,12.6-12.7,18c-2.2,2.4-11.9,12.1-15.1,15.3c-0.6,0.6-1.3,1.8-1.4,2.7
	c-0.2,0.8-0.3,1.6-0.3,2.5v1.8l57.8-44.9c0.8-0.6,2.1-1.8,2.1-3.3C134.6,99.3,133.5,98.3,133.2,98L133.2,98z M72.7,54.2l-57,44.3V4
	l56.8,44.3c0.6,0.5,1.9,1.6,1.9,3C74.4,52.6,73.3,53.7,72.7,54.2z M75.4,52.1c-0.2-0.6-0.2-1.3,0-1.8c0.3-1,1.3-1.8,1.8-2.1L134,4
	v0.8c0,0.3,0,1.1-0.2,2.1c-0.2,1.1-0.6,2.1-1.4,2.7c-4.3,4.3-13.1,12.9-15.1,15.1c-6.5,6.8-10.8,12.9-12.9,18.2
	c-1.1,2.9-1.6,5.6-1.6,8.3c0,3,0.6,6.2,1.6,9.4c4,12.3,16.6,26.1,25.3,34.7L79.4,56.1c0,0-2.4-2.1-2.9-2.4
	C76.2,53.4,75.7,52.8,75.4,52.1L75.4,52.1z M132.2,103.7L75.4,148v-0.8c0-0.8,0.2-1.4,0.2-2.1c0.2-1.1,0.6-2.1,1.4-2.7l15.1-15.1
	c6.5-6.8,10.8-12.9,12.9-18.2c1.1-2.9,1.6-5.6,1.6-8.3c0-3-0.6-6.2-1.6-9.4C100.9,79,88.1,65,79.4,56.4l50.8,39.5c0,0,2.5,2.2,3,2.7
	c0.3,0.3,1.3,1.3,1.3,2.4C134.2,102.1,132.9,103.3,132.2,103.7L132.2,103.7z"/>
<linearGradient id="SVGID_00000183227842969043370580000015022730360023022754_" gradientUnits="userSpaceOnUse" x1="-1481.8273" y1="-93.1701" x2="-1481.833" y2="-93.2503" gradientTransform="matrix(387.6088 0 0 -317.3753 574465.1875 -29516.7754)">
	<stop  offset="0" style="stop-color:#BFBFBF"/>
	<stop  offset="0.212" style="stop-color:#666666"/>
	<stop  offset="0.274" style="stop-color:#595959"/>
	<stop  offset="0.516" style="stop-color:#292929"/>
	<stop  offset="0.701" style="stop-color:#0B0B0B"/>
	<stop  offset="0.806" style="stop-color:#000000"/>
</linearGradient>
<path style="fill:url(#SVGID_00000183227842969043370580000015022730360023022754_);" d="M112,80.2c0.2-0.2-5.7-5.9-6.5-6.5
	C99,67.6,93.7,58.2,93.7,58.2c-1.9-3.8-2.5-5.4-6.2-5.7c-3.8-0.3-6.4-0.5-8.6-0.5c-1,0-1.3,0.2-1.4,0.6c-0.2,0.3,0.2,0.8,1,1.3
	C84.3,58,93.1,65,105,74.6C105.8,75.1,111.9,80.3,112,80.2L112,80.2z"/>
<linearGradient id="SVGID_00000093144690194778715890000010401446643585613747_" gradientUnits="userSpaceOnUse" x1="-1493.0052" y1="-79.5045" x2="-1493.0052" y2="-79.5937" gradientTransform="matrix(659.2061 0 0 -1059.1357 984243.125 -84202.0312)">
	<stop  offset="4.000000e-02" style="stop-color:#8C8C8C"/>
	<stop  offset="0.194" style="stop-color:#B6B6B6"/>
	<stop  offset="0.403" style="stop-color:#EBEBEB"/>
	<stop  offset="0.506" style="stop-color:#FFFFFF"/>
	<stop  offset="0.564" style="stop-color:#FAFAFA"/>
	<stop  offset="0.633" style="stop-color:#EBEBEB"/>
	<stop  offset="0.707" style="stop-color:#D3D3D3"/>
	<stop  offset="0.786" style="stop-color:#B2B2B2"/>
	<stop  offset="0.868" style="stop-color:#878787"/>
	<stop  offset="0.952" style="stop-color:#535353"/>
	<stop  offset="0.96" style="stop-color:#4D4D4D"/>
</linearGradient>
<path style="fill:url(#SVGID_00000093144690194778715890000010401446643585613747_);" d="M15.7,95.6l1-0.6c3.2-2.2,6.7-4.6,11.1-8.3
	c4.3-3.3,8.9-7.5,13.5-12.1c7.2-7.3,12.6-15.3,12.6-23.2s-5.4-15.9-12.6-23.2c-4.6-4.6-9.2-8.8-13.5-12.1c-4.5-3.7-8-6.1-11.1-8.3
	l-1-0.6V4l56.8,44.3c0.6,0.5,1.9,1.6,1.9,3s-1.1,2.4-1.9,3L15.7,98.5L15.7,95.6z"/>
<linearGradient id="SVGID_00000067226881101247612170000002722028446197926030_" gradientUnits="userSpaceOnUse" x1="-1481.323" y1="-93.1641" x2="-1481.3174" y2="-93.2441" gradientTransform="matrix(394.8356 0 0 -317.4716 584932.5 -29523.8145)">
	<stop  offset="0" style="stop-color:#BFBFBF"/>
	<stop  offset="0.212" style="stop-color:#666666"/>
	<stop  offset="0.274" style="stop-color:#595959"/>
	<stop  offset="0.516" style="stop-color:#292929"/>
	<stop  offset="0.701" style="stop-color:#0B0B0B"/>
	<stop  offset="0.806" style="stop-color:#000000"/>
</linearGradient>
<path style="fill:url(#SVGID_00000067226881101247612170000002722028446197926030_);" d="M37,80.2c0,0,1.4-1.4,4.8-4.5
	c0.8-0.6,1.6-1.4,2.2-2.1c6.5-6.1,11.8-15.4,11.8-15.4c1.9-3.8,2.5-5.4,6.2-5.7c3.8-0.3,6.4-0.5,8.6-0.5c1,0,1.3,0.2,1.4,0.6
	c0.2,0.3-0.2,0.8-1,1.3C65.2,58,56.6,65.2,44.5,74.6c-0.8,0.6-1.6,1.3-2.4,1.8C38.9,78.7,37.2,80.3,37,80.2L37,80.2z"/>
</svg>
