<?xml version="1.0" encoding="utf-8"?>
<!-- Generator: Adobe Illustrator 27.1.0, SVG Export Plug-In . SVG Version: 6.00 Build 0)  -->
<svg version="1.1" id="Capa_1" xmlns="http://www.w3.org/2000/svg" xmlns:xlink="http://www.w3.org/1999/xlink" x="0px" y="0px"
	 viewBox="0 0 150 150" style="enable-background:new 0 0 150 150;" xml:space="preserve">
<style type="text/css">
	.st0{fill:#FFFFFF;}
</style>
<path class="st0" d="M73.1,12.3c0.5,0.2,0.6,0.4,1.1,0.5c0.4,0.1,1,0.4,1.1,0.1c0.2-0.4-0.1-0.8-0.4-1.2c-0.5-0.8-0.7-0.9-1.4-2
	c-0.1-0.2-0.2-0.5-0.5-0.5c0,0-0.1,0.8-0.3,1.2c-0.2,0.4-0.6,0.7-0.6,1C72.3,11.7,72.6,12.1,73.1,12.3z"/>
<path class="st0" d="M125.2,62.1c-0.6,0.7-0.8,2.2-1.6,3.5c-1.1,1.7-2.7,3.9-3.6,3.9c-0.4,0-0.6-1-0.6-1s-0.6-1.7,0.4-3.8
	c0.7-1.5,1.1-1.9,1.9-3.1c0.8-1.1,1.3-1.6,1.9-2.7c0.5-1,0.6-1.2,0.9-2.7c0.1-0.4-0.1-1.2-0.4-1.1c-0.5,0-1.9,3-3.3,4.7
	c-1.4,1.6-3.9,3.6-3.9,3.6s-0.2,0.2-0.2-0.3c-0.1-0.4-0.1-1.7,0.1-2.9s0.6-2.4,1.7-4.2c1.2-2.1,2.7-3.5,3.4-4.2
	c0.3-0.3,1.2-0.9,0.7-1.2c-0.4-0.2-1.7,0.9-2.7,1.6c-1.2,0.9-1.7,1.2-2.9,2.7c-1.2,1.5-1.6,2.1-1.6,2.1s-1.2,1.9-1.5,3.8
	s-0.3,2.9-0.3,2.9s0,1.7,0.2,2.7c0.1,1.1,0.6,2.7,0.6,2.7s0.6,1.8,0.9,2.9c0.2,1.1,0.7,4.4,0.7,4.4s0.3,2.4,0.1,4.6
	c-0.2,2.2-0.4,3.6-0.6,4.2c-0.2,0.7-0.9,2.5-2.1,3.7c-1.1,1.2-1.3,1.4-1.3,1.4s-1.1,0.9-2.1,1.4c-0.9,0.5-2.3,1.1-2.9,1.3
	c-0.6,0.1-1.5,0.2-1.6,0.2h-0.8l-0.2-0.2l-0.1-0.5c0,0-0.6-2.4-1.4-4c-0.6-1.3-1.9-3.1-1.9-3.1s-2.2-3.1-4-4.7c-2-2-4.2-3.5-5.6-4.6
	C91,75.7,89.9,75,89.9,75s-4.6-4.6-6.2-8.2c-1.1-2.5-1.9-4.3-1.6-7.1c0.1-0.6,0.3-1.8,0.4-1.8l0.8,0.2c0.1,0.1,0.8,0.7,1.5,1
	c0.4,0.1,1.1,0.2,1.1,0.2s0.6,0.1,0.9,0.1c0.3,0.1,0.9,0.3,1.2,0.5c0.4,0.2,0.9,0.6,0.9,0.6l1.1,0.8l1.1,0.9c0,0,0.6,0.4,0.8,0.5
	c0.2,0.1,0.3,0.1,0.4,0.1h0.2c0,0,0.2-0.1,0.3-0.3c0.1-0.3-0.3-0.1-0.9-0.7c-0.6-0.6-0.9-1.1-0.9-1.1s-0.1-0.5-0.6-1.1
	s-1.1-1.1-1.1-1.1s-0.4-0.3-1.1-0.5s-0.8-0.2-0.9-0.4s0.7-0.1,0.7-0.1s0.9,0.1,1.7,0.5c0.7,0.4,1.2,0.8,1.2,0.8l0.5,0.4l0.3,0.3
	l0.3,0.2c0,0,0.3,0.3,0.4-0.1c0.1-0.4-0.1-0.7-0.1-0.7L92,58.8l-1.2-1.1c-0.4-0.4-0.6-0.6-1-0.9c-0.4-0.2-0.9-0.6-1.6-0.9
	c-0.6-0.2-1-0.2-1.6-0.5c-0.4-0.2-0.8-0.3-1.1-0.7c-0.1-0.1-0.4-0.3,0.2-0.2s0.9,0.3,1.6,0.4c1,0.2,1.6,0.2,2.6,0.6
	c0.4,0.1,0.9,0.4,0.9,0.4l1.2,0.5c0,0,1.6,0.9,2.7,0.9c1.1,0.1,2.1-0.2,2.4-0.4c0.4-0.1,1.1-0.6,1.2-0.7c0.2-0.2,0.3-0.4,0.3-0.4
	l0.1-0.3v-0.2c-0.3-0.4-0.9,0.6-1.9,0.8c-1.1,0.2-1,0.3-1.7,0.2s-1.2-0.3-1.7-0.9c-1-0.9-1.4-1.8-2.7-2.4c-0.6-0.2-1.6-0.5-1.6-0.5
	s-1.4-0.4-2.1-0.9c-0.6-0.3-1.7-0.5-1.4-1c0.2-0.2,1.7,0.6,2.8,0.7c0.8,0.1,1.4,0.1,2,0.1s1.5-0.2,1.6-0.2c0.1-0.1,0.6,0,1.1,0.1
	c0.4,0.1,0.7,0.3,1.1,0.5s0.9,0.5,1.1,0.5l0.2,0.1l0.1-0.1l0.1-0.1l-0.1-0.1L95.4,52L95,51.8c0,0-0.6-0.3-1.1-0.8s-0.9-1.1-1.7-1.3
	c-0.7-0.2-1.6-0.4-1.6-0.4l-0.9-0.1l-0.4-0.1c0,0-0.6-0.2-0.1-0.3s0.7-0.2,0.9-0.2c0.1-0.1,0.9-0.1,1.4,0.1c0.5,0.2,1.3,0.6,1.4,0.6
	c0.1,0.1,0.8,0.6,1.6,0.8c0.8,0.2,1.9,0.2,1.9,0.2l0.5-0.1l0.2-0.1l0.2-0.1l-0.1-0.3c0,0,0-0.2-0.4-0.3s-1.1-0.2-1.8-0.7
	c-0.7-0.5-1.2-1-1.2-1s-0.5-0.4-1.5-0.7c-0.9-0.2-1.2-0.2-1.2-0.2l-0.3-0.1l-0.7-0.3c0,0-0.3-0.2-0.6-0.5c-0.2-0.3-0.6-0.9,0.4-0.6
	c1.1,0.3,1.3,0.5,1.3,0.5s0.6,0.6,1.1,0.6c0.3,0.1,0.6,0.1,0.7-0.1c0.3-0.3-0.6-0.7-1.2-1.1c-0.5-0.3-1-1.1-1-1.1s-0.4-0.3,0.2-0.2
	s1.6,0.7,1.6,0.7s0.5,0.2,0.7,0.3s0.7,0.4,0.9,0.5c0.2,0.1,0.7,0.2,1.1,0.4c0.5,0.3,0.7,0.8,1,1c0.2,0.2,0.4,0.5,0.7,0.6
	c0.3,0.1,0.4,0.2,0.6,0.1c0.2-0.1,0.2-0.2,0.2-0.2s0.1-0.1-0.2-0.3c-0.3-0.2-0.7-0.7-0.7-0.7l0.2-0.3L97,45.8l-0.3-0.5l-0.6-0.8
	c0,0-0.9-1.2-1.7-1.6c-0.7-0.4-1.3-0.7-1.3-0.7s-0.4-0.2-0.6-0.3c-0.3-0.2-0.4-0.4-0.7-0.7c-0.3-0.4-0.4-0.6-0.8-1
	c-0.7-0.7-2.8-1.1-2-1.6c0.4-0.2,1-0.1,1.2-0.1s0.8,0.3,1.4,0.5c0.4,0.1,0.6,0.1,1,0.2c0.4,0.1,0.8,0.2,1,0.3s0.4,0.4,0.5,0.4
	c0.1,0.1,0.6,0.9,1.4,1.3c0.9,0.4,1.3,0.7,2.2,0.8c0.7,0.1,1.8-0.2,1.8-0.2s0.3-0.1,0.1-0.4C99.3,41.1,99.3,41,99,41
	c-1-0.4-1.8-0.2-2.6-1c-0.3-0.3-0.4-0.4-0.7-0.9c-0.2-0.5-0.1-0.6-0.3-0.9c-0.1-0.3-0.4-0.7-0.4-0.7s-0.9-1.1-1.9-1.7
	c-1.1-0.6-1.8-1.1-1.9-1.2C91,34.5,90.6,34,90.6,34l-0.3-0.5L90.2,33c-0.1-0.7,1.1,0.2,1.8,0.4c1.1,0.4,1.7,0.9,2.8,1.2
	c0.6,0.2,1,0.2,1.6,0.4c1.1,0.4,1.4,1.5,2.5,1.6c0.6,0.1,1.9,0.3,1.6-0.2c-0.2-0.6-1.5-0.6-2.1-1.4c-0.3-0.3-0.3-0.6-0.6-0.9
	c-0.5-0.6-1.7-1.2-1.7-1.2s-0.4-0.3-0.8-1.2c-0.4-0.9-1.3-1.5-3-2.3c-1.1-0.6-3.4-0.7-2.5-1.2c0.5-0.4,0.9-0.3,1.6-0.1
	c0.7,0.2,0.9,0.6,1.5,0.8c0.6,0.2,0.8,0.3,0.9,0.4s0.6,0.2,0.7,0.2c0.1,0.1,1.1,0.2,1.3,0.2L97,30l1,0.4c0,0,0.5,0.2,0.8,0.2
	s0.8-0.1,0.8-0.1l0.4-0.2l0.1-0.1c0,0,0.2-0.3-0.3-0.4c-0.4-0.1-0.7-0.1-0.7-0.1l-0.4-0.1l-0.2-0.1c0,0-0.9-0.7-1.6-1
	c-0.8-0.3-0.9-0.4-0.9-0.4L95.7,28l-0.4-0.1c0,0-0.3,0-0.8-0.4s-0.7-0.7-1.1-1.1L92.9,26c0,0-0.5-0.4-0.5-0.7
	c0.1-0.5,1.1,0.6,1.1,0.6l0.7,0.5c0,0,0.6,0.4,1.7,0.5s2.5-0.3,2.5-0.3s0.2-0.1,0.8,0.1s1.1,0.6,1.1,0.6l0.5,0.4l0.7,0.8l0.1-0.1
	c0.1-0.1,0.4-0.4-0.2-1.1S99.9,26,99.9,26s-1.2-0.7-2.5-1c-1.2-0.2-1.8-0.2-1.8-0.2s-0.9,0-1.5-0.6S93.2,23,93.2,23v-1
	c0,0-0.3-0.4-0.9-0.6s-1.2-0.6-1.2-0.6s-0.9-0.3-1-0.7c-0.2-0.8,1.6,0,2.5,0.2s1.2,0.5,2.1,0.7c0.7,0.2,1.2,0.2,2,0.2
	c0.4,0,0.7-0.1,1.1-0.1s0.7-0.1,1.2,0c0.6,0.1,0.9,0.4,1.5,0.7c0.4,0.2,0.6,0.4,1,0.4c0.4,0.1,1.1,0.3,1-0.1l-0.2-0.2
	c-0.3-0.4-0.7-0.4-1.1-0.7c-0.8-0.6-1.2-1.1-2.1-1.6c-0.6-0.3-1-0.4-1.7-0.6c-0.5-0.1-0.9,0.1-1.4-0.1c-0.6-0.2-0.7-0.4-1.3-0.7
	c-0.9-0.5-1.4-0.9-2.3-1.3c-0.6-0.2-1.7-0.5-1.7-0.5l-0.4-0.1l-0.2-0.1c-0.9-0.3,1.6-1,2.7-1.3c0.6-0.1,0.8-0.2,1.4-0.2
	c0.5,0.1,1.1,0.7,1.6,0.4c0.8-0.4-0.9-1.6-1.5-1.8c-0.7-0.3-2.1-0.1-2.1-0.1l-2.9-0.1L88.6,13c0,0-0.5,0-0.9-0.4s-1.8-2.2-3.4-2.4
	c-1.7-0.2-2.2,0-2.3-0.1c-1.4-2.2-2.9-2.7-4.1-3.8c-0.3-0.3-0.8-1-0.9-0.9s-0.3,1-0.6,1.8c-0.4,0.9-0.1,1.4,0.1,1.7
	c0.2,0.4,0.6,0.6-0.1,1S74.9,10,74.9,10s-0.7-0.1-1.2-0.4C73.1,9.4,72,8.9,72,8.9s-1.3-0.4-2-0.3s-0.8,0.1-1.4,0.2
	c-0.3,0-0.4,0-0.7,0.1c-0.2,0.1-0.6-0.1-0.6,0.2s0.6,0.3,1.1,0.5c0.4,0.2,1.4,0.2,1.2,0.4c-0.2,0.2-1.2,0.3-1.2,0.2
	c-0.1,0-0.7-0.1-1.2-0.1c-0.8,0.1-0.9,0.1-2.1,0.6c-0.2,0.1-0.1,0.5,0.2,0.4c0.4-0.1,1.1-0.2,1.7-0.2c0.7,0,1.2,0.2,1.9,0.4
	c0.6,0.2,0.7,0.3,1.6,0.4c0.2,0,0.6-0.1,0.6,0.1c0,0.1-0.2,0.3-0.2,0.3s-0.6,0.1-0.5,0.3s0.6,0,0.9,0c0.2,0,0.6,0.1,0.6,0.3L71.8,13
	c-0.7,0.2-1.1,0.3-1.7,0.6c-1.6,0.6-2.2,1.4-3.7,2.1c-1.4,0.7-3.7,1.6-3.7,1.6S62,17.6,61,17.8s-1.1,0.2-1.7,0.3
	c-0.7,0.1-1,0.2-1.6,0.5c-0.4,0.2-0.6,0.4-0.9,0.7l-0.9,1.3l-0.5,0.7c-0.1,0.2-0.2,0.4-0.3,0.6c-0.1,0.3-0.2,0.4-0.2,0.7
	c-0.2,0.7,0,1.2,0.1,1.9c0.1,0.2,0.1,0.3,0.1,0.5s0.3,0.4,0.3,0.4l0.2,0.1c0,0,0.9-0.1,1.4-0.2c0.6-0.1,1.4-0.3,1.4-0.3l1.1-0.3
	l0.7-0.2c0,0,0.4,0,0.5,0.2s-0.1,0.5-0.1,0.5s-0.4,0.2-0.7,0.3c-0.3,0.1-1.1,0.3-1.1,0.4L58,26.3l-0.7,0.1c0,0-0.1,0.1-0.2,0.2
	C57,26.8,57,26.8,57,26.9c0.1,0.1,0.2,0.2,0.3,0.4c0.2,0.2,0.4,0.3,0.7,0.4c0.4,0.2,0.7,0.1,1.1,0.1c0.6,0,1-0.1,1.6-0.4
	c0.5-0.3,0.7-0.3,1.4-0.6c0.2-0.1,0.6-0.1,0.7-0.1c1.2-0.1,1.9,0.1,3.1,0.2c1.2,0.2,1.7,0.6,2.9,0.7c1.2,0.2,2,0.6,3.3,0.2
	c0.6-0.1,1-0.4,1.3,0.2s0.2,0.9,0.2,0.9s0,0.4-0.4,1.6s-1.8,4.1-1.8,4.1l-0.9,1.9c0,0-0.7,1.5-2.5,3.4c-1.9,2.1-2,2.2-2,2.2
	s-0.9,0.7-1.9,1.9c-0.9,1.2-0.9,1.6-1.8,2.5c-0.6,0.6-0.9,0.9-1.6,1.3c-0.7,0.4-1.5,0.3-3.7,1.8c-1.9,1.3-2.9,2.4-3,2.3
	c-0.1-0.1-0.7-0.6-1-0.7c-0.2-0.1-3.8-2.6-3.8-2.6l-1.5-1L47,47.2L46.9,47l-0.4-0.5c0,0-0.6-0.7-1.2-1.2c-0.7-0.6-1.4-1.1-2.6-1.4
	c-1.1-0.3-1.7-0.5-2.8-0.1c-0.7,0.2-1.1,0.5-1.6,1c-0.6,0.6-0.7,1.1-1.2,1.9c-0.5,0.7-1,1.4-1.2,1.8c-0.2,0.4-0.7,1.4-0.7,1.4
	s-1.2,2-1.9,3.3c-0.8,1.4-1.1,2.3-1.9,3.7c-1.2,2.2-2.9,4.4-3.3,5.4s-0.5,1.1-0.5,1.1s-0.1,0.6-0.2,0.9c-0.1,0.4-0.1,1-0.1,1.2
	c-0.1,0.3-0.2,0.6-0.3,0.7c-0.1,0.1-0.7,1.5-1,2.4s-0.8,3.9-0.1,4.2c0.7,0.4,5.7-1.8,6.4-3.9c0.4-1.4-1.4-2.1-0.9-3.3
	c0.2-0.4,0.3-0.5,0.6-0.9c0.5-0.8,0.3-2.5,1.2-4.1c0.7-1.1,2.1-2.6,3.9-4.7c1.2-1.3,2.3-3.4,2.3-3.4s0.2-0.7,0.7-0.6
	c0.6,0.1,1.1,0.1,1.1,0.1l0.2,0.2l0.5,0.5l0.7,1.1c0,0,1.2,1.8,1.7,2.3c0.4,0.5,0.9,0.9,1.5,1.4c0.7,0.6,0.9,0.9,1.8,1.6
	c1.2,1,0.8,1.4-0.8,0.5c-0.6-0.3-1.4-0.6-2.1-0.8c-0.7-0.2-3.6-0.9-5-1.1c-1.4-0.2-1.6-0.1-1.6-0.1s-0.7-0.1-1.5,0.4
	s-1.2,0.9-1.2,0.9s-0.9,1.1-1,1.2S33.9,61,33.9,61s-0.2,0.4-0.3,0.8c-0.1,0.4-0.1,0.9-0.1,0.9l0.1,0.9l0.1,0.9c0,0,0.2,2.2,0.6,4.4
	c0.1,0.6,0.2,1.6,0.2,1.6l0.3,2.2c0,0,0.2,2.4,0.4,3.2c0.2,0.7,0.3,0.8,0.4,1.3c0.2,0.9-0.2,1.4,0.2,2.5s0.8,1,1.2,1.7
	c0.3,0.5,0.4,0.6,0.7,1.2c0.2,0.6,1.1,2.7,2,4.2c1,1.6,2.3,3.5,3.2,3.3s1.5-1.6,1.5-1.6s1-2.7,0.4-5.3c-0.6-2.7-3.5-1.4-3.9-3.4
	c-0.1-0.4,0-1.1,0-1.1s0.1-0.7,0-0.9s-1.1-2.1-1.5-3.7c-0.3-1.2-0.2-5-0.5-6.1c-0.7-2.7-0.7-2.5-0.4-3c0.4-0.5,0.8-0.4,0.8-0.4
	l0.6,0.1l0.4,0.2c0,0,0.5,0.3,0.8,0.5c0.2,0.2,1.1,0.9,1.1,0.9l2.1,1.4c0,0,1.2,0.7,1.7,0.9c0.5,0.2,0.9,0.6,0.9,0.6l0.6,0.4
	l0.9,0.7l0.2,0.2l0.1,0.2c0,0,0.4,1,2.3,2.1c1.5,0.9,2.8,0.6,3.4,1.3c0.1,0.1,1.2,1.6,1.7,2.4c0.6,1,1.4,2.2,1.6,2.6
	c0.2,0.4,1.8,2.3,1.8,2.3l2.1,2.2l2.7,2.5l2.4,2.1l1.6,1.2c0,0,1.4,1.3,2.9,2.4c1.5,1,1.6,1.1,2.6,1.8c0.7,0.5,1.7,1.2,2.7,1.9
	c1,0.8,2.1,2.3,1.7,2.8c-0.3,0.2-0.9-0.6-1.9-1.6C75.4,96,75,95.6,74.1,95c-1.1-0.9-1.7-1.3-2.9-2.1c-0.6-0.4-1.7-1.1-1.8-0.9
	c-0.4,1.3-0.4,2.6-0.3,4.2c0.1,1.1,0.2,2.2,0.6,3.7c0.3,1.4,0.6,2.1,1.1,3.4s1.4,3.4,1.4,3.4l1.4,2.9l1.3,2.2l0.7,1.1l0.2,0.4
	c0,0,0.3,0.7,0,1.2s-0.7,1.6-1.2,1.6c-0.6,0.1-1.9,0.2-1.9,0.2l-7.4-0.1l-3.9-0.3c0,0-0.4-0.2-2.7-0.2c-1.3,0-2.4,0.6-3.1,0.6
	c-0.6,0.1-3.7-0.2-5.7,0.6c-1.9,0.8-2.8,1-3.5,2.2c-0.5,0.9,2.4,2.4,4.9,3c3.9,0.9,2.8-0.8,4.3-1.9c0.2-0.1,0.2-0.2,0.4-0.3
	c1-0.3,1.6,0.5,2.6,0.5c1.1,0,1.7-0.4,2.9-0.6c5.7-0.7,14.6,1.9,14.6,1.9s2.2,0.7,3.2,0.5c1.2-0.2,0.9-0.7,1.3-1.4
	c0.3-0.6,0.2-0.7,0.2-1.3c0-0.4-0.1-0.6-0.1-0.9c-0.2-1.1-0.9-2.6-0.9-2.6s-0.5-1.1-0.7-1.7c-0.2-0.8-0.5-1.3-0.6-2.2
	c-0.4-2.3-0.3-2.1-0.3-3.4c0-2.4,0.2-3.7,0.9-6c0.9-3.4,2.7-4.8,4-8.1c0.4-0.9,0.4-2.1,0.8-2.2c0.5-0.1,0.4,1.6,0.2,2.5
	c-0.8,3.2-2.8,4.6-3.7,7.9c-0.7,2.6-1.1,4.1-0.9,6.7c0.1,1.4,0.6,3.7,0.6,3.7s0.7,2.5,1.1,3.4s1.1,2.5,1.1,2.5l1.7,3l0.9,1.4
	c0,0,0.6,0.6,0.3,1.5c-0.3,0.9-0.9,1.5-1.7,2.3c-2.1,2.5-7.1,6.2-8.3,7.1c-1.7,1.3-1.7,1.7-1.8,2.1c-0.7,2-2.7,2.1-4.9,4.4
	c-0.5,0.5-1.8,1.9-1.6,3.1c0.1,0.4,5.5,1.4,8.6,0.1c2.4-1.1,0.3-2.2,1-3.4c0.5-0.9,1.7-0.9,2.3-1.6c0.9-1.2,0.3-1.2,1.1-2.2
	c2.7-3.2,4.4-5.1,9.2-8.1c0.4-0.2,1.2-0.6,1.2-0.6s0.7-0.3,0.9-0.7c0.3-0.5,0.2-0.9,0.2-1.5c0-0.4-0.1-0.6-0.1-0.9
	c0-0.4,0.1-0.7-0.1-1.1c-0.1-0.7-0.6-1.2-0.8-1.6c-0.2-0.3-0.7-0.9-0.9-2.1c-0.3-1.2-0.3-2.2,0.2-3.5s1.6-2.4,1.6-2.4l2.8-1.9
	c0,0,2.4-1.7,3.2-2.4c0.8-0.7,2.4-2.1,3.5-3.7c1.3-1.8,2-2.9,2.6-5.1c0.2-0.8,0.4-2.1,0.4-2.1s0-0.9,0.5-0.9s0.6,0.1,0.6,0.1
	s0.4,0.2,0.6,1.5c0.1,1.2-0.3,2.7-0.3,2.7s-0.4,1.4-0.5,2.3c-0.1,0.6-0.1,0.9-0.1,1.5c0,1.1,0.4,1.9,0.4,1.9s0.2,0.2,0.2-0.2
	c0-0.5,0.1-1.2,0.3-2c0.2-0.6,0.3-0.5,0.7-1.6c0.5-1.4,0.1-1.2,0.3-2.1c0.1-0.4,0.4-0.7,0.8-0.7s0.4,0.5,0.4,0.5s0.4,1.6,0.1,3.1
	s-1.4,3.6-1.4,3.6l-0.9,1.5c0,0-0.6,1.1-0.9,1.7c-0.2,0.7-0.3,1.1-0.2,1.7c0.2,0.7,0.7,1.7,1.1,1.6c0.2-0.2-0.4-0.8,0.4-2.3
	c0.7-1.5,1.7-2.4,1.7-2.4s1.4-1.6,2-2.9c0.6-1.1,1.1-2.9,1.1-2.9s0.4-1.6,0.3-3c-0.1-1.3-0.3-2-0.3-2l-0.6-1l-0.3-0.7l0.1-0.4
	c0.1-0.1,0.6,0.2,0.9,0.7c0.4,0.5,0.7,1.1,0.9,2c0.2,0.6,0.2,1.2,0.2,1.7s-0.2,2.6,0.6,3.9c0.3,0.6,1.1,2.1,1.1,1.4
	c0.1-1.4-0.5-2.1-0.4-3.4c0.1-1.5,0.4-1.1,0.6-1.9c0.1-0.8,0.3-1,0.2-2.1c-0.1-1-0.6-2.3-0.6-2.3l-0.4-1l-0.2-0.4
	c0,0,0.1-0.2,0.3-0.2l1.5-0.5c0,0,1.9-0.9,2.7-1.5c0.8-0.6,1.7-1.6,1.7-1.6s1.2-1.6,1.9-2.7c1.5-2.8,1.5-6.4,1.4-8s-0.5-3.6-0.5-3.6
	s-0.5-2.5-0.4-4.1s0.2-2.4,0.2-2.4s-0.1-1.6,1.3-3.4c1.4-1.7,2-2.9,2.2-4.2C126.1,63.2,125.7,61.4,125.2,62.1L125.2,62.1z
	 M83.8,50.8c-0.2,0-0.4-0.2-0.4-0.2s-0.1-0.1,0.1-0.2c0.2-0.1,0.4-0.1,0.4-0.1l0.2,0.1l0.3,0.4C84.4,51,84,50.9,83.8,50.8z
	 M84.6,48.8c-0.2-0.1-0.5-0.2-0.5-0.2s-0.1-0.1,0.1-0.2c0.2-0.1,0.5-0.1,0.5-0.1l0.2,0.1c0.1,0.1,0.4,0.4,0.4,0.5
	C85.2,49,84.8,48.8,84.6,48.8z M85.2,46.6c-0.2-0.1-0.6-0.3-0.6-0.3s-0.1-0.1,0.2-0.2C85,46,85.4,46,85.4,46l0.2,0.1
	c0.1,0.1,0.4,0.4,0.4,0.6C86.1,47,85.5,46.7,85.2,46.6z M85.8,44.7c-0.2-0.1-0.6-0.3-0.6-0.3s-0.1-0.1,0.2-0.2s0.6-0.1,0.6-0.1
	l0.2,0.1c0.1,0.1,0.4,0.4,0.4,0.6C86.6,45,86.1,44.7,85.8,44.7z M86.4,42.4c-0.3-0.1-0.7-0.4-0.7-0.4s-0.1-0.1,0.2-0.3
	c0.2-0.2,0.7-0.1,0.7-0.1l0.2,0.1c0.1,0.1,0.5,0.5,0.5,0.7C87.3,42.7,86.6,42.4,86.4,42.4z M86.7,39.9c-0.4-0.1-0.9-0.4-0.9-0.4
	s-0.1-0.2,0.2-0.4c0.3-0.2,0.8-0.1,0.8-0.1l0.3,0.2c0.1,0.1,0.6,0.6,0.6,0.9C87.9,40.3,87.1,40,86.7,39.9z M87,37.4
	c-0.4-0.1-1.1-0.6-1.1-0.6s-0.1-0.2,0.2-0.4c0.4-0.2,1-0.1,1-0.1s0.2,0.1,0.4,0.2c0.2,0.2,0.7,0.7,0.7,1.1S87.4,37.5,87,37.4z
	 M87.4,34.5c-0.5-0.1-1.2-0.6-1.2-0.6s-0.1-0.2,0.3-0.5s1.1-0.1,1.1-0.1s0.2,0.1,0.4,0.2c0.2,0.2,0.8,0.9,0.9,1.2
	C88.9,35.1,87.9,34.6,87.4,34.5z M87.1,22.9c-0.4-0.1-0.9-0.4-0.9-0.4s-0.1-0.1,0.2-0.3c0.4-0.2,0.9-0.1,0.9-0.1s0.2,0.1,0.3,0.2
	c0.1,0.1,0.6,0.6,0.6,0.8C88.3,23.3,87.5,23,87.1,22.9z M88.5,25.7c0.1,0.2-0.8-0.1-1.2-0.1c-0.4-0.1-0.9-0.5-0.9-0.5
	s-0.1-0.2,0.2-0.4c0.4-0.2,0.9-0.1,0.9-0.1s0.2,0.1,0.4,0.2C88,25,88.4,25.5,88.5,25.7z M86.7,30.3c0.4-0.2,1-0.1,1-0.1
	s0.2,0.1,0.4,0.2c0.2,0.2,0.7,0.7,0.7,1.1c0.1,0.3-0.9-0.1-1.3-0.2s-1.1-0.6-1.1-0.6S86.3,30.6,86.7,30.3z M87.5,28.2
	c-0.4-0.1-1.1-0.6-1.1-0.6s-0.1-0.2,0.2-0.4s1-0.1,1-0.1s0.2,0.1,0.4,0.2c0.2,0.2,0.7,0.7,0.7,1.1C88.9,28.7,87.9,28.3,87.5,28.2z
	 M88.3,18.8c0.5,0.1,0.6,0.4,0.4,0.4c-0.2,0.1-0.4,0.1-0.6,0.1c-0.6,0-0.5-0.2-1.2,0.1c-0.7,0.4-0.2,0.2-1.2,0.6S85,19.4,85,19.4
	s0.1-0.2,0.2-0.7s0.7,0,1.2,0C87.1,18.7,87.7,18.7,88.3,18.8z M85.5,15l0.3,0.2c0.1,0.1,0.6,0.6,0.6,0.9c0,0.3-0.7-0.1-1.1-0.1
	c-0.4-0.1-0.9-0.4-0.9-0.4s-0.1-0.2,0.2-0.4C85.1,14.8,85.5,15,85.5,15z M83.2,12c0.3-0.2,0.8-0.1,0.8-0.1l0.3,0.2
	c0.1,0.1,0.6,0.6,0.6,0.9c0.1,0.2-0.7-0.1-1.1-0.1c-0.4-0.1-0.9-0.4-0.9-0.4S82.9,12.1,83.2,12z M82.6,52.5c0.2-0.1,0.4-0.1,0.4-0.1
	l0.2,0.1l0.3,0.4c0,0.1-0.4-0.1-0.6-0.1s-0.4-0.2-0.4-0.2S82.4,52.5,82.6,52.5z M57.6,22.7c-0.2,0.1-0.3,0.2-0.6,0.4
	c-0.3,0.2-0.6,0.9-0.8,0.7c-0.2-0.2-0.1-0.9-0.1-0.9s0.2-0.5,0.4-1c0.3-0.5,0.7-0.5,0.7-0.5c0.4,0,1.1,0.2,1.1,0.8
	C58.3,22.8,57.9,22.5,57.6,22.7z M62.7,24.6c0,0-0.2,0.1-0.3-0.4s0.3-0.5,0.3-0.5s0.7-0.4,0.7,0.1C63.5,24.3,62.7,24.6,62.7,24.6z
	 M69.4,16.1c0,0-0.8,1.3-1.9,1.8s-1.9,0.7-4,0.9c-0.3,0-0.2-0.2-0.2-0.2s2.4-0.7,3.8-1.4c0.7-0.4,1.6-1,1.9-1.2
	C69.8,15.3,69.4,16.1,69.4,16.1z M27.4,70.3c0,0.3-0.4,0.9-0.5,0.9s-0.4-0.6-0.3-0.9s0.1-1.2,0.6-1.1C27.6,69.3,27.4,70,27.4,70.3z
	 M29,63.2c0,0-0.6,1.2-0.7,0.7c-0.2-0.4,0.2-1.2,0.2-1.2c0.5-0.4,0.7-1.1,0.9-0.8C29.6,62.1,29,63.2,29,63.2z M36.7,51
	c-0.6,0.6-2.3,3.9-2.7,3.4c-0.4-0.4,1.7-3.6,2.1-4.2c0.4-0.7,0.8-0.6,0.8-0.6l0.1,0.1C37.1,49.8,37.3,50.4,36.7,51z M41.4,46.1
	c0,0-1.2,0.2-1.1-0.2c0.2-0.4,1.1-0.6,1.1-0.6c0.7,0.1,0.8,0.2,0.7,0.5C42.3,46.1,41.4,46.1,41.4,46.1z M46.5,54.8
	c-0.6,0.6-0.7-0.2-1.6-1.1c-0.8-0.9-0.6-1.6-0.6-1.6h0.1l0.1,0.1l0.3,0.1l0.2,0.2l0.6,0.6C45.9,53.5,46.6,54.7,46.5,54.8z
	 M36.8,73.5c-0.2,0-0.4-0.4-0.4-0.4s-0.5-0.7-0.7-1.3c-0.2-0.5-0.2-1.3-0.2-1.3s-0.1-1.1-0.1-1.4c0.1-0.5,0.1-0.9,0.1-1.2
	s0.3-0.2,0.3-0.2c0.4,0,0.4,0.3,0.4,0.3v0.2c0,0,0,1.1,0.1,2c0,0.2,0.7,3.1,0.7,3.1S37.1,73.5,36.8,73.5z M36.7,60.4
	c-0.4,0.7-0.7,0.7-0.7,0.7c0-0.1-0.1-0.3,0.2-1.1c0.4-0.7,0.7-0.7,0.7-0.7l0.1,0.1C37.1,59.5,37.1,59.7,36.7,60.4z M41.1,86.6
	C41.2,86.4,42,87,42,87c0.3,0.1,0.6,0.6,0.6,0.6s0.1,0.4-0.2,0.6C42,88.4,41.8,88,41.8,88S41,86.8,41.1,86.6z M47,67.5
	c-0.9-0.2-2.7-1.6-3.5-2c-0.7-0.4-2-0.5-1.4-1c0.1-0.1,0.1-0.2,0.2-0.2s0.7,0.2,0.7,0.2l1.4,0.6c0.1,0,0.7,0.3,1.3,0.6
	c0.5,0.3,1.4,0.9,1.4,0.9l0.4,0.3C47.4,67,47.9,67.6,47,67.5z M54.6,55c0,0-1.1,1.4-1.7,2.3c-0.8,1.2-1.8,3-2,2.8s0.9-2.2,1.4-3.2
	c0.6-1.3,1.6-2,1.9-2.1C55.1,54.4,54.6,55,54.6,55z M51.2,117.6c0,0,0,0.2-0.4,0.6s-0.6,0.1-0.7,0.1c-0.1,0-0.5-0.2-0.5-0.5
	c0.1-0.2,0.7-0.4,0.7-0.4C51.6,117.3,51.2,117.6,51.2,117.6L51.2,117.6z M60.9,117.2c-0.4-0.1-0.5-0.2-0.4-0.2
	c0-0.1,0.1-0.2,0.6-0.2s0.5,0.2,0.5,0.2C61.6,117.2,61.4,117.3,60.9,117.2z M72.1,117.8c-0.9,0.2-1.3,0.1-2.1,0.2
	c-0.7,0.1-1,0.1-1.7,0.1c-1.2,0-1.3,0.1-3-0.4c-0.3-0.1-0.7-0.5-0.6-0.6c0.1-0.2,0.4-0.1,0.4-0.1s2.1,0.4,3.5,0.4
	c1,0.1,1.5,0.1,2.5,0.1c0.6,0,0.2-0.1,1.1-0.1C72.5,117.3,72.3,117.8,72.1,117.8z M78,116.1c-0.1,0.1-0.4,0.2-0.7,0.2
	c-0.4,0.1-0.2-0.2-0.2-0.2s0.2-0.4,0.6-0.6s0.6,0,0.6,0C78.3,115.8,78.1,116,78,116.1z M82.6,104.1c-0.4,0.9-0.6,1.2-0.6,2.1
	c-0.1,0.9,0.4,3.6-0.4,2.6c-0.3-0.4-0.6-2.5-0.4-3.5C81.6,103,83.4,102.4,82.6,104.1z M70,142.3c-0.4,0.2,0.4,1-0.8,0.9
	c-0.7-0.1-0.3-0.7-0.2-0.7l0.4-0.6c0.3-0.4,0.5-0.5,0.8-0.7s0.6,0.3,0.6,0.3s0.1,0.2,0.1,0.4C70.9,142.1,70.3,142,70,142.3z
	 M76.6,135.9l-0.6,0.4c-0.1,0-0.4,0.3-0.6,0.1c-0.1-0.2,0.1-0.4,0.1-0.5s0.4-0.5,0.7-0.6c0.3-0.2,0.5,0,0.5,0
	C76.9,135.8,76.6,135.9,76.6,135.9L76.6,135.9z M79.5,26.5c0,0-0.2,0.8-0.7,1c-0.6,0.2-3,0.2-3.1,0.1c-0.1-0.2,2.7-0.4,3.8-1.5
	C79.7,25.8,79.5,26.5,79.5,26.5z M78.6,24.4c0.2-0.3,0.1,0.5,0.1,0.5s-0.2,0.8-0.6,1.1c-0.6,0.3-1.9,0.7-2.1,0.5
	C76,26.3,77.8,25.8,78.6,24.4z M74.7,15c0,0,0.2,0,0.6,0.2s0.6,1,0.6,1s0.1,0.1-0.2,0.1c-0.2,0-0.2-0.3-0.4-0.4
	c-0.2-0.2-0.4-0.2-0.7-0.4c-0.3-0.1-0.7,0.1-0.8-0.2C73.8,14.9,74.7,15,74.7,15z M71.9,17.1c0,0,0.1-0.4,0.7-0.7
	c0.5-0.3,1.2-0.3,1.2-0.3s0.4,0,0.8,0.3s0.8,1.4,0.8,1.4s0.1,0.7-0.2,0.9c-0.3,0.2-0.8-0.2-1.1-0.6c-0.3-0.4-0.5-0.5-0.9-0.6
	c-0.5-0.2-1.2,0.4-1.4,0C71.8,17.4,71.9,17.1,71.9,17.1z M71.7,25.7c-0.4,0.1-0.1-0.3-0.1-0.3s1.1-0.4,1.7-0.8
	c1.1-0.6,3.2-2.8,2.7-1.7c-0.2,0.5-1,1.1-1,1.1s-0.9,1.2-1.1,1.4C73.1,26,72.1,25.6,71.7,25.7L71.7,25.7z M62.9,50L62.9,50
	c0.1-0.1,2-1.3,4.9-1c1.7,0.2,3.4,1.8,3.2,2c-0.2,0.2-0.6,0-0.7,0l-0.6-0.3l-0.9-0.2c0,0-1.7-0.4-2.9-0.3c-1.2,0.1-2.4,0.5-2.4,0.5
	s-0.5,0.2-0.6-0.1C62.6,50.1,62.9,50,62.9,50z M67.5,85.1c-4.3-3.3-9.6-10.1-8.9-10.7c0.6-0.5,2.7,2.6,5.9,6.1
	c3.4,3.6,7.3,7.1,7.4,7.5C72.1,88.8,69.1,86.4,67.5,85.1L67.5,85.1z M77.3,38.5C75.5,41.6,73,44,73,44c-0.9,0.6-0.3-0.5-0.3-0.5
	s2.4-3.4,3.6-5.7c0.8-1.7,1.3-3.9,1.7-4.4C78.8,32.3,78.4,36.6,77.3,38.5z M82.3,72.7c-1.9-2.2-3.2-4.7-3.7-7.7
	c-0.1-0.7-0.1-1.7,0.5-1.6c0.6,0.1,0.5,1.1,0.5,1.4c0.2,1.8,0.9,3.6,2.3,5.8c1.9,3.1,5.1,5.4,4.9,5.6C86.6,76.5,83.4,74.1,82.3,72.7
	z M82.9,131.1c-1.1,1-2.9,2.4-2.9,2.4h-0.2v-0.3l0.1-0.1l0.1-0.2l0.1-0.2l0.1-0.2l0.4-0.4l0.9-0.8l0.9-0.8l1.4-1.4
	c0,0,0.5-0.6,0.7-0.7c0.2-0.1,0.3-0.2,0.5-0.4c0.2-0.1,0.6-0.3,0.7-0.2v0.2C85.6,128.3,84,130.1,82.9,131.1L82.9,131.1z M86.7,84.9
	c-0.8,0.6-1.1,0.5-1.6,1.1c-0.6,0.7-0.7,3-1.3,2.1s-0.2-2.2,0.7-3.2C85.7,83.4,88.1,83.9,86.7,84.9z M89.7,126
	c0.4-0.1,0.6-0.1,0.6-0.1l0.1,0.2c0,0.1-0.5,0.7-0.7,0.7c-0.3-0.1-0.2-0.4-0.2-0.4S89.3,126.1,89.7,126L89.7,126z M100.4,100.6
	c-0.6-0.4,0.3-1.5,0.3-2.4c0-0.7-0.1-1.3-0.1-1.9s0.6-0.8,0.6-0.8c0.1,0,0.4,0.1,0.7,0.7C102.2,96.8,101.4,101.2,100.4,100.6z
	 M119.5,82.7c-0.1,2.6-0.2,4.5-1.8,6.5c-1.9,2.4-5.1,4.9-4.4,2.9c0.4-1.2,3.3-2.7,4.4-6c0.6-2,0.7-3.9,0.7-3.9l-0.1-3.8
	c0,0-0.1-0.3-0.1-0.7c0.2-0.5,0.4-0.1,0.4-0.1l0.1,0.2C118.8,77.9,119.6,80.8,119.5,82.7z"/>
</svg>
