<?xml version="1.0" encoding="utf-8"?>
<!-- Generator: Adobe Illustrator 27.1.0, SVG Export Plug-In . SVG Version: 6.00 Build 0)  -->
<svg version="1.1" id="a" xmlns="http://www.w3.org/2000/svg" xmlns:xlink="http://www.w3.org/1999/xlink" x="0px" y="0px"
	 viewBox="0 0 126.7 48.1" style="enable-background:new 0 0 126.7 48.1;" xml:space="preserve">
<style type="text/css">
	.st0{fill-rule:evenodd;clip-rule:evenodd;fill:#FFFFFF;}
</style>
<path class="st0" d="M88.8,30.8c1.6,1.4,3.6,2.3,5.7,2.4l3.3,0.2c2.4,0.2,3,1.3,3,1.3c2.1,3.7,7.4,5.8,7.4,5.8
	c-2.4-1.6-4.4-3.8-5.8-6.3c-1.6-2.4-5.5-2.4-5.5-2.4h-2.3C92.6,31.9,90.6,31.5,88.8,30.8C88.7,30.8,88.7,30.8,88.8,30.8z M29.5,11.1
	c-2.7,3.8-0.6,6.5-0.6,6.5c-7.3-0.2-9.4,1.8-9.4,1.8c-3.5,2.8-2.3,6-2.3,6c2,3.2,4.4,1,4.4,1c-3.4,0.7-3.3-2.3-3.3-2.3
	c0.7-5.2,7.5-5,7.5-5c5,0.2,9.9,0.8,14.8,1.6c-6.8-1.6-8.9-3.3-8.9-3.3C29,15.7,29.5,11.1,29.5,11.1C29.5,11.1,29.5,11.1,29.5,11.1z
	 M7.8,16.6c0.9-0.1,1.7-0.5,2.3-1.2c1.8-1.8,4.1-2.9,6.6-3.1c5-0.3,11,4.5,11,4.5c-4.3-5.7-8.8-6.1-8.8-6.1
	c-0.7-0.2-1.3-0.7-1.6-1.3c-1.4-2.6-3-2.8-3-2.8c0.5,0.8,0.8,1.7,0.7,2.6c0,2.8-4.1,3.2-4.1,3.2c-1.6,3.3-3,3.1-3,3.1
	c-0.4,0-0.7-0.1-0.9-0.4C6.7,14.7,7,14.5,7,14.5c0.3-0.2,0.6-0.4,0.9-0.7c1.6-1,2.6-2.7,2.9-4.6c0-1.5-1.2-2.8-2.8-2.9
	C7.4,6.3,6.8,6.5,6.4,7C5.9,7.8,5.3,8.6,4.9,9.5c-0.8,1.3-1.6,1.2-1.6,1.2c-0.6,0-1.2-0.3-1.6-0.8L1.6,9.7C1.4,9.4,1.4,9.1,1.5,8.8
	c0.8-1.1,2-1.8,3.3-2.1L5,6.6l0.4-0.1l0,0c2.9-1,3.2-2.6,3.2-2.6C8,3.6,7.4,3.4,6.7,3.4c-1.1,0.1-2,0.8-2.4,1.9L3.9,4.9
	c0,0-0.2-0.2,0.1-0.5c0,0,1.3-1.6,6.2-2.4c3-0.4,6.1-0.4,9.2,0c0,0-3.2,3.3-7.1,1.9c0,0-0.1,1.2,3.3,1.9c0,0,3.5,0.4,8,4.7
	c-1.2-2.2-3-4.1-5-5.5c-0.1-0.1-0.2-0.2-0.1-0.4c0,0,0-0.1,0.1-0.1c1-1.1,2.4-1.8,3.9-2c0,0,11.5,0.6,18,7.4c-0.2-1-0.7-1.9-1.2-2.8
	c0,0-0.2-0.2-0.1-0.3s0.1-0.3,1.2,0c4.7,1,9.2,2.4,13.7,4.1l10.3,3.7c0,0,3.6,1.3,5.6,2.2c0,0-4-0.1-6.2,1c0,0-0.1,0,0,0.1
	s0,0.1,0.2,0c2.2-0.5,4.6-0.3,6.7,0.5c2.1,0.9,4.1,2.1,5.9,3.5c1,0.9,2,1.9,2.9,2.9c1.8,1.6,3.7,3,5.8,4.3l-4.6-4.6
	c0,0-3-3.5-4.3-4.7c0,0,10.2,4.8,19.4,10c1.7,0.9,7,4,7,4c3.3,2,6.7,3.8,10.2,5.2c2.7,1.2,5.8,1.2,8.5-0.1l0.2-0.1
	c2.4-1.3,3-0.9,3-0.9c0.7,0.3,1.1,1,0.9,1.7c1.1-1.1,1-1.7,1-1.7c0-1.9-2.1-1.7-2.1-1.7c-1.2,0.4-2.4,1-3.4,1.7l-0.3,0.2
	c-3,1.6-7.2,0.1-7.2,0.1c-3.6-1.5-7-3.2-10.3-5.2c0,0-9.5-5.6-17.6-9.7c0,0-10.2-5.3-23.8-11.2C62,12.1,36,0,16.8,0
	c0,0-9.9-0.1-13.3,3.7C3.2,4,3.2,4.4,3.2,4.8c0,0.1,0,0.2-0.1,0.3c-1,0.7-1.9,1.5-2.7,2.4C0,8-0.1,8.6,0.3,9.1c0,0,0.4,0.7,0.8,1.2
	l0,0c0.6,0.8,1.7,1.3,2.7,1.3c0.2,0,0.4,0,0.6,0.1c0.2,0.2,0.5,0.4,0.8,0.5h0.7c0,0,0.1,0,0.2-0.2c0-0.2-0.1-0.4-0.1-0.6
	c-0.3-0.3-0.3-0.8-0.2-1.2C5.9,9.5,6.2,9,6.6,8.4C7.1,8,7.7,8,8.2,8.4c0.9,0.7,1.2,2,0.8,3.1c0,0-0.7,1.2-1.4,1.2
	c-0.3,0-0.6,0-0.7-0.2H6.2c0,0-0.2,0-0.2,0.1V13c0,0.1,0,0.2,0.1,0.3c0.1,0.2,0.1,0.4,0,0.5c-0.3,0.3-0.4,0.7-0.2,1
	C6,14.9,6.4,16.6,7.8,16.6C7.8,16.6,7.8,16.6,7.8,16.6z M7.2,4.4c-0.4,0.7-1.2,1-2,1c0.2-0.8,1-1.2,1.8-1H7.2z M3.5,5.7
	C4,5.5,4.1,5.8,4.1,5.8c0,0.2-0.2,0.3-0.2,0.3C3,6.7,2.2,7.4,1.5,8.1C1.2,8.3,1.2,8.2,1.2,8.2C1,8,1.2,7.7,1.2,7.7
	C1.8,7,2.6,6.3,3.5,5.7L3.5,5.7z M52,26.5c3.9,0.2,7.9,0.2,11.8,0c0.9-0.1,1.8,0,2.7,0.2c3.3,0.5,3.8,2,3.8,2s5.8,12,17.3,11.7H93
	c4.8,0,11.4,4.8,11.4,4.8c-1.3-1-4.1-3.6-4.1-3.6c-3.5-3.1-9.1-3.1-9.1-3.1h-5.7c-6.2,0-11.8-4-13.7-9.9c-0.8-1.8-2.7-2.9-4.7-2.9
	h-0.7c-10.7,0.5-14.2-0.3-14.2-0.3c-2.5-0.7-4.8-1.6-7-2.8c0.3-1.5,0.1-3-0.5-4.5c2.4,0.9,5,1.2,7.5,0.7c-3.5-0.9-6.9-2.4-9.9-4.4
	c0,0,2,5.7,0.3,7.8c0,0-1.1,3.9-10.9,0.7c-2.3-0.9-4.8-1.4-7.3-1.6c0,0-2.5,0.1-2.5,1.4c0,0.4,0.3,0.7,0.6,0.9
	c0.5,0.4,0.6,1.1,0.3,1.6c0.6-0.4,0.8-1.1,0.7-1.8c0,0-0.1-0.6,0.4-0.7c0,0,1.3-0.6,5.2,0.8c0,0,6.2,2.8,9.7,2.8
	c0,0,3.8-0.2,5.2-1.9c2.5,0.9,5.1,1.5,7.8,1.8L52,26.5L52,26.5L52,26.5z M17.6,2.3c0,0-3.3,0.4-4.9,0.4c0,0-0.3,0-0.3,0.3
	c0,0,0.1,0.4,0.8,0.4C14.8,3.4,16.2,3,17.6,2.3C17.6,2.3,17.6,2.3,17.6,2.3z M113.2,42c-1.2-0.5-2.6-0.8-3.9-1c1,0.3,2,0.8,2.8,1.4
	c0.9,0.6,1.1,1.8,0.5,2.6l0,0c-1.3,2.4-6.6,1.2-6.6,1.2c5.6,3.7,7.9,0.9,7.9,0.9c1.4-1.7,1.1-2.6,0.7-3.6c0,0,5.1,1.6,10.3-3.2
	C125.1,40.4,119.5,44.9,113.2,42C113.3,42,113.3,42,113.2,42z"/>
</svg>
