<?xml version="1.0" encoding="utf-8"?>
<!-- Generator: Adobe Illustrator 27.1.0, SVG Export Plug-In . SVG Version: 6.00 Build 0)  -->
<svg version="1.1" id="Capa_1" xmlns="http://www.w3.org/2000/svg" xmlns:xlink="http://www.w3.org/1999/xlink" x="0px" y="0px"
	 viewBox="0 0 150 150" style="enable-background:new 0 0 150 150;" xml:space="preserve">
<style type="text/css">
	.st0{fill:#FFFFFF;}
</style>
<path class="st0" d="M109.3,26.5l-3.2,4.9c21.7,9,30.4,25.3,30.4,42.8c0,8.8-2.4,16.7-6.9,16.7c-15,0-47.2,0-56.8,0
	c-7.7,0-10-2.8-6.6-9.8C72.4,68.7,91,45,102.5,30.8c1.7-2.1,3.1-5.4-3-7c-6.2-1.6-16.1-2.4-24.5-2.4C32.2,21.5,2.4,44.8,2.4,75
	c0,27.7,25.8,53.6,72.4,53.6c20.6,0,45.9-5.9,60.1-22.3h-12.3c-14,12.8-32.1,15.7-47.7,15.7c-37.6,0-61.3-19.8-61.3-47
	c0-25.2,26.9-47.7,60.8-47.7c4.1,0,5.5,0.9,1.1,6.3C66.8,44.5,51.3,66.2,44,78.8c-7.8,13.5,0.1,24.5,17.7,24.5c12.4,0,56.9,0,71.1,0
	c4.3,0,6.9-2.5,9.4-7.1c2.1-3.6,5.2-11.1,5.2-21.2C147.6,54.6,132.4,35.8,109.3,26.5z"/>
</svg>
