<?xml version="1.0" encoding="utf-8"?>
<!-- Generator: Adobe Illustrator 27.1.0, SVG Export Plug-In . SVG Version: 6.00 Build 0)  -->
<svg version="1.1" id="Capa_1" xmlns="http://www.w3.org/2000/svg" xmlns:xlink="http://www.w3.org/1999/xlink" x="0px" y="0px"
	 viewBox="0 0 150 150" style="enable-background:new 0 0 150 150;" xml:space="preserve">
<style type="text/css">
	.st0{fill:#FFFFFF;}
</style>
<path class="st0" d="M148.7,80.4l-14-0.8H133v-4.7c-0.1-32.1-26.2-58.1-58.3-58.1c-27,0-50.4,18.7-56.6,45H5.5
	c-0.7,0-1.3,0.3-1.7,0.8l-3.4,4.7C0.2,67.5,0,67.8,0,68.1c0,0.7,0.6,1.2,1.3,1.3l14,0.8H17v4.7c-0.1,32.1,25.9,58.3,58,58.3
	c27.2,0.1,50.8-18.7,56.9-45.2h12.6c0.7,0,1.3-0.3,1.7-0.8l3.4-4.7c0.2-0.2,0.4-0.5,0.4-0.8c0.1-0.6-0.4-1.2-1-1.3
	C148.9,80.3,148.8,80.3,148.7,80.4z M75.3,22.9c28.4,0.1,51.4,23.1,51.5,51.6v4.2l0,0l-43.1-2.5l18.6-12.7c0.4,0,0.4-0.4,0.4-0.9
	s-0.4-0.8-0.8-0.8H25.8C31.3,38.9,51.7,22.9,75.3,22.9L75.3,22.9z M75.3,126c-28.4-0.1-51.5-23.1-51.6-51.5v-4.2l43.1,2.5L48.2,85.4
	c-0.4,0-0.4,0.4-0.4,0.8c0,0.5,0.4,0.8,0.9,0.9h76C119,109.9,98.7,125.9,75.3,126L75.3,126z"/>
</svg>
