<?xml version="1.0" encoding="utf-8"?>
<!-- Generator: Adobe Illustrator 27.1.0, SVG Export Plug-In . SVG Version: 6.00 Build 0)  -->
<svg version="1.1" id="Capa_1" xmlns="http://www.w3.org/2000/svg" xmlns:xlink="http://www.w3.org/1999/xlink" x="0px" y="0px"
	 viewBox="0 0 2273 2500" style="enable-background:new 0 0 2273 2500;" xml:space="preserve">
<style type="text/css">
	.st0{fill:#FFFFFF;}
</style>
<path class="st0" d="M2196.1,167.9c-1.8-2-7.1-4.3-12.4-5c-5.1-0.8-18.7-3-30.5-4.8c-50-8.6-141.4-22-204.5-30.3
	c-15.9-2.3-38.6-5.3-50.5-6.8c-11.9-1.8-31.1-3.8-42.9-4.8c-11.9-1-31-3-42.9-4.5c-121.2-15.9-351.1-31.3-533.9-35.9
	c-146.9-3.8-304-1.8-431.7,5.3c-29,1.5-71.2,3.8-93.4,4.8c-41.9,2-91.4,5.8-138.8,10.3c-15.1,1.5-40.1,3.8-55.5,4.8
	c-15.1,1.3-39.1,3.3-53,5.1c-13.9,1.5-40.7,4.5-59.3,6.6c-18.7,2-43.2,4.8-54.3,6.3c-11.1,1.5-29.3,3.8-40.4,4.8
	c-26.8,2.8-58.3,7.1-83.3,11.6c-11.1,2-23.5,3.5-27.5,3.5s-17.7,1.8-30.3,3.8c-12.6,2.3-33.8,5.8-47,7.8s-30.3,4.8-37.9,6.3
	c-7.6,1.5-21.7,3.5-31,4.8c-9.6,1-18.7,3.3-20.2,4.8c-1.8,1.8-4,29.5-6.1,75.5c-4,88.3-3,420.3,1.5,489c4,61.1,9.6,127,14.1,165.3
	c2.3,17.4,3.8,34.8,3.8,38.9c0,4,1.8,17.2,3.5,29c4.8,28.3,9.1,55.5,11.6,76c2,15.6,3.8,24.7,11.6,64.9c12.6,64.4,21.2,104,30,135.8
	c1.8,6.8,5.3,19.9,7.6,29c2.3,9.1,5.8,20.9,7.8,26.5c2,5.8,3.5,12.1,3.5,14.4c0,2.5,1.5,8.1,3.5,12.6c1.8,4.5,5.3,15.1,7.8,23.5
	c2.3,8.3,5.8,19.2,7.6,24c7.3,20.7,9.3,27,11.4,34.1c1.3,4,4.6,13.9,7.6,21.5c8.6,22,12.9,33.6,14.9,40.6c1.3,3.5,3.3,8.6,4.8,11.4
	c1.5,2.5,8.6,18.9,15.7,36.3c18.7,44.9,47.7,105.5,66.9,140.1c4.8,8.3,10.4,18.4,12.4,22.7c2,4,7.3,13.1,11.4,20.2
	c4.3,6.8,8.8,14.9,10.3,17.7c1.5,2.8,4.8,8.3,7.6,12.6c2.8,4,6.1,9.8,7.6,12.6c3.8,7.3,7.6,13.1,18.9,30.3
	c5.6,8.3,11.1,17.2,12.6,19.4c8.6,14.4,57.3,82.3,74,103c29.8,37.4,38.9,48.2,60.1,73.2c55,63.9,120.4,129,188.1,186.8
	c25.8,22,68.9,56.8,94.2,75.7c20.2,15.4,73.2,52.5,84.3,59.3c2.3,1.5,11.1,7.1,19.4,12.6s17.2,11.1,19.4,12.6
	c2.3,1.3,16.4,9.9,31.5,18.9c31.3,18.9,32.3,19.4,46.7,27.5c6,3.3,17.2,9.3,24.7,13.6c13.6,7.6,56.5,29,88.3,44.4
	c9.1,4.3,17.9,7.8,19.7,7.8c1.5,0,9.6-3.3,17.4-7.3c84.1-41.9,106-53.3,118.1-61.1c4.3-2.5,9.3-5.6,11.4-6.6s18.9-10.9,37.4-22
	c18.4-11.4,35.6-21.7,37.9-23c2.3-1.5,12.6-8.3,22.7-15.2c10.4-7.1,20.4-13.9,22.5-15.1c3.5-2,24.5-16.7,48.5-33.6
	c9.6-7.1,52-39.1,53.3-40.9c0.8-0.8,6.3-5.3,12.6-10.1c20.4-15.9,81.8-68.7,100.7-86.9c51.5-49.5,105.8-105.8,131.8-136.6
	c4.8-5.6,9.8-11.4,11.1-12.9c17.4-18.9,82.1-102.5,99.7-128.5c37.1-55,54-81.3,60.6-93.4c1.5-2.8,4.8-8.6,7.6-12.6
	c2.8-4.3,5.8-9.3,6.8-11.4c0.8-2,4-7.8,7.1-12.6c9.6-15.4,26.8-48,44.4-83.3c25.2-51.5,47.7-99.7,47.7-103.2c0-1.3,1.5-5.6,3.5-9.6
	c3.5-6.8,16.4-38.4,23-56.3c1.8-4.8,4.8-13.4,6.8-18.9c9.1-24.7,29.3-86.8,38.4-117.4c15.6-54.3,27.5-101.7,38.1-152.7
	c2.3-11.1,5.8-26.8,7.8-34.6c2-8.1,3.5-17.2,3.5-20.2c0-3.3,1.5-13.9,3.5-23.5c3.5-16.1,5.8-30.8,14.1-84.6
	c1.8-10.3,4-27.5,5.1-37.9c1-10.4,3.3-28.5,4.6-40.4c5.6-42.7,10.6-94.9,10.6-108.5c0-7.6,1.8-31.1,3.8-51.8
	C2205.5,670.5,2204.5,178,2196.1,167.9z M2158.8,716.9c-6.8,121.9-20.9,252.2-36.1,333.2c-1.5,7.6-3.5,20.7-4.8,29
	c-1,8.3-3.3,20.2-4.5,26.5c-1.5,6.3-4.5,20.4-6.8,31.6c-6.6,30.8-11.4,51.8-15.4,65.9c-2,7.1-3.5,14.9-3.5,17.4
	c0,2.3-1.5,9.6-3.5,16.2c-2,6.3-5.6,18.4-7.8,26.8c-4,14.6-5.6,20.2-15.1,53c-2.5,8.3-5.8,19.2-7.6,24c-1.8,4.8-5.6,16.2-8.6,25.2
	c-6.1,19.2-9.6,30.3-14.9,44.2c-2,5.6-5.1,14.1-6.8,18.9c-6.6,17.9-19.4,49.5-23,56.3c-2,4-3.5,8.3-3.5,9.6c0,2-5.3,13.9-23.2,52.8
	c-14.6,31.3-50,100.7-57.6,113.6c-1.3,2-13.4,22.5-27,45.2c-30.5,51-27,45.2-44.9,72.2c-15.6,23.5-80.5,111.6-85.6,116.1
	c-1.5,1.3-10.1,11.6-18.9,22.7c-9.1,11.1-18.2,22-20.2,24.2c-2.3,2.3-13.6,14.6-25.2,27.8c-27.5,30.3-93.2,96.2-123.7,123.7
	c-13.1,11.6-25,22.2-26.5,23.7c-1.5,1.3-10.9,9.1-20.5,17.2c-9.8,8.3-20.5,17.2-24,20.2c-30.5,26-152,112.8-169.4,121.4
	c-2,0.8-6.6,3.5-10.3,6.1c-5.6,3.5-35.6,21.7-52.8,32.1c-34.1,20.2-126.2,66.9-131.8,66.9c-6.3,0-73.2-33.6-114.1-57.1
	c-8.3-4.8-17.4-9.9-20.2-11.1c-2.8-1.5-8.3-4.8-12.6-7.6c-4-2.8-9.8-6.1-12.6-7.6c-2.8-1.5-8.3-4.8-12.6-7.6
	c-4-2.8-9.3-5.8-11.4-6.8c-2-1-10.9-6.6-19.7-12.6c-8.8-6.1-16.4-10.9-16.9-10.9c-0.5,0-8.3-5-17.4-11.4
	c-9.1-6.3-24.2-16.7-33.6-23.2c-9.6-6.3-30.3-21.7-46.2-34.1c-84.1-64.4-111.3-88.4-183-159.8c-45.2-45.4-62.1-63.1-82-87.1
	c-7.6-8.8-16.4-19.2-19.7-22.7c-3.3-3.5-12.9-15.4-21.5-26.5c-8.6-11.1-16.7-21.5-18.2-23c-6.1-6.1-57.3-76.2-63.1-86.3
	c-1.5-2.3-10.1-15.7-19.2-29.5c-9.1-13.9-19.7-30.3-23.5-36.6c-3.8-6.3-7.8-13.1-9.1-15.1c-4.3-6.6-24.2-41.4-26-45.4
	c-1-2-5.8-11.1-10.9-20.2c-24.2-44.7-50.8-100-70.4-147.7c-5-12.6-10.3-25-11.9-27.5c-1.5-2.8-3.5-7.8-4.8-11.4
	c-2-7.1-6.3-18.7-14.9-40.6c-3-7.6-6.3-17.4-7.6-21.5c-2-7.1-4-13.4-11.4-34.1c-1.8-4.8-5.3-15.7-7.6-24c-2.5-8.3-6.1-19.7-7.6-25.2
	c-11.9-37.6-29.3-105.3-37.9-146.4c-2.3-11.1-5.8-27.5-7.6-36.6c-11.6-55.3-34.3-200.2-34.1-218.4c0-4.3-1.5-21.7-3.8-39.1
	c-5-43.4-10.9-127.2-13.9-205.8c-3.3-84.1-2.8-286.3,1-383.5l2.8-75.5l24-4.5c23.2-4.3,49.2-8.6,100.2-15.9
	c13.6-2,33.3-5.1,43.7-6.6c10.3-1.8,24-3.5,30.3-4c6.3-0.8,23.2-2.8,37.9-4.8c53.5-7.3,69.9-9.1,95.9-11.4
	c14.6-1.3,32.6-3.5,40.1-5.1c7.3-1.3,19.9-2.5,27.8-2.5c7.8,0,25-1.8,38.1-3.8s31.3-3.8,40.4-3.8c9.1,0,30-1.8,46.7-3.8
	c16.4-2,39.1-3.8,50.5-3.8c11.1-0.2,28.8-1.3,39.1-2.5c10.3-1.3,46.7-3.8,80.8-5.3c34.1-1.3,75.5-3.5,92.1-4.6
	c46.5-3.3,461.2-1.5,520,2c123,7.3,174.2,10.9,209.5,14.1c21,2,42.9,3.8,49.2,3.8s27.3,1.8,46.7,3.8c19.4,2.3,50.2,5.6,68.2,7.6
	c57.8,6.3,102.7,11.6,130.8,15.4c113.8,15.1,162.6,22.5,208.8,30.8l24,4.5l2.3,22.5C2162.8,260.8,2162.6,652.1,2158.8,716.9z"/>
<path class="st0" d="M2003.3,349.9c-1.8,0.8-13.4-0.5-25.8-2.5c-27.8-4.8-50.7-5.8-54-2.5c-1.3,1.3-2.8,27.5-3,60.3l-0.8,58.1
	l-8.3,0.8c-15.4,1.5-15.7,1-15.7-63.9c0-43.9-0.8-59.3-3-61.1c-1.8-1.5-13.4-3.3-26-4.3c-12.4-1-30.6-3-40.4-4.8
	c-16.7-2.8-17.7-3.5-18.4-10.1c-1.8-15.9,2.8-17.2,44.9-10.6c13.1,2,29,3.8,35.3,3.8c6.3,0,23.2,1.5,37.9,3.8
	c14.6,2,37.4,4.8,50.5,6.6c13.1,1.5,25.5,4,27.3,5.3C2007.8,332.2,2007.8,348.1,2003.3,349.9z"/>
<path class="st0" d="M1756.1,319.4c-9.3-16.7-18.4-20-67.9-24.7c-55.5-5.3-99.2-7.1-110.6-4.3c-4.8,1.3-11.4,5.1-14.4,8.8
	c-5.6,6.3-5.8,8.1-5.8,60.6v54l8.8,8.8c5.1,5,12.4,9.3,16.9,10.1c27.5,4.8,82.3,9.1,118.4,9.6c39.1,0.8,42.4,0.5,47.7-4.3
	c11.6-10.4,12.6-16.2,12.6-63.6C1761.9,332.5,1761.4,328.7,1756.1,319.4z M1726.8,419.3c-10.6,1-43.7-0.8-87.3-4.6
	c-63.4-5.3-59.3-2-59.3-53c0-22,1.3-41.2,2.5-43.9c2.5-4.3,5.6-4.8,31.1-4.8c15.7,0,42.4,1.8,59.8,3.8c17.4,2,36.4,3.8,42.2,3.8
	c8.3,0,11.6,1.3,15.7,6.6c4.8,6.1,5.3,10.1,5.3,42.9C1736.7,407.2,1734.4,418.8,1726.8,419.3z"/>
<path class="st0" d="M1490.3,413.5c4.3,15.4,4.8,15.4-86.9,12.9c-84.3-2.3-97.2-3.3-99.7-7.3c-1-1.8-2-105.8-1.3-140.9
	c0-4,57.3-4,127.5-0.2c27.8,1.5,53,3.8,56.3,5.1c6.3,2.5,7.6,11.4,2.3,18.4c-3.3,4.3-6.1,4.6-51.2,1.8c-26.2-1.8-61.3-3.3-78-3.5
	l-30.3-0.5v35.3l50.5,1.8c27.8,1,60.1,2.8,71.9,3.8l21.5,2l0.8,8.3c1.3,11.9-3.3,16.2-14.4,14.6c-5.1-0.8-34.8-2.8-66.7-4.3
	c-45.2-2.3-58.3-2-61.1,0.2c-4,3.3-5.3,29-1.8,34.6c2,3.3,66.7,7.6,131.8,9.1l26.2,0.5L1490.3,413.5z"/>
<path class="st0" d="M1239.4,377.4c0,27.5-0.8,39.4-3,40.7c-1.8,1-41.7,1.8-89.1,1.3c-95.7-0.8-96.7-0.8-105.3-17.9
	c-3.5-7.3-4.3-16.7-4.6-51.5c0-26,1.3-46.5,3-52.5c3.3-11.4,14.7-21.2,26-23c12.1-1.8,152-2,156.3-0.2c5.8,2.3,5.6,20.4-0.2,22.2
	c-2.5,0.8-37.9,1.3-78.8,1.3c-51.8,0-75,0.8-77,2.8c-4.3,4.3-3.8,86.3,0.8,91.9c3,3.8,10.6,4,73.2,3.5l69.7-0.8v-35.3l-35.1-0.8
	c-21.5-0.5-36.6-1.8-38.6-3.5c-2.3-1.8-3.3-6.6-2.8-11.9l0.8-9.1l47.5-0.8c29.8-0.3,49.2,0.2,52.2,2
	C1239.1,338.3,1239.4,341.3,1239.4,377.4z"/>
<path class="st0" d="M863.2,425.9c-61.3,1.5-64.9,1.3-74.5-3.8c-16.9-8.6-19.2-18.7-18.4-83.8l0.8-54l8.8-1.8
	c17.7-3.8,17.7-3.5,17.7,57.3c0,35.1,1,56.3,2.8,59.6c2.8,5.3,4,5.3,52.5,3.5c65.9-2,85.6-4,90.1-8.3c2.8-3,3.5-14.6,3.5-59.8
	c0-30.8,0.8-57.1,1.8-58.1s7.1-1.5,13.4-1l11.4,0.8l0.8,55.5C974.8,424.1,975.6,423.4,863.2,425.9z"/>
<path class="st0" d="M707.2,414.5c0.5,1.8,0.5,6.6-0.2,10.9c-1.5,7.6-1.8,7.6-21.7,9.1c-81,6.1-104.5,7.8-131.3,10.9
	c-16.7,1.8-31.3,2.5-32.3,1.5c-2.3-2-2.5-143.1-0.2-146.7c0.8-1.3,7.8-2.3,15.7-2.3s28.5-1.8,46-3.8c17.4-2,41.1-3.8,53-4
	c11.9-0.2,28.3-1.3,36.6-2.3c29-3.5,31.3-3.3,34.3,4c1.8,5,1.5,8.1-1.3,12.4c-3,4.5-6.8,5.8-23.2,7.1c-10.6,1-27,1.8-36.1,1.8
	c-9.1,0.2-35.8,2.3-59.6,4.5l-42.9,4.5l-0.8,15.9c-0.5,8.8,0.2,17.2,1.5,18.4c1.5,1.5,15.4,1,36.1-1.5c18.7-2,50-4.5,69.4-5.3
	c38.1-1.5,38.9-1.3,38.9,10.9c-0.2,10.4-3.3,11.4-44.7,13.6c-22,1-53.5,3.5-70.2,5.3l-30.3,3l-0.8,16.2c-0.5,9.1,0.5,17.4,2,18.9
	c3.3,3.3,39.4,2.3,82-2.5C669.1,410.5,705.7,410.2,707.2,414.5z"/>
<path class="st0" d="M453.5,325.4c-3-4.8-8.6-9.8-11.9-11.4c-13.4-6.1-18.7-6.1-95.9,2.8c-49.7,5.8-74,8.8-78.8,10.3
	c-4.3,1.3-4.5,7.1-4.5,73.2c0,55.3,0.8,72.2,3.3,73c1.5,0.5,7.1,0.2,11.9-0.8l8.8-2l1.3-21.2l1.3-21.5l15.1-3
	c8.3-1.8,28.3-4.3,44.2-5.8c15.9-1.3,35.1-3.5,42.7-5c7.3-1.3,18.2-2.5,24-2.8c15.4,0,31.8-9.1,38.6-21.2c4.8-8.3,5.8-13.9,5.8-33.1
	C459.3,337.3,458.5,332.7,453.5,325.4z M427.5,383.5c-4.5,3.5-10.3,5.3-18.4,5.3c-6.3,0-24.7,1.8-40.7,3.8
	c-60.6,7.6-75.7,9.1-78.2,7.6c-1.5-0.8-2.5-11.6-2.5-25.2c0-28.8-0.8-28.3,36.3-31.6c14.4-1.3,29-3,32.6-3.8c3.5-1,17.2-2.5,30-3.8
	c47.7-3.8,47.5-4,47.5,24C434.1,376.9,433.6,378.7,427.5,383.5z"/>
<path class="st0" d="M1168.9,2121.3c-1.8,1.8-7.6-4.8-14.4-17.2c-62.9-114.1-112.6-213.1-147.2-293.8c-14.4-33.1-14.1-49.2,0.3-96.2
	c1.5-4.8,3.8-12.9,4.8-17.7c1-4.8,3-12.4,4.3-16.4c1.5-4.3,4.5-14.4,7.1-22.7c2.3-8.3,5.6-19.2,7.3-24c1.8-4.8,5.3-15.7,7.6-24
	c2.5-8.3,5.6-17.9,7.1-21.5c1.3-3.5,3.3-9.8,4.6-13.9c1-4.3,6.1-18.9,11.1-32.8c5-13.9,10.1-28.8,11.4-32.8c1-4.3,4.5-13.9,7.6-21.5
	c3-7.6,6.3-16.7,7.6-20.2c1.3-3.5,4.5-12.6,7.6-20.2c3-7.6,6.3-17.4,7.3-21.5c1-4.3,3.3-9.8,4.5-12.6c3.3-5.8,15.6-37.9,19.4-50
	c2.5-8.1,5.6-2.5,10.1,19.4c4.8,22.2,4.5,34.3-0.8,55.8c-8.8,34.3-16.4,69.2-29.3,133.8c-12.4,61.9-16.9,85.8-18.9,101
	c-1,6.8-3,19.4-4.5,27.8c-3.8,20.4-9.6,59.1-14.1,96.2c-4.3,35.8-2.8,44.9,15.2,94.9c6.6,17.7,11.6,31.1,14.9,38.6
	c1.8,4,4.8,12.1,7.1,17.7c5.3,14.1,19.2,48.7,24,59.3c2,4.8,5,12.1,6.8,16.4c1.8,4,8.3,19.9,14.9,35.3
	C1164.4,2088.3,1172.5,2117.8,1168.9,2121.3z"/>
<path class="st0" d="M1667,1523.5c-6.8,48.2-15.7,96.2-22.7,121.4c-2,7.1-3.5,14.6-3.5,17.2c0,12.4-16.4,31.3-42.9,49.5
	c-4.8,3.3-9.3,6.8-10.1,7.6c-0.8,0.8-8.3,6.8-16.9,13.4c-8.6,6.6-17.2,13.4-18.9,15.1c-1.8,1.5-14.6,12.1-28.5,23.2
	c-13.9,11.1-26.3,21.5-27.8,23c-1.3,1.5-7.6,6.6-13.9,11.4c-10.3,7.8-62.3,50.7-83.6,68.9c-4.8,4.3-14.4,12.4-20.9,17.9
	c-6.6,5.3-14.6,12.1-17.7,15.2c-3.3,2.8-17.2,14.9-31.1,27c-23.7,20.7-35.6,34.8-48.7,58.8c-3,5.6-7.8,14.1-10.6,18.9
	c-2.8,4.8-8.1,14.1-11.4,20.7c-8.6,16.4-13.4,15.9-20.7-2.5c-3.3-7.8-7.3-18.2-9.3-22.7c-6.8-15.9-10.6-24.7-14.9-35.8
	c-2.3-6.3-5.6-14.1-6.8-17.7c-9.3-23.7-10.4-28.8-7.3-41.6c1.8-7.1,4.5-16.7,6.6-21.5c1.8-4.8,4.8-13.4,7.1-18.9
	c9.1-24.5,12.6-33.3,15.7-40.4c1.8-4.3,14.4-33.8,27.8-65.6c13.4-32.1,25.5-59.1,26.8-60.3c1.3-1.5,2.3-4,2.3-6.1s2.8-6.8,6.3-11.1
	c4-4.8,6.3-6.1,6.3-3.5c0,2-1,4.5-2.5,5.3c-1.3,0.8-2.5,4.5-2.5,8.3c0,3.5-1.5,11.1-3.5,16.9c-7.8,23.2-21.5,71.2-30.3,106
	c-2,8.3-5.8,23-8.1,32.8c-6.1,24.2-6.1,63.1,0,84.6c7.1,25.2,11.9,37.9,14.1,37.9c1.3,0,4.8-5.3,8.1-11.9
	c6.3-13.4,43.7-52.3,84.1-88.1c13.9-12.1,25.8-23,26.5-23.7c4-4.5,115.4-100,143.9-123.2c6.3-5.1,13.1-10.9,15.4-13.1
	c2.3-2,11.9-10.1,21.5-17.7c28.8-23,40.6-35.6,43.4-46.7c7.3-27.3,11.1-108.1,10.1-207c-1-90.6-1.5-99.5-6.1-112.6
	c-9.6-26.3-37.1-62.6-88.3-116.6c-13.4-14.1-24.2-27.8-25.2-31.6c-0.8-3.8-2.8-14.1-4.8-23.2c-1.8-9.1-5.3-25.5-7.6-36.6
	c-2.3-11.1-5.6-27-7.6-35.3c-1.8-8.3-5.3-24.2-7.6-35.4c-2.5-11.1-6.1-26-7.8-33.3c-4.8-17.4-4.6-18.4,3-18.4
	c4.8,0,12.6,6.1,30.8,24.7c40.9,41.2,87.1,95.9,132.3,156c39.1,52,41.4,57.1,45.4,103.3C1680.2,1356.7,1677.4,1448.3,1667,1523.5z"
	/>
<path class="st0" d="M1855.6,1204.2c-3.5,30.6-7.6,40.9-36.6,93.4c-4.8,9.1-10.6,19.7-12.6,24c-2,4-7.3,13.1-11.4,20.2
	c-4.3,6.8-8.8,14.9-10.4,17.7c-1.5,2.8-4.8,8.3-7.6,12.6c-2.8,4-5.8,9.3-6.8,11.4c-6.3,13.4-56,83.3-59.3,83.3c-1,0-2-13.1-2-29
	c0-32.6-1.5-29.8,27-53.5c7.3-6.1,17.2-18.2,23.5-29c11.9-19.7,53.8-101.2,56.3-109.6c0.8-2.5,3.8-11.6,6.6-19.7
	c3-8.3,5.3-20.7,5.3-27.8c0-34.1-15.7-154.5-24.2-184.8c-2-7.1-3.5-14.4-3.5-16.4c-0.2-5.8-10.6-16.7-21.5-22
	c-13.4-6.8-33.3-15.6-58.1-25.8c-30.8-12.6-40.1-17.2-45.7-22.2c-2.5-2.5-11.1-9.6-18.9-15.6c-36.6-29.3-51.5-41.4-52.8-42.9
	c-0.8-1-15.2-12.1-32.3-24.7c-35.1-26-38.9-27.3-69.7-19.2c-14.4,3.5-26,6.6-55,13.9c-13.9,3.3-38.1,1-42.4-4
	c-2.3-2.5-1.5-3.8,3-5.1c3.3-1,13.1-5.3,22.2-9.6c19.2-8.8,30.8-13.9,42.4-18.7c4.3-1.8,11.9-4.8,16.4-6.8
	c4.3-1.8,13.1-5.3,19.4-7.8c6.3-2.3,13.6-5.6,16.4-7.1c13.9-7.3,40.4-7.8,53.5-1c3.8,2,22.5,11.4,41.2,20.7
	c18.7,9.1,40.9,20.7,49.2,25.5c8.3,4.8,17.4,9.8,20.2,11.4c2.8,1.3,7.3,3.8,10.1,5.5c26,15.4,48.2,29,53.8,32.6
	c3.8,2.5,8.6,5.3,10.6,6.3c4,2,46.2,30.3,63.4,42.9c12.4,8.8,19.9,22.5,19.9,35.8c0,4,1.5,14.9,3.5,24.5
	C1858.4,1030,1862.2,1148.1,1855.6,1204.2z"/>
<path class="st0" d="M1293.7,865.9c-4.3,6.3-8.1,12.4-8.8,13.9c-0.8,1.3-7.8,12.6-16.2,25c-13.4,20.4-14.6,23.7-14.6,35.3
	c0.2,7.1,2,19.7,4,28s5.6,24.2,7.8,35.3c2.3,11.1,5.3,25.2,6.8,31.6c4,16.4,5.6,32.8,2.8,32.8c-7.1,0-16.4-17.4-24.7-46.7
	c-2.5-8.3-5.8-19.2-7.6-24c-1.8-4.8-5-15.6-7.6-24c-2.3-8.3-5.8-19.7-7.8-25.2c-7.6-21.7-6.1-26,23-64.4
	c17.2-23,26.5-37.4,26.5-41.4c0-8.1-8.3-24.2-16.7-32.1c-5.3-4.8-9.1-6.1-21-6.1c-8.3,0-19.2,2-25.8,4.8c-6.1,2.5-15.7,6.3-21.2,8.3
	c-5.5,2.3-13.4,5.3-17.7,7.1c-4,1.8-12.1,5-17.7,7.1c-5.6,2-18.9,7.3-29.5,11.9l-19.7,8.3l-16.2-4.3c-9.1-2.3-19.7-4-23.5-4
	c-15.4,0-16.4-7.8-3.8-26.5c7.6-11.1,17.2-15.1,54.3-22.5c46.9-9.6,57.3-11.6,77.5-15.4c11.9-2.3,28.3-5.6,36.6-7.3
	c21.7-5.1,21.7-5.1,41.4,5.1c14.4,7.3,17.9,10.3,17.9,14.9c0,3,1.8,10.6,3.8,16.7c2.3,5.8,4,18.9,4.3,28.5
	C1301,852.8,1300.2,855.8,1293.7,865.9z"/>
<path class="st0" d="M1009.9,2078.9c-14.4-7.8-25.5-16.9-50.5-41.7c-30.5-30.5-64.9-67.2-80-85.8c-4-4.8-7.8-9.3-8.6-10.1
	c-3-2.8-35.3-41.2-57.8-68.4c-12.9-15.9-26-31.6-28.8-35.1c-6.8-8.1-56.3-74.2-66.1-88.6c-26.8-38.6-30.3-48.7-27.8-77.8
	c4.5-55,5.8-68.4,8.8-86.1c4.5-27,9.6-38.1,24.7-56c37.4-43.7,60.1-72.5,121.2-153.7c52-69.4,81.8-109.8,83.6-114.1
	c0.5-1.3,5.8-9.6,11.9-18.4c6.1-8.8,11.1-16.7,11.1-17.4c0-0.5,3.3-6.1,7.6-12.1c13.1-19.4,22.7-41.4,22.7-51.5
	c0-5.3-1.5-19.9-3.5-32.3c-5.1-31.6-7.6-60.8-5.3-64.4c3-4.8,7.6-1.3,9.1,7.8c0.8,4.8,4,17.7,7.3,28.8c3,11.1,6.6,24.7,7.8,30.3
	c1,5.6,3.3,14.1,4.8,18.9c3.5,12.1,3.3,26-1,35.8c-2,4.6-11.4,26.5-20.5,48.7c-17.2,40.6-23,54.3-37.1,84.6
	c-4.3,9.1-10.8,23.2-14.6,31.5c-20.5,44.9-47.2,97.2-53.8,106c-4.3,5.6-34.6,36.9-67.4,69.4l-59.6,59.3l-4.5,22.7
	c-2.5,13.4-4.5,36.6-4.8,56.8l-0.5,34.1l15.4,25.2c18.2,29.8,33.1,51.8,56.6,83.1c9.1,12.6,18.9,26,21.7,29.5
	c17.2,23.7,55.8,73,72.5,93.1c11.1,13.1,24.2,29,29.3,35.1c25.2,30.5,53.8,63.1,76,86.8c6.3,6.6,22.7,19.7,36.6,29
	c13.9,9.3,25.5,18.9,26,21.5C1073.8,2111.7,1069.2,2110,1009.9,2078.9z"/>
<path class="st0" d="M829.4,1253.4c-3,5.6-10.1,17.9-15.4,27.8c-10.1,18.4-17.9,32.1-23.5,40.4c-1.5,2.8-4,7.3-5.3,10.1
	c-1.3,2.8-5.3,9.3-8.8,14.6c-3.5,5.3-6.6,10.3-6.6,11.6c0,4.3-18.2,20.5-26,22.7c-4.3,1.3-19.4,6.6-33.3,11.6
	c-13.9,5.1-28.5,10.1-32.8,11.4c-4,1-11.6,3.5-16.4,5.3c-4.8,1.5-12.9,4.3-17.7,6.1c-4.8,1.8-12.1,4.3-16.4,5.3
	c-7.1,2.3-7.6,3.3-8.3,15.4c-0.5,7.1,1,20.4,3.3,29.5c2,9.3,3.8,19.7,3.8,23.2c0,3.5,1.8,9.8,4,14.1c3.3,6.3,5,7.3,10.6,6.3
	c8.3-1.3,28-6.1,43.9-10.6c7.8-2,12.6-2.5,13.6-0.8c2.8,4.3-16.4,18.7-31.3,23.2c-7.8,2.3-19.7,6.1-26.3,8.1
	c-6.3,2.3-15.4,3.5-19.9,3c-7.8-0.8-8.6-1.8-12.6-15.9c-4.8-16.1-9.6-34.6-16.2-63.1c-4.5-18.9-9.6-33.3-15.9-45.4
	c-5-9.6-7.3-46.5-3.3-54c3-5.3,3.5-5,21.2,10.1c21.5,18.2,25,19.7,36.9,17.2c23-5,80.3-24.7,89.4-30.8c5.3-3.5,49.7-60.1,49.7-63.4
	c0-0.8,4.5-7.8,9.8-16.2c5.6-8.3,14.1-23,19.2-32.8l9.3-17.7l-4.8-13.1c-4.5-13.4-8.1-15.9-28.5-22.7c-3.5-1.3-12.6-4.5-20.2-7.6
	c-17.7-6.8-55.3-20.2-61.8-21.7c-10.6-2.8-11.6-3.5-10.1-6.1c2.3-3.8,17.7-3,33.3,1.3c7.3,2,19.4,5.6,26.8,7.6
	c7.6,2,16.2,3.8,19.2,3.8c3,0,7.6,1,10.1,2.5c2.5,1.3,12.4,4,22,6.3c9.6,2.3,20.2,4.8,23.7,5.6c8.1,2,20.2,10.9,20.2,14.9
	c0,1.5,1.8,4.3,3.8,6.1c2,1.8,4.3,6.8,5.3,11.4C848.6,1216.3,844.3,1226.9,829.4,1253.4z"/>
<path class="st0" d="M752.9,1275.4c-3.8,6.1-14.9,21.5-24.5,34.3c-13.4,17.9-20,24.7-28.3,28.3c-6.1,2.8-11.9,5.1-13.4,5.1
	c-1.5,0-6.3,1.5-10.9,3.5c-12.9,5.6-29.5,10.1-31.3,8.6c-1-1.3,7.1-8.8,38.1-34.6c10.1-8.3,42.7-34.6,59.1-47.5
	c9.1-7.3,16.9-12.4,17.4-11.1C759.7,1263.5,756.9,1269.3,752.9,1275.4z"/>
<path class="st0" d="M527.5,1224.9c0,17.2-8.1,55-11.9,55c-1.8,0-3.3-0.8-3.3-2c0-1-6.3-9.1-13.9-18.2c-7.6-8.8-13.9-17.4-13.9-18.9
	c0-7.6,26.5-26.3,37.4-26.5C526.7,1214.3,527.5,1215.5,527.5,1224.9z"/>
<path class="st0" d="M703.7,920.9c-7.1,1.5-13.6,2.3-14.9,1.5c-1.3-0.8-2.3-6.8-2.3-13.6c0-15.7,4.3-20.2,18.9-20.2
	c6.6,0,12.6,1.5,14.9,4C729.9,902,721.3,916.6,703.7,920.9z"/>
<path class="st0" d="M1746.8,818.2c0,3.8-12.6,2.5-20.9-2.3c-4.3-2.3-15.2-9.1-24-15.1c-8.8-5.8-16.4-10.6-16.9-10.6
	c-0.5,0-5.3-3-10.6-6.6c-5.3-3.5-11.9-7.6-14.6-8.8c-2.8-1.3-8.3-4.6-12.6-7.3c-4-2.8-9.3-5.8-11.4-6.8s-11.6-6.6-21.5-12.1
	c-9.6-5.8-27.8-15.4-40.1-21.5c-22.7-10.9-22.7-10.9-60.6-12.9c-42.9-2.5-70.4-6.3-79.8-11.1c-13.1-7.1-50-23.7-71.9-32.8
	c-12.4-5.1-27-11.1-32.3-13.4c-8.6-3.5-17.2-3.5-85.8-0.8c-41.9,1.8-90.1,4-107.3,4.5c-20.4,1-32.1,0.5-33.8-1.3c-2-2-1-3,3.3-4
	c14.6-2.8,64.9-9.3,100.7-12.6c21.5-2.3,51.8-5,66.9-6.6c15.4-1.8,45.7-3.8,67.7-5c22-1,40.4-2.5,41.2-3.3c0.8-0.5-3-3.8-8.3-7.1
	l-9.6-6.1l-142.6,0.5c-111.3,0.2-152,1.3-184.8,4.5l-42.2,4l-36.1,18.4c-19.9,10.1-43.9,22.7-53.8,28c-26,14.4-46.5,25.5-60.6,32.8
	c-6.8,3.5-15.9,8.6-20.2,11.1c-4,2.5-14.9,8.6-24,13.4c-9.1,5-22.2,12.4-29,16.4c-7.1,4-14.4,8.1-16.4,9.1c-2,1-5.8,3-8.1,4.8
	c-5.1,3.5-8.3,1.5-6.3-3.8c0.8-2,11.4-10.4,23.7-18.4c27.8-18.2,56-39.4,85.1-64.1c31.3-26.2,36.6-32.1,52.2-55.5
	c9.8-14.9,15.9-21.4,22.5-24.2c8.6-3.8,36.9-5.8,147.7-10.9c59.3-2.8,122.4-2.8,176.7-0.2c26.5,1.3,65.6,3,87.1,4
	c39.6,1.5,57.8,4.8,78.3,14.1c20.2,9.1,101.5,50,125,62.6c12.6,6.8,28.5,15.1,35.3,18.9c7.1,3.5,16.7,8.8,21.5,11.9
	c4.8,2.8,13.9,7.8,20.2,11.4c21.2,11.4,34.1,19.2,40.4,24C1666.8,735.9,1746.8,815.7,1746.8,818.2z"/>
<path class="st0" d="M769.8,914.6c0,5.6-23.5,26-35.3,30.5c-6.3,2.5-14.6,6.1-18.9,7.8c-4,1.8-12.4,5.1-18.2,7.3
	c-6.1,2.3-15.7,5.8-21.5,8.1c-6.1,2.3-14.1,5.6-18.4,7.3c-4,1.8-12.6,5.1-18.9,7.6c-6.3,2.3-14.1,5.6-17.7,6.8
	c-3.5,1.3-14.1,5.1-24,8.3c-9.6,3.3-24,8.6-31.6,11.4c-7.6,3-16.7,6-20.2,6.8c-9.1,1.8-18.7,9.6-17.2,13.9c1,2.5,10.6,4.3,33.8,6.8
	c17.9,1.8,34.3,4.3,36.4,5.3c2,1,18.4,17.2,36.4,35.3c37.4,38.1,37.1,37.4,6,42.7c-10.1,1.8-27.3,4.8-37.9,6.8
	c-10.9,1.8-29,5.3-40.4,7.3c-11.6,2.3-26,5.3-32.3,6.8c-6.3,1.5-16.4,3.5-22.7,4.5c-23.2,4-28,9.1-32.8,34.1
	c-11.1,56-10.9,55.8-29.8,37.4c-16.1-15.7-48.5-58.1-48.5-63.6c0-5.5,6.8-14.6,28.8-39.1c9.6-10.6,19.4-22,21.5-25
	c8.8-12.4,15.4-37.6,10.9-40.6c-2.8-1.5-18.7,16.4-21.5,24c-0.8,2.3-10.4,10.9-21.2,19.2c-31,23.7-33.8,24.5-41.9,11.1
	c-11.9-20.4,5.6-39.4,105.5-114.6c21-15.9,46.7-34.8,57.6-42.7c18.4-13.1,24-19.2,54.5-59.1c5.5-7.1,14.4-16.4,19.7-20.5
	c9.1-7.1,54.3-35.6,77.8-48.7c6.1-3.5,12.6-7.8,14.4-9.6c3.3-3.3,12.1-4.3,12.1-1c0,1-12.6,11.4-28,23c-31.8,24-34.8,28.5-36.9,57.6
	c-1.5,20.2-6.3,29.5-16.4,31.8c-3.3,0.8-12.1,3.8-19.7,6.8s-16.2,6.1-18.9,6.8c-6.1,1.8-29,18.7-29,21.5c0,3,13.1,2.3,25.5-1.5
	c27-8.3,33.6-9.1,45.4-5.1c12.1,4.3,29,3.3,51.5-2.8c7.1-2,21-5.8,31-8.6c10.9-3,25-9.3,33.8-15.4
	C769.6,910.1,769.8,910.1,769.8,914.6z"/>
<path class="st0" d="M990.2,713.4c-0.3,3-7.3,16.7-15.4,30.3c-8.1,13.6-15.4,26.8-16.4,28.8c-1,2-4,7.1-6.8,11.4
	c-2.5,4-7.3,12.6-10.6,18.7c-6.6,12.6-17.2,22.5-26.8,24.5c-3.8,0.8-10.9,2.8-15.6,4.6c-4.8,2-15.2,5.3-22.7,7.6
	c-7.6,2-24,7.3-36.6,11.1c-42.7,13.6-52.5,15.4-101,18.2c-63.6,3.3-60.1,3.5-57-2c1.3-2.5,9.3-7.3,17.9-10.8
	c18.7-7.3,21.7-10.1,46.7-41.4c31.3-39.1,33.6-41.2,64.4-56.1c31-14.9,41.9-19.9,55-25.2c4.3-1.8,11.9-4.8,16.4-6.8
	c7.6-3.3,14.1-5.8,38.4-14.9c7.3-2.8,18.7-3.8,40.4-3.5C989.7,708.1,990.7,708.4,990.2,713.4z"/>
</svg>
