<?xml version="1.0" encoding="utf-8"?>
<!-- Generator: Adobe Illustrator 27.1.0, SVG Export Plug-In . SVG Version: 6.00 Build 0)  -->
<svg version="1.1" id="Capa_1" xmlns="http://www.w3.org/2000/svg" xmlns:xlink="http://www.w3.org/1999/xlink" x="0px" y="0px"
	 viewBox="0 0 150 150" style="enable-background:new 0 0 150 150;" xml:space="preserve">
<style type="text/css">
	.st0{fill-rule:evenodd;clip-rule:evenodd;fill:#FFFFFF;stroke:#000000;stroke-width:2;stroke-miterlimit:10;}
	.st1{fill-rule:evenodd;clip-rule:evenodd;fill:url(#SVGID_1_);}
	.st2{fill-rule:evenodd;clip-rule:evenodd;fill:#FDFEFE;}
</style>
<path class="st0" d="M74.8,18.7c-19,0-36.9,4.2-50.4,11.9C10.5,38.5,2.9,49.1,2.9,60.5c0,7.4,3.3,14.7,9.7,21
	c12.8,12.8,36.6,20.7,62.2,20.7s49.4-7.9,62.2-20.7c6.3-6.3,9.7-13.6,9.7-21s-3.3-14.7-9.7-21C124.2,26.7,100.4,18.7,74.8,18.7z"/>
<linearGradient id="SVGID_1_" gradientUnits="userSpaceOnUse" x1="6.9" y1="89.5" x2="142.7" y2="89.5" gradientTransform="matrix(1 0 0 -1 0 150)">
	<stop  offset="0" style="stop-color:#00519C"/>
	<stop  offset="1" style="stop-color:#103160"/>
</linearGradient>
<path class="st1" d="M74.8,98.2c-24.6,0-47.3-7.5-59.4-19.5c-5.6-5.6-8.5-11.8-8.5-18.2s2.9-12.6,8.5-18.2
	c12.1-12,34.8-19.5,59.4-19.5s47.3,7.5,59.4,19.5c5.6,5.6,8.5,11.9,8.5,18.2C142.6,81.3,112.2,98.2,74.8,98.2z"/>
<path class="st2" d="M49.2,74.7l5.7-16.1c0.3-0.7,0.9-1.2,1.6-1.3l29.2-4.9c0.7-0.1,0.7-0.3,0-0.4l-29.2-5.1
	c-0.7-0.2-1.3-0.7-1.6-1.3L49.2,29c-0.2-0.6-0.6-0.6-0.8,0l-6,16.6c-0.3,0.7-0.9,1.2-1.6,1.3L11,52c-0.6,0.1-0.6,0.3,0,0.4l29.8,4.9
	c0.7,0.2,1.3,0.6,1.6,1.3l6,16.1C48.6,75.3,49,75.3,49.2,74.7z"/>
<path class="st2" d="M84.3,62.5L71,64.8c-0.3,0-0.3,0.1,0,0.2l13.2,2.2c0.3,0.1,0.6,0.3,0.7,0.6l2.6,7.2c0.1,0.3,0.3,0.3,0.4,0
	l2.5-7.2c0.1-0.3,0.4-0.5,0.7-0.6l13-2.2c0.3,0,0.3-0.1,0-0.2l-13-2.3c-0.3-0.1-0.6-0.3-0.7-0.6L88,54.5c-0.1-0.3-0.2-0.3-0.3,0
	L85,61.9C84.9,62.2,84.6,62.4,84.3,62.5z"/>
<path class="st2" d="M126.4,61.9l-2.6-7.4c-0.1-0.3-0.2-0.3-0.3,0l-2.7,7.4c-0.1,0.3-0.4,0.5-0.7,0.6l-13.3,2.3
	c-0.3,0-0.3,0.1,0,0.2l13.3,2.2c0.3,0.1,0.6,0.3,0.7,0.6l2.7,7.2c0.1,0.3,0.2,0.3,0.4,0l2.5-7.2c0.1-0.3,0.4-0.5,0.7-0.6l13-2.2
	c0.3,0,0.3-0.1,0-0.2l-13-2.3C126.8,62.4,126.5,62.2,126.4,61.9z"/>
<path class="st2" d="M109.6,46c0.3,0.1,0.6,0.3,0.7,0.6l2.7,7.2c0.1,0.3,0.3,0.3,0.4,0l2.5-7.2c0.1-0.3,0.4-0.5,0.7-0.6l13-2.2
	c0.3,0,0.3-0.1,0-0.2l-13-2.3c-0.3-0.1-0.6-0.3-0.7-0.6l-2.6-7.4c-0.1-0.3-0.3-0.3-0.3,0l-2.7,7.4c-0.1,0.3-0.4,0.5-0.7,0.6
	l-13.2,2.3c-0.3,0-0.3,0.1,0,0.2L109.6,46z"/>
<path class="st2" d="M103.7,79c-0.3-0.1-0.6-0.3-0.7-0.6l-2.5-7.4c-0.1-0.3-0.3-0.3-0.3,0l-2.7,7.4c-0.1,0.3-0.4,0.5-0.7,0.6
	l-13.2,2.3c-0.3,0-0.3,0.1,0,0.2l13.2,2.2c0.3,0.1,0.6,0.3,0.7,0.6l2.7,7.2c0.1,0.3,0.3,0.3,0.4,0l2.6-7.1c0.1-0.3,0.4-0.5,0.7-0.6
	l13-2.2c0.3,0,0.3-0.1,0-0.2L103.7,79z"/>
<path class="st2" d="M66.7,82.2c-0.3-0.1-0.6-0.3-0.7-0.6l-2.6-7.4c-0.1-0.3-0.2-0.3-0.3,0l-2.7,7.4c-0.1,0.3-0.4,0.5-0.7,0.6
	l-13.3,2.3c-0.3,0.1-0.3,0.1,0,0.2l13.3,2.2c0.3,0.1,0.6,0.3,0.7,0.6l2.7,7.2c0.1,0.3,0.2,0.3,0.4,0l2.5-7.2
	c0.1-0.3,0.4-0.5,0.7-0.6l13-2.2c0.3,0,0.3-0.1,0-0.2L66.7,82.2z"/>
<path class="st2" d="M70.5,122.8L70.5,122.8c1.5-0.5,2.6-1.1,2.6-4.2c0-3.5-2.1-4.7-6.5-4.7H50.9v17.9h17.5c3.1,0,5.5-0.8,5.5-4.7
	C73.8,124.4,72.9,123.1,70.5,122.8z M56.4,118.2h9.7c1,0,1.6,0.4,1.6,1.4s-0.6,1.4-1.6,1.4h-9.7C56.4,121,56.4,118.2,56.4,118.2z
	 M66.2,127.5h-9.8v-2.8h9.8c1.2,0,2,0.3,2,1.5C68.2,127.2,67.4,127.5,66.2,127.5z"/>
<path class="st2" d="M44.4,124.2c0,2.3-0.8,3.2-3,3.2h-5.5c-2.2,0-3-0.9-3-3.2v-10.3h-5.5v11.5c0,4.4,2.3,6.6,7.3,6.6h7.9
	c5,0,7.3-2.1,7.3-6.6v-11.5h-5.5V124.2z"/>
<path class="st2" d="M15.7,120.7c-5.9,0-6.5,0-6.5-1.6c0-1,0.8-1.4,2.1-1.4h6.1c2.5,0,2.7,0.6,2.7,1.8h5.5V119
	c0-3.2-0.6-5.3-6.9-5.3h-7.6c-6.9,0-7.2,2.5-7.2,5.7c0,4.4,0.9,5.4,9.2,5.4c7.1,0,7.7,0.1,7.7,1.7c0,1.4-1.2,1.5-2.4,1.5h-6.7
	c-1.6,0-2.3-0.2-2.4-2H3.6v1.2c0,3.9,2,4.8,7,4.8h6.6c7.3,0,8.9-0.8,8.9-5.6C26.2,121.2,24.2,120.7,15.7,120.7z"/>
<path class="st2" d="M140.5,124.2c0,2.3-0.8,3.2-3.1,3.2H132c-2.2,0-3.1-0.9-3.1-3.2v-10.3h-5.5v11.5c0,4.4,2.3,6.6,7.3,6.6h7.9
	c5,0,7.3-2.1,7.3-6.6v-11.5h-5.5L140.5,124.2z"/>
<path class="st2" d="M82.6,113.9l-9.7,17.9H79l1.6-3.2h11.1l1.7,3.2h6.1l-9.9-17.9H82.6z M82.7,124.8l3.5-6.7l3.6,6.7H82.7z"/>
<path class="st2" d="M117,113.9h-16.6v17.9h5.5v-4.6h8.6c1.7,0,2.2,0.6,2.2,2.5v2.1h5.5v-3c0-2.9-1.4-3.7-3-4l0,0
	c2.5-0.6,3.1-2,3.1-4.4v-1.1C122.4,116,121.2,113.9,117,113.9z M117,120.8c0,1.3-0.6,1.9-2,1.9h-9.1v-4.3h8.6c1.7,0,2.5,0.3,2.5,1.9
	V120.8z"/>
</svg>
