<?xml version="1.0" encoding="utf-8"?>
<!-- Generator: Adobe Illustrator 27.1.0, SVG Export Plug-In . SVG Version: 6.00 Build 0)  -->
<svg version="1.1" id="Capa_2_00000097472357299902198030000010556947424804724413_"
	 xmlns="http://www.w3.org/2000/svg" xmlns:xlink="http://www.w3.org/1999/xlink" x="0px" y="0px" viewBox="0 0 150 150"
	 style="enable-background:new 0 0 150 150;" xml:space="preserve">
<style type="text/css">
	.st0{fill:#FFFFFF;}
</style>
<path class="st0" d="M71.8,127.1c2.1,0,4.3,0,6.4,0c0.3,0,0.6-0.1,0.9-0.1c2.7-0.2,5.4-0.3,8-0.6c6.7-0.7,13.2-2.1,19.6-4.2
	c9.4-3.1,18.2-7.5,26-13.9c4.9-4.1,9.1-8.8,12.3-14.5c5.4-9.8,6.6-20,3-30.8c-2.2-6.7-6.1-12.4-10.9-17.3
	c-6-6.1-12.9-10.6-20.4-14.1c-10.9-5.1-22.4-7.7-34.2-8.5c-5.7-0.4-11.5-0.3-17.2,0.2C59,23.9,52.9,25,46.9,26.7
	c-9.2,2.6-18,6.5-25.9,12.2c-5.9,4.2-11,9.2-14.9,15.5c-3,4.9-5.1,10.2-5.8,16c-0.1,0.9-0.2,1.8-0.3,2.7c0,1.2,0,2.4,0,3.7
	c0,0.2,0.1,0.5,0.1,0.7c0.1,1.2,0.2,2.3,0.4,3.5c1,6.2,3.5,11.8,7,16.8c4.4,6.2,9.9,11.1,16,15.1c7.7,5,15.9,8.4,24.6,10.8
	c6.7,1.8,13.4,2.8,20.3,3.2C69.6,127,70.7,127.1,71.8,127.1z M130.7,49.7c0.1,0.2,0.2,0.2,0.3,0.3c1.1,1.8,2.3,3.4,3.3,5.3
	c5.5,10.5,6.1,21.3,1.5,32.3c-2.8,6.8-7.3,12.2-12.6,16.8c-6.5,5.6-13.9,9.5-21.8,12.2c-5.9,2-11.9,3.3-18.1,3.9
	c-0.6,0.1-1.2,0.1-2,0.1c2-1.9,3.5-4,4.7-6.2c2.4-4.4,4-9.2,5.2-14.2c1.9-8.2,2.6-16.5,2.6-24.9c0-0.2,0-0.5,0-0.7
	c0.7-0.1,1.4-0.3,2.1-0.4c5.9-1.1,11.7-2.7,17.2-5.1c4.2-1.8,8.2-4,11.7-7.1C128.2,58.8,130.8,55.1,130.7,49.7z M68.6,120.6
	c-0.3,0-0.5,0-0.6,0c-5.3-0.5-10.5-1.3-15.6-2.8c-8.9-2.5-17.2-6.5-24.5-12.5c-5.6-4.5-10.2-10-13.3-16.7c-3.1-6.7-4.2-13.8-3-21.3
	c1-6.4,3.7-12.1,7.4-17.2c0.1-0.1,0.2-0.2,0.2-0.2c0.1,0.9,0.1,1.8,0.2,2.7c0.5,2.8,1.8,5.2,3.6,7.3c2.4,2.8,5.2,4.9,8.3,6.6
	c6.4,3.7,13.3,5.9,20.4,7.4c1.5,0.3,3,0.6,4.5,0.9c0,0.2,0,0.3,0,0.5c-0.1,5.3,0.2,10.5,0.9,15.7c0.7,5.4,1.8,10.8,3.6,15.9
	C62.4,111.9,64.7,116.8,68.6,120.6z M77.9,30.2c0.5,0,0.9,0,1.2,0c3.7,0.3,7.5,0.6,11.2,1c4.8,0.6,9.4,1.7,14,3.3
	c3.3,1.2,6.5,2.6,9.4,4.8c1.3,1.1,2.6,2.3,3.4,3.8s1.1,3.1,0.6,4.8c-0.3,1.2-0.9,2.3-1.7,3.2c-1.6,1.9-3.5,3.2-5.5,4.3
	c-4.2,2.3-8.6,3.7-13.2,4.7c-1.5,0.3-3,0.6-4.5,0.9c-0.1-0.3-0.1-0.5-0.1-0.6c-0.5-3.5-1.2-7-2.1-10.4c-1.3-4.6-2.9-9.1-5.4-13.1
	c-1.5-2.5-3.3-4.7-5.8-6.1C78.9,30.7,78.5,30.5,77.9,30.2z M57.2,61.2c-3.2-0.5-6.4-1.3-9.4-2.2c-3.7-1.2-7.3-2.6-10.6-4.8
	c-1.5-1-2.8-2.2-3.8-3.7c-1.8-2.6-1.8-5.4,0-8.1c1.1-1.5,2.4-2.7,3.9-3.7c2.7-1.8,5.6-3.1,8.6-4.2c8.4-2.9,17.1-4,25.9-4.3
	c0.1,0,0.1,0,0.3,0.1c-2.4,1-4.2,2.6-5.7,4.7c-0.8,1.1-1.6,2.3-2.3,3.5c-3.2,5.8-4.9,12.1-6.2,18.6C57.7,58.4,57.5,59.8,57.2,61.2z
	 M86.2,75.6c0,0.3,0,0.5,0,0.7c-0.2,4.3-0.6,8.6-1.5,12.8C84,92.6,83,96,81.3,99.2c-0.8,1.4-1.7,2.7-2.9,3.8c-2.2,1.9-4.7,2-6.8,0
	c-1-0.9-1.8-2-2.5-3.2c-1.5-2.4-2.4-5.1-3.1-7.8c-1.2-4.3-1.8-8.7-2.1-13.1c-0.1-1.1-0.1-2.1-0.1-3.2C71.3,76.2,78.7,76.2,86.2,75.6
	z M85.5,62.1c-7,0.7-14,0.7-21,0c0.2-0.9,0.3-1.7,0.4-2.6c0.7-3.8,1.7-7.4,3.4-10.8c0.9-1.7,1.9-3.3,3.3-4.6c2.1-1.8,4.4-1.8,6.6,0
	c1.2,1,2.1,2.3,2.9,3.7C83.5,52.3,84.7,57.1,85.5,62.1z"/>
</svg>
