<?xml version="1.0" encoding="utf-8"?>
<!-- Generator: Adobe Illustrator 27.1.0, SVG Export Plug-In . SVG Version: 6.00 Build 0)  -->
<svg version="1.1"
	 id="svg2" xmlns:svg="http://www.w3.org/2000/svg" xmlns:cc="http://creativecommons.org/ns#" xmlns:rdf="http://www.w3.org/1999/02/22-rdf-syntax-ns#" xmlns:dc="http://purl.org/dc/elements/1.1/"
	 xmlns="http://www.w3.org/2000/svg" xmlns:xlink="http://www.w3.org/1999/xlink" x="0px" y="0px" viewBox="0 0 600 600"
	 style="enable-background:new 0 0 600 600;" xml:space="preserve">
<style type="text/css">
	.st0{fill:#FFFFFF;}
</style>
<path class="st0" d="M300,570.4C151.7,570.4,30.2,448.3,30.2,300c0-33.4,6-64.9,17.3-94.7l157.8,317.5c1.8,4.2,4.8,7.7,9.5,7.7
	s7.7-3.6,9.5-7.7L297,360.2c0.6-1.8,1.8-3.6,3.6-3.6s2.4,1.8,3.6,3.6l72.7,162.6c1.8,4.2,4.8,7.7,9.5,7.7c4.8,0,7.7-3.6,9.5-7.7
	l157.8-317.5C565,235.1,571,266.6,571,300C569.8,448.3,448.3,570.4,300,570.4z M300,238.7c-1.8,0-2.4-1.8-3.6-3.6L211.8,44.5
	C239.2,34.4,269,29,300,29s60.8,5.4,88.2,15.5l-84.6,190.6C302.4,237.5,301.8,238.7,300,238.7z M213.6,434.6c-1.8,0-2.4-1.8-3.6-3.6
	L73,154.6c24.4-37.5,57.2-69.1,97.1-91.1L269,283.3c1.2,3.6,4.2,4.8,7.1,4.8h47.6c3.6,0,6-0.6,7.7-4.8l98.9-219.8
	c39.3,22,72.7,53.6,97.1,91.1L389.3,431c-0.6,1.8-1.8,3.6-3.6,3.6c-1.8,0-2.4-1.8-3.6-3.6l-51.8-117.9c-1.8-4.2-4.2-4.8-7.7-4.8H275
	c-3.6,0-6,0.6-7.7,4.8l-50,117.9C216.6,432.8,215.4,434.6,213.6,434.6z M300,597.8c165,0,297.8-132.8,297.8-297.8S465,2.2,300,2.2
	S2.2,135,2.2,300S135,597.8,300,597.8z"/>
</svg>
